<svg width="24" height="24" viewBox="0 0 24 24" fill="none" xmlns="http://www.w3.org/2000/svg">
    <path
        d="M6.40777 24C2.21252 24 0 21.7458 0 17.425V6.57344C0 2.25421 2.21252 0 6.40777 0H17.5933C21.6977 0 24.0005 2.25421 24.0005 6.57344V17.4223C24.0005 21.7431 21.6961 23.9957 17.5933 23.9957L6.40777 24ZM17.2705 20.243C18.7915 20.243 19.6674 19.3035 19.6674 17.8007V6.19934C19.6674 4.55545 18.8839 3.75648 17.2705 3.75648H6.73003C5.11659 3.75648 4.33259 4.55812 4.33259 6.19934V17.8007C4.33259 19.4446 5.11659 20.243 6.73003 20.243H17.2705Z"
        fill="#0020FF" />
    <path d="M13.862 10.1387H10.1387V13.862H13.862V10.1387Z" fill="#FFD400" />
</svg>
