<svg width="19" height="19" viewBox="0 0 19 19" fill="none" xmlns="http://www.w3.org/2000/svg">
<path d="M6.45061 0.518326C4.67084 1.12102 3.10994 2.23758 1.96537 3.72677C0.820806 5.21595 0.143986 7.01085 0.020528 8.88442C-0.10293 10.758 0.33252 12.6261 1.2718 14.2523C2.21107 15.8786 3.61198 17.19 5.2973 18.0206C6.98263 18.8513 8.87665 19.1639 10.7398 18.9188C12.6029 18.6738 14.3515 17.8821 15.7643 16.644C17.1771 15.4059 18.1906 13.777 18.6767 11.9632C19.1628 10.1495 19.0996 8.23249 18.4951 6.45466C18.1007 5.27037 17.4749 4.17607 16.6542 3.23515C15.8334 2.29424 14.8339 1.52543 13.7136 0.973265C12.5933 0.421105 11.3745 0.0965758 10.1278 0.0184826C8.88101 -0.0596106 7.63116 0.110285 6.45061 0.518326ZM15.1957 7.4449L8.65615 13.9661C8.6322 13.991 8.60348 14.0107 8.57172 14.0242C8.53996 14.0377 8.5058 14.0447 8.47128 14.0447C8.43677 14.0447 8.40261 14.0377 8.37085 14.0242C8.33909 14.0107 8.31037 13.991 8.28642 13.9661L3.79575 9.47926C3.7709 9.45533 3.75113 9.42664 3.73763 9.39491C3.72413 9.36317 3.71717 9.32904 3.71717 9.29456C3.71717 9.26007 3.72413 9.22594 3.73763 9.19421C3.75113 9.16247 3.7709 9.13378 3.79575 9.10985L5.83183 7.07805C5.85578 7.05322 5.88449 7.03347 5.91626 7.01998C5.94802 7.0065 5.98218 6.99954 6.01669 6.99954C6.0512 6.99954 6.08536 7.0065 6.11713 7.01998C6.14889 7.03347 6.1776 7.05322 6.20156 7.07805L8.28642 9.16115C8.31037 9.18598 8.33909 9.20573 8.37085 9.21922C8.40261 9.23271 8.43677 9.23966 8.47128 9.23966C8.5058 9.23966 8.53996 9.23271 8.57172 9.21922C8.60348 9.20573 8.6322 9.18598 8.65615 9.16115L12.7899 5.0283C12.8139 5.00347 12.8426 4.98372 12.8744 4.97023C12.9061 4.95674 12.9403 4.94979 12.9748 4.94979C13.0093 4.94979 13.0435 4.95674 13.0752 4.97023C13.107 4.98372 13.1357 5.00347 13.1597 5.0283L15.1957 7.06009C15.2206 7.08402 15.2404 7.11272 15.2539 7.14445C15.2674 7.17619 15.2743 7.21032 15.2743 7.2448C15.2743 7.27929 15.2674 7.31342 15.2539 7.34515C15.2404 7.37689 15.2206 7.40558 15.1957 7.42951V7.4449Z" fill="#1300FF"/>
</svg>
