<svg width="23" height="23" viewBox="0 0 23 23" fill="none" xmlns="http://www.w3.org/2000/svg">
<path fill-rule="evenodd" clip-rule="evenodd" d="M20.1916 19.4077C22.6832 19.9528 23.6838 20.7194 22.511 21.4593C20.6412 22.6103 14.2164 23.2569 8.12943 22.9033C2.08319 22.552 -1.35351 21.3414 0.504638 20.1904C2.37441 19.0394 8.79927 18.3961 14.8455 18.7508C14.9305 18.7557 15.015 18.7608 15.099 18.766C15.0591 18.6273 15.0229 18.488 14.9908 18.3483C14.8022 17.5277 14.6659 16.6985 14.4876 15.876C14.46 15.7485 14.3572 15.6025 14.2362 15.5248C13.3563 14.9595 12.4644 14.4077 11.5711 13.8578C11.4914 13.8088 11.3734 13.7795 11.2749 13.7824C10.8407 13.7948 10.458 13.6881 10.1095 13.471C8.043 12.1843 6.44906 10.5522 5.25791 8.63389C4.71307 7.75638 5.42739 6.81544 6.59197 6.82514C6.71257 6.8262 6.85581 6.78065 6.95136 6.71658C7.48251 6.36049 7.90209 5.9195 8.25354 5.42977C8.88503 4.54976 9.22285 3.58489 9.38864 2.57194C9.46507 2.10507 9.83733 1.8411 10.3784 1.88813C10.8158 1.9261 11.171 2.29014 11.112 2.66927C10.9229 3.88268 10.525 5.03986 9.78887 6.10119C9.75351 6.15215 9.61782 6.34114 9.51531 6.45764C10.5797 5.93719 11.4277 5.19864 12.1651 4.34788C12.507 3.95331 13.0202 3.86439 13.438 4.12729C13.831 4.37444 13.8829 4.83119 13.5553 5.21343C12.9343 5.93825 12.2304 6.59688 11.3931 7.14667C10.554 7.69771 9.65351 8.11034 8.65449 8.35361C8.73744 8.51479 8.83119 8.6489 8.90094 8.72027C9.70967 9.54701 10.6345 10.2686 11.7022 10.8491C11.8119 10.9088 11.9921 10.9284 12.1203 10.9011C13.0476 10.7043 13.9754 10.5067 14.8921 10.2776C15.8343 10.0421 16.7297 10.098 17.5909 10.497C18.9065 11.1068 20.2208 11.7188 21.5304 12.338C21.667 12.4026 21.7895 12.5093 21.8811 12.6191C22.2098 13.0135 22.1653 13.5383 21.7909 13.8968C21.4299 14.2423 20.819 14.3472 20.3299 14.1193C19.8629 13.9017 19.4207 13.6456 18.9557 13.4248C18.0972 13.0174 17.2321 12.6197 16.3635 12.2282C16.2436 12.1741 16.0751 12.1357 15.9504 12.1623C15.2699 12.3075 14.596 12.4754 13.843 12.6537C14.5861 13.1613 15.2808 13.6053 15.9296 14.0935C16.2034 14.2995 16.4214 14.5809 16.5885 14.861C16.7277 15.0942 16.7773 15.3725 16.8285 15.6361C17.0485 16.7685 17.2041 17.91 17.6813 18.9974C18.3697 19.0803 19.0015 19.176 19.5706 19.2822C19.6691 18.8629 19.5135 18.5411 19.1832 18.2819C19.0217 18.1551 18.8597 18.075 18.7631 18.0412C18.5999 17.9841 18.5221 17.8254 18.5892 17.6866C18.6563 17.5478 18.843 17.4816 19.0061 17.5387C19.1671 17.595 19.3916 17.7061 19.6165 17.8826C20.112 18.2714 20.3444 18.7867 20.1916 19.4077ZM4.15278 7.2432C2.91781 7.2432 1.91667 6.39179 1.91667 5.34152C1.91667 4.29125 2.91781 3.43984 4.15278 3.43984C5.38775 3.43984 6.38889 4.29125 6.38889 5.34152C6.38889 6.39179 5.38775 7.2432 4.15278 7.2432ZM13.3058 2.13724C13.1298 2.12735 12.9965 1.99796 13.0081 1.84825C13.0198 1.69854 13.1719 1.58519 13.3479 1.59509C13.5041 1.60386 13.7647 1.63571 14.0958 1.70531C14.6448 1.82069 15.1938 2.00376 15.7084 2.2704C17.0334 2.95698 17.8924 4.06755 18.0509 5.66817C18.0657 5.81768 17.9352 5.94908 17.7594 5.96167C17.5836 5.97425 17.429 5.86326 17.4142 5.71375C17.2735 4.29184 16.5322 3.33354 15.376 2.73439C14.9213 2.4988 14.432 2.33566 13.9425 2.23277C13.6506 2.1714 13.4266 2.14403 13.3058 2.13724ZM14.9355 0.542757C14.7595 0.532862 14.6262 0.403476 14.6379 0.253764C14.6495 0.104052 14.8016 -0.00929275 14.9777 0.000601514C15.1338 0.00937863 15.3945 0.0412262 15.7255 0.11082C16.2745 0.226206 16.8236 0.40927 17.3381 0.67591C18.6631 1.3625 19.5222 2.47307 19.6806 4.07368C19.6954 4.22319 19.5649 4.35459 19.3891 4.36718C19.2133 4.37977 19.0588 4.26877 19.044 4.11926C18.9032 2.69735 18.162 1.73905 17.0057 1.1399C16.5511 0.904316 16.0617 0.741176 15.5722 0.638286C15.2803 0.576915 15.0563 0.549543 14.9355 0.542757ZM20.0409 16.9545C19.8777 16.8974 19.7999 16.7387 19.867 16.5999C19.9341 16.4612 20.1208 16.395 20.2839 16.452C20.4449 16.5083 20.6693 16.6194 20.8942 16.7959C21.5352 17.2989 21.7359 18.0135 21.2321 18.8946C21.1549 19.0296 20.9637 19.0858 20.8051 19.0201C20.6464 18.9545 20.5804 18.792 20.6575 18.657C21.0323 18.0016 20.9033 17.5423 20.461 17.1952C20.2995 17.0685 20.1375 16.9883 20.0409 16.9545Z" fill="#1300FF"/>
</svg>
