<svg width="24" height="24" viewBox="0 0 24 24" fill="none" xmlns="http://www.w3.org/2000/svg">
<g clip-path="url(#clip0)">
<path d="M0 12C0 5.37258 5.37258 0 12 0C18.6274 0 24 5.37258 24 12C24 18.6274 18.6274 24 12 24C5.37258 24 0 18.6274 0 12Z" fill="white"/>
<path d="M-12 0V24H36V0H-12Z" fill="#012169"/>
<path d="M-12 0L36 24L-12 0ZM36 0L-12 24L36 0Z" fill="black"/>
<path fill-rule="evenodd" clip-rule="evenodd" d="M6.63351 11.9999L-13.0732 2.14652L-10.9266 -2.14673L12.0001 9.31661L34.9268 -2.14673L37.0734 2.14652L17.3666 11.9999L37.0734 21.8533L34.9268 26.1465L12.0001 14.6832L-10.9266 26.1465L-13.0732 21.8533L6.63351 11.9999Z" fill="white"/>
<path d="M-12 0L36 24L-12 0ZM36 0L-12 24L36 0Z" fill="black"/>
<path fill-rule="evenodd" clip-rule="evenodd" d="M8.4225 11.9998L-12.7153 1.43089L-11.2842 -1.43127L12.0002 10.2109L35.2847 -1.43127L36.7158 1.43089L15.5779 11.9998L36.7158 22.5687L35.2847 25.4309L12.0002 13.7887L-11.2842 25.4309L-12.7153 22.5687L8.4225 11.9998Z" fill="#C8102E"/>
<path d="M12 0V24V0ZM-12 12H36H-12Z" fill="black"/>
<path fill-rule="evenodd" clip-rule="evenodd" d="M16 16V24H8V16H-12V8H8V0H16V8H36V16H16Z" fill="white"/>
<path d="M12 0V24V0ZM-12 12H36H-12Z" fill="black"/>
<path fill-rule="evenodd" clip-rule="evenodd" d="M14.4 14.4V24H9.6V14.4H-12V9.6H9.6V0H14.4V9.6H36V14.4H14.4Z" fill="#C8102E"/>
</g>
<defs>
<clipPath id="clip0">
<path d="M0 12C0 5.37258 5.37258 0 12 0C18.6274 0 24 5.37258 24 12C24 18.6274 18.6274 24 12 24C5.37258 24 0 18.6274 0 12Z" fill="white"/>
</clipPath>
</defs>
</svg>
