<svg width="24" height="24" viewBox="0 0 24 24" fill="none" xmlns="http://www.w3.org/2000/svg">
<path d="M0 12C0 5.37258 5.37258 0 12 0C18.6274 0 24 5.37258 24 12C24 18.6274 18.6274 24 12 24C5.37258 24 0 18.6274 0 12Z" fill="white"/>
<path d="M24 0H19V24H24V0Z" fill="#CC092F"/>
<path d="M19 0H5V24H19V0Z" fill="#FFD200"/>
<path d="M5 0H0V24H5V0Z" fill="#0046AE"/>
<path d="M11.8995 8.10672L10.716 8.3734C10.6621 8.35713 10.409 8.27847 10.2313 8.17956C9.91863 8.00537 9.7565 7.83207 9.38492 7.81505V7.53244C9.38492 7.38145 9.43956 7.24542 9.43956 7.10105C9.28292 7.05905 8.84815 6.52745 8.44708 6.29151C7.85695 6.67375 7.40002 7.30124 7.40002 7.5898C7.40002 7.5898 7.41775 13.7901 7.40002 15.9501C7.40002 16.0745 7.32495 16.2504 7.32495 16.2504C7.54039 16.1593 7.9353 15.6189 8.01844 15.4136V15.5119C8.3438 15.3635 8.58204 14.9736 8.68874 14.772C8.69063 14.8011 8.69559 14.8743 8.69559 14.8743C8.98626 14.6195 9.35628 13.1133 9.35628 13.1133L9.97292 13.7193C9.97292 13.7193 9.74991 14.172 9.66303 14.2531C9.66303 14.2531 9.72127 14.2604 9.78724 14.2599C9.74666 14.3182 9.43666 14.7645 9.33948 14.9329C9.24855 15.0904 9.18439 15.0203 9.0446 15.0203C8.92868 15.0203 8.66594 15.2049 8.62279 15.2797C8.57743 15.3582 8.54364 15.4536 8.54364 15.5322C8.54364 15.6186 8.63511 15.737 8.63511 15.737C8.64495 15.6956 8.66239 15.681 8.66239 15.681C8.66239 15.681 8.90274 15.9804 8.93815 16.0196C8.96572 16.05 9.08868 16.0699 9.13202 16.0305C9.24044 15.9319 9.3454 15.863 9.44191 15.7206C9.49159 15.6473 9.49538 15.5632 9.55247 15.4844C9.74346 15.2209 10.1235 14.7164 10.2105 14.6012C10.2163 14.6333 10.2213 14.66 10.2268 14.6927C10.3253 14.4938 10.7988 14.1138 10.7988 14.1138L11.2942 14.3418C11.2942 14.3418 10.3692 16.4681 9.5482 16.795C9.5482 16.795 9.9054 16.9468 10.3441 17.1745C10.4081 17.2078 10.474 17.2435 10.5407 17.2797C10.5959 17.2132 10.654 17.1393 10.7113 17.0626C10.9736 16.7117 11.2301 16.3049 11.2301 16.3049C11.248 16.4106 11.1095 16.7368 10.8752 17.1391C10.8291 17.2181 10.781 17.3008 10.7277 17.3848C10.7872 17.4187 10.8462 17.453 10.9052 17.4886C11.3397 17.75 11.7478 18.0506 11.899 18.3268L12.0056 18.0599L11.899 17.7929V8.46076L11.9523 8.32743L11.8995 8.10672Z" fill="#B07F55"/>
<path d="M13.0832 8.37303C12.9622 8.28714 12.8629 8.19005 12.7924 8.07677C12.6225 7.80415 12.5508 7.46949 12.5508 7.12938C12.5508 6.98562 12.7118 6.82378 12.7118 6.70751C12.7118 6.53178 12.6955 6.42634 12.6955 6.42634C12.7526 6.43413 12.8524 6.53554 12.8524 6.53554C12.8524 6.53554 12.849 6.24386 12.7568 6.1929C12.7568 6.1929 12.7941 6.15455 12.9289 6.15058C12.891 6.05469 12.7036 5.93762 12.7036 5.93762C12.713 5.92085 12.7303 5.90634 12.7528 5.89394C12.7998 5.86791 12.866 5.85074 12.9166 5.84069C12.8626 5.82951 12.8005 5.81239 12.7323 5.79015C12.5765 5.73941 12.3931 5.6649 12.2217 5.58269C11.9089 5.43261 11.6706 5.42297 11.5392 5.42297C11.4438 5.42297 11.3034 5.42559 11.2211 5.48034C11.1458 5.53034 11.1519 5.59538 11.1255 5.61821C11.0634 5.67197 10.957 5.67007 10.9057 5.67007C10.574 5.67007 10.5617 6.02503 10.5617 6.02503C10.5617 6.02503 10.6465 5.89669 10.7965 5.89669C11.0459 5.89669 11.2347 6.03253 11.2347 6.0837C11.2347 6.10442 11.2074 6.10826 11.2074 6.10826C11.0446 6.10826 10.7987 6.0145 10.6682 6.00997V6.07413C10.9596 6.17554 11.2552 6.31911 11.2552 6.95191C11.2552 7.35039 11.2075 7.75698 11.0081 8.07679C10.9375 8.19005 10.837 8.28729 10.716 8.3734L11.8996 8.58638L13.0832 8.37303Z" fill="#B07F55"/>
<path d="M11.8983 8.10673L13.0819 8.37341C13.1357 8.35714 13.3889 8.27847 13.5665 8.17957C13.8792 8.00538 14.0414 7.83207 14.4129 7.81506V7.53245C14.4129 7.38146 14.3583 7.24543 14.3583 7.10106C14.5149 7.05906 14.9497 6.52746 15.3508 6.29151C15.9409 6.67375 16.3978 7.30125 16.3978 7.58981C16.3978 7.58981 16.3801 13.7901 16.3978 15.9501C16.3978 16.0746 16.4729 16.2504 16.4729 16.2504C16.2575 16.1593 15.8626 15.619 15.7794 15.4136V15.5119C15.454 15.3635 15.2158 14.9736 15.1091 14.772C15.1072 14.8011 15.1023 14.8743 15.1023 14.8743C14.8116 14.6195 14.4416 13.1133 14.4416 13.1133L13.8249 13.7193C13.8249 13.7193 14.0479 14.172 14.1348 14.2531C14.1348 14.2531 14.0766 14.2604 14.0106 14.2599C14.0512 14.3182 14.3612 14.7646 14.4584 14.9329C14.5493 15.0904 14.6135 15.0203 14.7532 15.0203C14.8692 15.0203 15.1319 15.205 15.1751 15.2797C15.2204 15.3582 15.2542 15.4536 15.2542 15.5322C15.2542 15.6186 15.1627 15.737 15.1627 15.737C15.1529 15.6956 15.1355 15.681 15.1355 15.681C15.1355 15.681 14.8951 15.9804 14.8597 16.0196C14.8321 16.05 14.7092 16.0699 14.6658 16.0305C14.5574 15.9319 14.4524 15.863 14.3559 15.7206C14.3063 15.6473 14.3025 15.5632 14.2454 15.4844C14.0544 15.221 13.6743 14.7164 13.5874 14.6012C13.5816 14.6333 13.5766 14.66 13.5711 14.6927C13.4726 14.4938 12.999 14.1138 12.999 14.1138L12.5036 14.3418C12.5036 14.3418 13.4286 16.4681 14.2496 16.795C14.2496 16.795 13.8924 16.9468 13.4538 17.1746C13.3898 17.2078 13.3239 17.2435 13.2572 17.2797C13.202 17.2132 13.1438 17.1393 13.0866 17.0626C12.8243 16.7117 12.5678 16.305 12.5678 16.305C12.5499 16.4106 12.6884 16.7368 12.9227 17.1391C12.9688 17.2182 13.0168 17.3008 13.0701 17.3848C13.0107 17.4187 12.9517 17.453 12.8927 17.4886C12.4581 17.75 12.0502 18.0506 11.899 18.3268L11.7922 18.0599L11.899 17.7929V8.46076L11.8455 8.32743L11.8983 8.10673Z" fill="#B07F55"/>
<path d="M14.4974 8.89559C14.4974 8.71889 14.7295 8.54473 14.7295 8.54473H9.06958C9.06958 8.54473 9.30166 8.71887 9.30166 8.89559V13.1085C9.30166 13.2195 9.33595 13.2918 9.39041 13.3624C9.44483 13.4385 9.56081 13.5436 9.68115 13.6218C10.0529 13.8632 10.6744 14.1178 11.1446 14.3317C11.5365 14.51 11.6958 14.5819 11.8995 14.8341C12.1032 14.5819 12.264 14.51 12.6558 14.3317C13.126 14.1178 13.7475 13.8632 14.1193 13.6218C14.2397 13.5436 14.3556 13.4385 14.41 13.3624C14.4645 13.2918 14.4974 13.2195 14.4974 13.1085V8.89559Z" fill="#F5D402"/>
<path d="M9.43547 11.2792V8.89556C9.43547 8.76065 9.36719 8.67852 9.36719 8.67852H14.4319C14.4319 8.67852 14.3637 8.76068 14.3637 8.89556L14.3651 11.2792L11.9003 12.0258L9.43547 11.2792Z" fill="#D10429"/>
<path d="M14.3652 11.2792L12.8389 11.2505H10.9618L9.43555 11.2792V13.1085C9.43555 13.2005 9.53096 13.4159 10.0813 13.69C10.9909 14.1433 11.6901 14.3549 11.8997 14.6129C12.1092 14.3549 12.8084 14.1433 13.718 13.69C14.2683 13.4159 14.3637 13.2005 14.3637 13.1085L14.3652 11.2792Z" fill="#0B45BB"/>
</svg>
