<svg width="24" height="24" viewBox="0 0 24 24" fill="none" xmlns="http://www.w3.org/2000/svg">
<g clip-path="url(#clip0)">
<path d="M0 12C0 5.37258 5.37258 0 12 0C18.6274 0 24 5.37258 24 12C24 18.6274 18.6274 24 12 24C5.37258 24 0 18.6274 0 12Z" fill="white"/>
<path d="M34 -3H-10V27H34V-3Z" fill="#33691E"/>
<path d="M34 -3H-10V18H34V-3Z" fill="#ECEFF1"/>
<path d="M34 -3H-10V6H34V-3Z" fill="#D50000"/>
<path d="M14.511 13.838C14.284 14.052 13.993 14.183 13.683 14.211C12.917 14.28 12.241 13.713 12.172 12.944V11.84C12.18 11.586 12.391 11.387 12.644 11.395C12.802 11.4 12.946 11.486 13.026 11.623C13.214 11.054 12.907 10.44 12.34 10.252C11.773 10.064 11.162 10.372 10.974 10.94C10.901 11.162 10.901 11.401 10.974 11.623C11.101 11.404 11.381 11.329 11.6 11.457C11.737 11.537 11.823 11.682 11.828 11.84V12.944C11.759 13.713 11.083 14.28 10.317 14.211C10.007 14.183 9.71603 14.052 9.48903 13.838C9.19303 14.583 8.35202 14.947 7.60902 14.65C7.50002 14.606 7.39603 14.549 7.30103 14.481C7.43503 15.82 9.43502 15.547 9.58402 14.245C10.212 15.352 11.594 15.035 11.998 13.679H12.002C12.407 15.035 13.788 15.352 14.416 14.245C14.565 15.547 16.565 15.821 16.699 14.481C16.603 14.55 16.5 14.607 16.391 14.65C15.649 14.946 14.807 14.583 14.511 13.838ZM11.22 11.142C11.268 10.791 11.543 10.515 11.893 10.466C12.324 10.407 12.721 10.709 12.781 11.142C12.473 11.079 12.159 11.22 12.001 11.493C11.842 11.22 11.528 11.079 11.22 11.142Z" fill="#FFC107"/>
<path d="M10.492 15.322C10.492 15.322 10.351 15.237 10.057 15.275C10.015 15.084 9.84797 14.92 9.72897 14.838C9.61497 14.964 9.53397 15.197 9.57397 15.365C9.36397 15.403 9.16797 15.542 9.16797 15.542C9.65497 16.031 10.213 15.927 10.492 15.322Z" fill="#FFC107"/>
<path d="M12.6751 15.253C12.6751 15.253 12.5501 15.146 12.2531 15.135C12.2421 14.94 12.1041 14.751 12.0001 14.651C11.8671 14.757 11.7501 14.973 11.7611 15.145C11.5481 15.149 11.3311 15.254 11.3311 15.254C11.7351 15.816 12.3021 15.805 12.6751 15.253Z" fill="#FFC107"/>
<path d="M14.841 15.543C14.841 15.543 14.735 15.417 14.444 15.358C14.465 15.164 14.36 14.955 14.273 14.839C14.125 14.921 13.974 15.116 13.957 15.288C13.746 15.257 13.516 15.325 13.516 15.325C13.822 15.944 14.383 16.025 14.841 15.543Z" fill="#FFC107"/>
<path d="M8.349 16.342L8.544 17C10.805 16.324 13.195 16.324 15.456 17L15.651 16.342C13.263 15.628 10.737 15.628 8.349 16.342Z" fill="#FFC107"/>
<path d="M11.667 8.028L11.462 8.663L12 8.27L12.538 8.663L12.333 8.028L12.871 7.635H12.206L12 7L11.794 7.635H11.129L11.667 8.028Z" fill="#FFC107"/>
<path d="M9.10297 8.717L8.89697 9.353L9.43597 8.96L9.97397 9.353L9.76797 8.717L10.307 8.325H9.64097L9.43597 7.69L9.22997 8.325H8.56396L9.10297 8.717Z" fill="#FFC107"/>
<path d="M7.22501 10.602L7.02001 11.237L7.55801 10.844L8.09701 11.237L7.89101 10.602L8.42901 10.209H7.76401L7.55801 9.574L7.35301 10.209H6.68701L7.22501 10.602Z" fill="#FFC107"/>
<path d="M6.871 13.419L7.409 13.811L7.204 13.176L7.742 12.783H7.077L6.871 12.148L6.665 12.783H6L6.538 13.176L6.333 13.811L6.871 13.419Z" fill="#FFC107"/>
<path d="M14.232 8.717L14.026 9.353L14.565 8.96L15.103 9.353L14.897 8.717L15.436 8.325H14.77L14.564 7.69L14.359 8.325H13.693L14.232 8.717Z" fill="#FFC107"/>
<path d="M16.109 10.602L15.903 11.237L16.442 10.844L16.98 11.237L16.775 10.602L17.313 10.209H16.647L16.442 9.574L16.236 10.209H15.571L16.109 10.602Z" fill="#FFC107"/>
<path d="M17.4621 13.176L18.0001 12.783H17.3351L17.1291 12.148L16.9231 12.783H16.2581L16.7961 13.176L16.5911 13.811L17.1291 13.419L17.6671 13.811L17.4621 13.176Z" fill="#FFC107"/>
</g>
<defs>
<clipPath id="clip0">
<path d="M0 12C0 5.37258 5.37258 0 12 0C18.6274 0 24 5.37258 24 12C24 18.6274 18.6274 24 12 24C5.37258 24 0 18.6274 0 12Z" fill="white"/>
</clipPath>
</defs>
</svg>
