<svg width="20" height="20" viewBox="0 0 20 20" fill="none" xmlns="http://www.w3.org/2000/svg">
<rect width="20" height="20" rx="10" fill="#1B55E9"/>
<path d="M5.48809 9.42991C5.1736 9.16034 4.70012 9.19676 4.43056 9.51126C4.16099 9.82575 4.19741 10.2992 4.51191 10.5688L5.48809 9.42991ZM8.88889 13.3327L8.4008 13.9021C8.70791 14.1654 9.16843 14.1376 9.44175 13.8395L8.88889 13.3327ZM15.5529 7.17281C15.8328 6.86747 15.8121 6.39304 15.5068 6.11315C15.2015 5.83326 14.727 5.85388 14.4471 6.15922L15.5529 7.17281ZM4.51191 10.5688L8.4008 13.9021L9.37698 12.7632L5.48809 9.42991L4.51191 10.5688ZM9.44175 13.8395L15.5529 7.17281L14.4471 6.15922L8.33602 12.8259L9.44175 13.8395Z" fill="white"/>
</svg>
