<svg width="16" height="16" viewBox="0 0 16 16" fill="none" xmlns="http://www.w3.org/2000/svg">
<path d="M0 8C0 3.58172 3.58172 0 8 0C12.4183 0 16 3.58172 16 8C16 12.4183 12.4183 16 8 16H0V8Z" fill="#1B55E9"/>
<path d="M9.18079 5.60409C9.0678 5.60409 8.88889 5.53257 8.74765 5.4304C8.32392 5.14432 7.98493 5.04215 7.48588 5.04215C6.63842 5.04215 6.18644 5.54279 6.18644 6.2682C6.18644 6.55428 6.25235 6.81992 6.45009 6.99362C6.629 7.16731 6.84557 7.27969 7.23164 7.35121L8.08851 7.49425C8.73823 7.60664 9.10546 7.77012 9.4162 8.07663C9.80226 8.46488 10 9.00639 10 9.69093C10 11.1418 8.93597 12 7.42938 12C6.57251 12 6.03578 11.8161 5.50847 11.4687C5.14124 11.2235 5 11.06 5 10.7739C5 10.6411 5.0565 10.4879 5.15066 10.3857C5.24482 10.2835 5.3484 10.2427 5.47081 10.2427C5.61205 10.2427 5.73446 10.2937 5.9322 10.4368C6.41243 10.8046 6.83616 10.9374 7.45763 10.9374C8.39925 10.9374 8.93597 10.4981 8.93597 9.72158C8.93597 9.36398 8.85122 9.08812 8.65348 8.90421C8.47458 8.73052 8.22976 8.62835 7.87194 8.57727L7.02448 8.44444C6.45009 8.35249 6.00753 8.14815 5.67797 7.81098C5.32015 7.45339 5.15066 6.94253 5.15066 6.29885C5.15066 4.92976 6.05461 4 7.54237 4C8.22034 4 8.63465 4.12261 9.22787 4.45977C9.48211 4.60281 9.66102 4.80715 9.66102 5.06258C9.66102 5.18519 9.62335 5.31801 9.53861 5.4304C9.42561 5.53257 9.32203 5.60409 9.18079 5.60409Z" fill="white"/>
</svg>
