<svg width="14px" height="14px" viewBox="0 0 14 14" version="1.1" xmlns="http://www.w3.org/2000/svg"
     xmlns:xlink="http://www.w3.org/1999/xlink">
    <g id="Page-1" stroke="none" stroke-width="1" fill="none" fill-rule="evenodd">
        <g id="Group" fill="#7288A3" fill-rule="nonzero">
            <path d="M4.93462459,13.2222222 L4.29373112,13.7172 C4.55294856,13.9173481 4.9427885,13.9772889 5.28146975,13.8689185 C5.62015101,13.7605481 5.84097929,13.5053333 5.84097929,13.2222222 L4.93462459,13.2222222 Z M0.906381481,10.1111111 L0.906381481,9.41111111 C0.539795245,9.41111111 0.209306095,9.58166222 0.0690185007,9.84323407 C-0.0712677512,10.1048059 0.00627592876,10.405837 0.26549203,10.6060889 L0.906381481,10.1111111 Z M5.84097929,0.777777778 C5.84097929,0.391178667 5.43518751,0.0777777778 4.93462459,0.0777777778 C4.43406168,0.0777777778 4.02826989,0.391178667 4.02826989,0.777777778 L5.84097929,0.777777778 Z M3.59187689,10.1111111 L4.49823159,10.1111111 L4.49823159,9.41111111 L3.59187689,9.41111111 L3.59187689,10.1111111 Z M2.68552219,11.6666667 C2.68552219,12.0532741 3.09131397,12.3666667 3.59187689,12.3666667 C4.09243981,12.3666667 4.49823159,12.0532741 4.49823159,11.6666667 L2.68552219,11.6666667 Z M5.57551807,12.7272444 L1.54727496,9.61613333 L0.26549203,10.6060889 L4.29373112,13.7172 L5.57551807,12.7272444 Z M5.84097929,13.2222222 L5.84097929,0.777777778 L4.02826989,0.777777778 L4.02826989,13.2222222 L5.84097929,13.2222222 Z M0.906381481,10.8111111 L3.59187689,10.8111111 L3.59187689,9.41111111 L0.906381481,9.41111111 L0.906381481,10.8111111 Z M2.68552219,10.1111111 L2.68552219,11.6666667 L4.49823159,11.6666667 L4.49823159,10.1111111 L2.68552219,10.1111111 Z"
                  id="Shape" transform="translate(2.9205, 7) scale(1, -1) translate(-2.9205, -7)"/>
            <path d="M12.9911108,8.2962963 C13.5472951,8.2962963 13.9981716,8.64451927 13.9981716,9.07407407 C13.9981716,9.50362888 13.5472951,9.85185185 12.9911108,9.85185185 L10.9756465,9.85185185 L13.7967594,12.7555556 C14.2653884,13.2381337 13.8733423,13.9146747 13.1337349,13.9925979 L12.9911108,14 L8.96286771,14 C8.4066834,14 7.95580693,13.651777 7.95580693,13.2222222 C7.95580693,12.7926674 8.4066834,12.4444444 8.96286771,12.4444444 L10.9769893,12.4444444 L8.15721908,9.54074074 C7.68859016,9.05816257 8.08063622,8.38162159 8.82024361,8.30369835 L8.96286771,8.2962963 L12.9911108,8.2962963 Z"
                  id="Path"/>
            <path d="M10.0124,0.554284978 C10.2994736,-0.184761659 11.654505,-0.184761659 11.9415785,0.554284978 L13.9557001,5.73947016 C14.1155185,6.15090905 13.8132156,6.5845073 13.2804876,6.70793896 C12.7477597,6.83137063 12.1863399,6.59789465 12.0265215,6.18645576 L10.9769893,3.48444444 L9.92745699,6.18645576 C9.78095681,6.56360807 9.29699993,6.79122211 8.80702164,6.73146486 L8.67349092,6.70793896 C8.14076297,6.5845073 7.83846004,6.15090905 7.99827842,5.73947016 L10.0124,0.554284978 Z"
                  id="Path"/>
            <path d="M12.319737,4.92592593 C12.6905265,4.92592593 12.9911108,5.15807457 12.9911108,5.44444444 C12.9911108,5.73081431 12.6905265,5.96296296 12.319737,5.96296296 L9.63424156,5.96296296 C9.26345202,5.96296296 8.96286771,5.73081431 8.96286771,5.44444444 C8.96286771,5.15807457 9.26345202,4.92592593 9.63424156,4.92592593 L12.319737,4.92592593 Z"
                  id="Path"/>
        </g>
    </g>
</svg>
