<svg width="14px" height="14px" viewBox="0 0 14 14" version="1.1" xmlns="http://www.w3.org/2000/svg"
     xmlns:xlink="http://www.w3.org/1999/xlink">
    <g id="Page-1" stroke="none" stroke-width="1" fill="none" fill-rule="evenodd">
        <g id="Group" fill="#7288A3" fill-rule="nonzero">
            <path d="M3.85394774,13.2178771 L3.35340916,13.7156201 C3.5558583,13.9168864 3.86032376,13.977162 4.12483423,13.8681862 C4.3893447,13.7592104 4.56181185,13.5025698 4.56181185,13.2178771 L3.85394774,13.2178771 Z M0.707885027,10.0893855 L0.707885027,9.38547486 C0.421580736,9.38547486 0.163468312,9.55697877 0.0539035321,9.82001192 C-0.0556601994,10.0830451 0.00490150791,10.3857579 0.207349595,10.5871285 L0.707885027,10.0893855 Z M4.56181185,0.703910615 C4.56181185,0.315151732 4.24488798,-2.41473508e-14 3.85394774,-2.41473508e-14 C3.4630075,-2.41473508e-14 3.14608363,0.315151732 3.14608363,0.703910615 L4.56181185,0.703910615 Z M2.80526017,10.0893855 L3.51312428,10.0893855 L3.51312428,9.38547486 L2.80526017,9.38547486 L2.80526017,10.0893855 Z M2.09739606,11.6536313 C2.09739606,12.0423985 2.41431993,12.3575419 2.80526017,12.3575419 C3.19620041,12.3575419 3.51312428,12.0423985 3.51312428,11.6536313 L2.09739606,11.6536313 Z M4.35448632,12.7201341 L1.2084236,9.59164246 L0.207349595,10.5871285 L3.35340916,13.7156201 L4.35448632,12.7201341 Z M4.56181185,13.2178771 L4.56181185,0.703910615 L3.14608363,0.703910615 L3.14608363,13.2178771 L4.56181185,13.2178771 Z M0.707885027,10.7932961 L2.80526017,10.7932961 L2.80526017,9.38547486 L0.707885027,9.38547486 L0.707885027,10.7932961 Z M2.09739606,10.0893855 L2.09739606,11.6536313 L3.51312428,11.6536313 L3.51312428,10.0893855 L2.09739606,10.0893855 Z"
                  id="Shape"/>
            <path d="M13.2921359,0 C13.6830784,0 14,0.315151517 14,0.703910615 C14,1.09266971 13.6830784,1.40782123 13.2921359,1.40782123 L7.00001046,1.40782123 C6.6090679,1.40782123 6.29214635,1.09266971 6.29214635,0.703910615 C6.29214635,0.315151517 6.6090679,0 7.00001046,0 L13.2921359,0 Z"
                  id="Path"/>
            <path d="M11.1947607,4.17132216 C11.5857033,4.17132216 11.9026249,4.48647368 11.9026249,4.87523277 C11.9026249,5.26399187 11.5857033,5.57914339 11.1947607,5.57914339 L7.00001046,5.57914339 C6.6090679,5.57914339 6.29214635,5.26399187 6.29214635,4.87523277 C6.29214635,4.48647368 6.6090679,4.17132216 7.00001046,4.17132216 L11.1947607,4.17132216 Z"
                  id="Path"/>
            <path d="M10.1460732,8.34264432 C10.5370157,8.34264432 10.8539373,8.65779584 10.8539373,9.04655493 C10.8539373,9.43531403 10.5370157,9.75046555 10.1460732,9.75046555 L7.00001046,9.75046555 C6.6090679,9.75046555 6.29214635,9.43531403 6.29214635,9.04655493 C6.29214635,8.65779584 6.6090679,8.34264432 7.00001046,8.34264432 L10.1460732,8.34264432 Z"
                  id="Path"/>
            <path d="M8.04869803,12.4357542 C8.48307864,12.4357542 8.83521371,12.7859225 8.83521371,13.2178771 C8.83521371,13.6498316 8.48307864,14 8.04869803,14 L7.00001046,14 C6.56562984,14 6.21349478,13.6498316 6.21349478,13.2178771 C6.21349478,12.7859225 6.56562984,12.4357542 7.00001046,12.4357542 L8.04869803,12.4357542 Z"
                  id="Path"/>
        </g>
    </g>
</svg>
