<svg width="14" height="11" viewBox="0 0 14 11" fill="none" xmlns="http://www.w3.org/2000/svg">
<path d="M14 1.30223C13.4794 1.52308 12.9246 1.66946 12.3462 1.74054C12.9412 1.397 13.3954 0.857154 13.6089 0.206462C13.0541 0.526308 12.4416 0.752231 11.7889 0.878308C11.2621 0.335923 10.5114 0 9.69238 0C8.10337 0 6.82412 1.24723 6.82412 2.77623C6.82412 2.99623 6.84338 3.20777 6.89062 3.40915C4.5045 3.29662 2.39313 2.19069 0.97475 0.506C0.727125 0.921462 0.581875 1.397 0.581875 1.90892C0.581875 2.87015 1.09375 3.72223 1.85675 4.21554C1.39562 4.20708 0.94325 4.07762 0.56 3.87369C0.56 3.88215 0.56 3.89315 0.56 3.90415C0.56 5.25292 1.55487 6.37323 2.8595 6.63131C2.62587 6.69308 2.37125 6.72269 2.107 6.72269C1.92325 6.72269 1.73775 6.71254 1.56362 6.67531C1.9355 7.77446 2.99075 8.58254 4.2455 8.60877C3.269 9.34746 2.02912 9.79254 0.686875 9.79254C0.4515 9.79254 0.22575 9.78238 0 9.75446C1.27137 10.5473 2.77813 11 4.403 11C9.6845 11 12.572 6.76923 12.572 3.102C12.572 2.97931 12.5676 2.86085 12.5615 2.74323C13.1311 2.35231 13.6097 1.86408 14 1.30223Z" fill="#55ACEE"/>
</svg>
