<svg width="20" height="20" viewBox="0 0 20 20" fill="none" xmlns="http://www.w3.org/2000/svg">
  <g clip-path="url(#clip0_10408_4660)">
  <path fill-rule="evenodd" clip-rule="evenodd" d="M10 0C15.5232 0 20 4.47676 20 10C20 15.5232 15.5232 20 10 20C4.47676 20 0 15.5232 0 10C0 4.47676 4.47676 0 10 0Z" fill="#F0B90B"/>
  <path d="M5.49599 9.99999L5.50321 12.6442L7.75 13.9663V15.5144L4.1883 13.4255V9.22675L5.49599 9.99999ZM5.49599 7.35576V8.89662L4.1875 8.12258V6.58172L5.49599 5.80768L6.8109 6.58172L5.49599 7.35576ZM8.6883 6.58172L9.99679 5.80768L11.3117 6.58172L9.99679 7.35576L8.6883 6.58172Z" fill="white"/>
  <path d="M6.44141 12.0961V10.5481L7.7499 11.3221V12.863L6.44141 12.0961ZM8.6882 14.5208L9.99669 15.2949L11.3116 14.5208V16.0617L9.99669 16.8357L8.6882 16.0617V14.5208ZM13.1882 6.58172L14.4967 5.80768L15.8116 6.58172V8.12258L14.4967 8.89662V7.35576L13.1882 6.58172ZM14.4967 12.6442L14.5039 9.99999L15.8124 9.22595V13.4247L12.2507 15.5136V13.9655L14.4967 12.6442Z" fill="white"/>
  <path d="M13.5585 12.0962L12.25 12.863V11.3221L13.5585 10.5481V12.0962Z" fill="white"/>
  <path d="M13.5584 7.90383L13.5656 9.45191L11.3124 10.774V13.4247L10.0039 14.1915L8.69541 13.4247V10.774L6.44221 9.45191V7.90383L7.75631 7.12979L9.99589 8.45832L12.2491 7.12979L13.564 7.90383H13.5584ZM6.44141 5.2604L9.99669 3.16425L13.5584 5.2604L12.2499 6.03444L9.99669 4.70591L7.7499 6.03444L6.44141 5.2604Z" fill="white"/>
  </g>
  <defs>
  <clipPath id="clip0_10408_4660">
  <rect width="20" height="20" fill="white"/>
  </clipPath>
  </defs>
  </svg>
