<svg width="24" height="24" viewBox="0 0 24 24" fill="none" xmlns="http://www.w3.org/2000/svg">
<path d="M0 12C0 5.37258 5.37258 0 12 0C18.6274 0 24 5.37258 24 12C24 18.6274 18.6274 24 12 24C5.37258 24 0 18.6274 0 12Z" fill="#F7931A"/>
<path d="M17.291 10.2904C17.5298 8.69362 16.3141 7.83525 14.6517 7.26262L15.1909 5.09962L13.8743 4.7715L13.3493 6.8775C13.0032 6.79125 12.6477 6.70987 12.2944 6.62925L12.8232 4.50937L11.5073 4.18125L10.9677 6.3435C10.6812 6.27825 10.3999 6.21375 10.1269 6.14587L10.1284 6.13912L8.3127 5.68575L7.96245 7.092C7.96245 7.092 8.93932 7.31587 8.9187 7.32975C9.45195 7.46287 9.54832 7.81575 9.5322 8.0955L8.91795 10.5596C8.9547 10.569 9.00232 10.5825 9.05482 10.6035C9.01095 10.5926 8.96407 10.5806 8.9157 10.569L8.0547 14.0209C7.98945 14.1829 7.82407 14.4259 7.45132 14.3336C7.46445 14.3527 6.49432 14.0947 6.49432 14.0947L5.8407 15.6019L7.55407 16.029C7.87282 16.1089 8.1852 16.1925 8.4927 16.2712L7.94782 18.459L9.26295 18.7871L9.80257 16.6226C10.1618 16.7201 10.5106 16.8101 10.8518 16.8949L10.3141 19.0492L11.6307 19.3774L12.1756 17.1937C14.4207 17.6186 16.109 17.4472 16.8196 15.4166C17.3922 13.7816 16.7911 12.8385 15.6098 12.2235C16.4701 12.0251 17.1181 11.4592 17.291 10.2904ZM14.2827 14.5087C13.8758 16.1437 11.1229 15.2599 10.2304 15.0382L10.9534 12.1399C11.8459 12.3626 14.708 12.8036 14.2827 14.5087ZM14.6899 10.2667C14.3187 11.754 12.0274 10.9984 11.2842 10.8131L11.9397 8.18437C12.683 8.36962 15.0766 8.71537 14.6899 10.2667Z" fill="white"/>
</svg>
