<svg width="24" height="24" viewBox="0 0 24 24" fill="none" xmlns="http://www.w3.org/2000/svg">
<g clip-path="url(#clip0)">
<path d="M0 12C0 5.37258 5.37258 0 12 0C18.6274 0 24 5.37258 24 12C24 18.6274 18.6274 24 12 24C5.37258 24 0 18.6274 0 12Z" fill="white"/>
<path d="M35.2 16H6.40002V24H35.2V16Z" fill="#7CB342"/>
<path d="M6.4 0H0V24H6.4V0Z" fill="#ECEFF1"/>
<path d="M1.6 0H0V1.6H1.6V0Z" fill="#FF3D00"/>
<path d="M3.19998 1.6H1.59998V3.2H3.19998V1.6Z" fill="#FF3D00"/>
<path d="M4.79995 0H3.19995V1.6H4.79995V0Z" fill="#FF3D00"/>
<path d="M6.40005 1.6H4.80005V3.2H6.40005V1.6Z" fill="#FF3D00"/>
<path d="M1.6 3.2H0V4.8H1.6V3.2Z" fill="#FF3D00"/>
<path d="M3.19998 4.8H1.59998V6.4H3.19998V4.8Z" fill="#FF3D00"/>
<path d="M4.79995 3.2H3.19995V4.8H4.79995V3.2Z" fill="#FF3D00"/>
<path d="M6.40005 4.8H4.80005V6.4H6.40005V4.8Z" fill="#FF3D00"/>
<path d="M1.6 6.4H0V8H1.6V6.4Z" fill="#FF3D00"/>
<path d="M3.19998 8H1.59998V9.6H3.19998V8Z" fill="#FF3D00"/>
<path d="M4.79995 6.4H3.19995V8H4.79995V6.4Z" fill="#FF3D00"/>
<path d="M6.40005 8H4.80005V9.6H6.40005V8Z" fill="#FF3D00"/>
<path d="M1.6 9.6H0V11.2H1.6V9.6Z" fill="#FF3D00"/>
<path d="M3.19998 11.2H1.59998V12.8H3.19998V11.2Z" fill="#FF3D00"/>
<path d="M4.79995 9.6H3.19995V11.2H4.79995V9.6Z" fill="#FF3D00"/>
<path d="M6.40005 11.2H4.80005V12.8H6.40005V11.2Z" fill="#FF3D00"/>
<path d="M1.6 12.8H0V14.4H1.6V12.8Z" fill="#FF3D00"/>
<path d="M3.19998 14.4H1.59998V16H3.19998V14.4Z" fill="#FF3D00"/>
<path d="M4.79995 12.8H3.19995V14.4H4.79995V12.8Z" fill="#FF3D00"/>
<path d="M6.40005 14.4H4.80005V16H6.40005V14.4Z" fill="#FF3D00"/>
<path d="M1.6 16H0V17.6H1.6V16Z" fill="#FF3D00"/>
<path d="M3.19998 17.6H1.59998V19.2H3.19998V17.6Z" fill="#FF3D00"/>
<path d="M4.79995 16H3.19995V17.6H4.79995V16Z" fill="#FF3D00"/>
<path d="M6.40005 17.6H4.80005V19.2H6.40005V17.6Z" fill="#FF3D00"/>
<path d="M1.6 19.2H0V20.8H1.6V19.2Z" fill="#FF3D00"/>
<path d="M3.19998 20.8H1.59998V22.4H3.19998V20.8Z" fill="#FF3D00"/>
<path d="M4.79995 19.2H3.19995V20.8H4.79995V19.2Z" fill="#FF3D00"/>
<path d="M6.40005 20.8H4.80005V22.4H6.40005V20.8Z" fill="#FF3D00"/>
<path d="M1.6 22.4H0V24H1.6V22.4Z" fill="#FF3D00"/>
<path d="M4.79995 22.4H3.19995V24H4.79995V22.4Z" fill="#FF3D00"/>
<path d="M35.2 0H6.40002V16H35.2V0Z" fill="#FF3D00"/>
</g>
<defs>
<clipPath id="clip0">
<path d="M0 12C0 5.37258 5.37258 0 12 0C18.6274 0 24 5.37258 24 12C24 18.6274 18.6274 24 12 24C5.37258 24 0 18.6274 0 12Z" fill="white"/>
</clipPath>
</defs>
</svg>
