<svg id="SvgjsSvg1019" width="256" height="256" xmlns="http://www.w3.org/2000/svg" version="1.1"
     xmlns:xlink="http://www.w3.org/1999/xlink" xmlns:svgjs="http://svgjs.com/svgjs">
    <defs id="SvgjsDefs1020"/>
    <g id="SvgjsG1021">
        <svg xmlns="http://www.w3.org/2000/svg" viewBox="0 0 48 48" width="256" height="256">
            <path fill="#646464"
                  d="M24,9A15,15,0,1,0,39,24,15.017,15.017,0,0,0,24,9Zm6,10H23v3h5a1,1,0,0,1,0,2H23v3h3a1,1,0,0,1,0,2H23v3a1,1,0,0,1-2,0V29H18a1,1,0,0,1,0-2h3V18a1,1,0,0,1,1-1h8a1,1,0,0,1,0,2Z"
                  class="color646464 svgShape"/>
            <path fill="#646464"
                  d="M24,2A22,22,0,1,0,46,24,22.025,22.025,0,0,0,24,2Zm0,39A17,17,0,1,1,41,24,17.02,17.02,0,0,1,24,41Z"
                  class="color646464 svgShape"/>
        </svg>
    </g>
</svg>
