<svg width="24" height="24" viewBox="0 0 24 24" fill="none" xmlns="http://www.w3.org/2000/svg">
<path d="M0 12C0 5.37258 5.37258 0 12 0C18.6274 0 24 5.37258 24 12C24 18.6274 18.6274 24 12 24C5.37258 24 0 18.6274 0 12Z" fill="white"/>
<path d="M24 0H0V24H24V0Z" fill="#3F51B5"/>
<path d="M12 4L12.3647 4.744L13.1793 4.86267L12.59 5.44133L12.7293 6.25933L12 5.87333L11.2713 6.25933L11.4107 5.44133L10.8213 4.86267L11.636 4.744L12 4ZM8.49733 5.05467L8.862 5.79867L9.67667 5.918L9.08733 6.49667L9.22667 7.31467L8.498 6.92867L7.76933 7.31467L7.908 6.49667L7.31867 5.918L8.134 5.79867L8.49733 5.05467ZM6.00867 7.366L6.37333 8.11L7.18867 8.22867L6.59933 8.80733L6.738 9.62533L6.00933 9.23933L5.28067 9.62533L5.42 8.80733L4.83067 8.22867L5.64533 8.11L6.00867 7.366ZM15.5027 5.05467L15.138 5.79867L14.3233 5.918L14.9127 6.49667L14.7733 7.31467L15.502 6.92867L16.2307 7.31467L16.092 6.49667L16.6813 5.918L15.866 5.79867L15.5027 5.05467ZM8.49733 16.2967L8.862 17.0407L9.67667 17.16L9.08733 17.7387L9.22667 18.5567L8.498 18.1707L7.76933 18.5567L7.908 17.7387L7.31867 17.16L8.134 17.0407L8.49733 16.2967ZM15.5027 16.2967L15.138 17.0407L14.3233 17.16L14.9127 17.7387L14.7733 18.5567L15.502 18.1707L16.2307 18.5567L16.092 17.7387L16.6813 17.16L15.866 17.0407L15.5027 16.2967ZM17.9913 7.366L17.6267 8.11L16.8113 8.22867L17.4007 8.80733L17.262 9.62533L17.9907 9.23933L18.7193 9.62533L18.58 8.80733L19.1693 8.22867L18.3547 8.11L17.9913 7.366ZM6.00867 13.952L6.37333 14.696L7.18867 14.8153L6.59933 15.394L6.738 16.212L6.00933 15.826L5.28067 16.212L5.42 15.394L4.83067 14.8153L5.64533 14.696L6.00867 13.952ZM17.9913 13.952L17.6267 14.696L16.8113 14.8153L17.4007 15.394L17.262 16.212L17.9907 15.826L18.7193 16.212L18.58 15.394L19.1693 14.8153L18.3547 14.696L17.9913 13.952ZM18.8207 10.87L19.1853 11.614L20 11.7333L19.4107 12.312L19.55 13.13L18.8213 12.744L18.0927 13.13L18.232 12.312L17.6407 11.7333L18.456 11.614L18.8207 10.87ZM5.17933 10.87L5.544 11.614L6.35933 11.7333L5.76933 12.312L5.90867 13.13L5.18 12.744L4.45133 13.13L4.59067 12.312L4 11.7333L4.81467 11.614L5.17933 10.87ZM12 17.74L12.3647 18.484L13.1793 18.6033L12.59 19.182L12.7287 20L12 19.614L11.2713 20L11.4107 19.182L10.8213 18.6033L11.636 18.484L12 17.74Z" fill="#FFEB3B"/>
</svg>
