<svg width="20" height="20" viewBox="0 0 20 20" fill="none" xmlns="http://www.w3.org/2000/svg">
  <rect width="20" height="20" rx="10" fill="#F0D12D"/>
  <path d="M8.70965 5C8.68084 5 8.65527 5.01942 8.64616 5.04821L8.02152 7.02257C8.00707 7.06823 8.03933 7.11538 8.08501 7.11538H11.9148C11.9605 7.11538 11.9928 7.06823 11.9783 7.02257L11.3537 5.04821C11.3446 5.01942 11.319 5 11.2902 5H8.70965Z" fill="white"/>
  <path d="M6.30377 8.57386C6.31287 8.54506 6.33845 8.52564 6.36726 8.52564H8.9478C8.97661 8.52564 9.00218 8.54506 9.01129 8.57386L9.63593 10.5482C9.65037 10.5939 9.61812 10.641 9.57244 10.641H5.74262C5.69694 10.641 5.66468 10.5939 5.67913 10.5482L6.30377 8.57386Z" fill="white"/>
  <path d="M4.02487 12.0513C3.99606 12.0513 3.97048 12.0707 3.96138 12.0995L3.33674 14.0739C3.32229 14.1195 3.35455 14.1667 3.40023 14.1667H7.23005C7.27573 14.1667 7.30798 14.1195 7.29354 14.0739L6.6689 12.0995C6.65979 12.0707 6.63422 12.0513 6.60541 12.0513H4.02487Z" fill="white"/>
  <path d="M8.70965 12.0513C8.68084 12.0513 8.65527 12.0707 8.64616 12.0995L8.02152 14.0739C8.00707 14.1195 8.03933 14.1667 8.08501 14.1667H11.9148C11.9605 14.1667 11.9928 14.1195 11.9783 14.0739L11.3537 12.0995C11.3446 12.0707 11.319 12.0513 11.2902 12.0513H8.70965Z" fill="white"/>
  <path d="M13.3944 12.0513C13.3656 12.0513 13.34 12.0707 13.3309 12.0995L12.7063 14.0739C12.6919 14.1195 12.7241 14.1667 12.7698 14.1667H16.5996C16.6453 14.1667 16.6775 14.1195 16.6631 14.0739L16.0385 12.0995C16.0294 12.0707 16.0038 12.0513 15.975 12.0513H13.3944Z" fill="white"/>
  <path d="M10.9885 8.57386C10.9977 8.54506 11.0232 8.52564 11.052 8.52564H13.6326C13.6614 8.52564 13.687 8.54506 13.6961 8.57386L14.3207 10.5482C14.3352 10.5939 14.3029 10.641 14.2572 10.641H10.4274C10.3817 10.641 10.3495 10.5939 10.3639 10.5482L10.9885 8.57386Z" fill="white"/>
  </svg>
