<svg width="20" height="20" viewBox="0 0 20 20" fill="none" xmlns="http://www.w3.org/2000/svg">
  <g clip-path="url(#clip0_10408_4703)">
  <path d="M9.99995 18.9177C14.925 18.9177 18.9176 14.9251 18.9176 10C18.9176 5.07492 14.925 1.08234 9.99995 1.08234C5.07485 1.08234 1.08228 5.07492 1.08228 10C1.08228 14.9251 5.07485 18.9177 9.99995 18.9177Z" fill="white"/>
  <path d="M10 0C8.02219 0 6.08879 0.58649 4.4443 1.6853C2.79981 2.78412 1.51809 4.3459 0.761209 6.17317C0.00433281 8.00043 -0.193701 10.0111 0.192152 11.9509C0.578004 13.8907 1.53041 15.6725 2.92894 17.0711C4.32746 18.4696 6.10929 19.422 8.0491 19.8079C9.98891 20.1937 11.9996 19.9957 13.8268 19.2388C15.6541 18.4819 17.2159 17.2002 18.3147 15.5557C19.4135 13.9112 20 11.9778 20 10C20.0038 8.69059 19.7497 7.39326 19.2521 6.18207C18.7546 4.97087 18.0233 3.86954 17.1001 2.94096C16.1769 2.01237 15.0799 1.27471 13.8716 0.770101C12.6634 0.265491 11.3675 0.00381009 10.0581 0H10ZM10.1695 10.339L9.12833 13.8499H14.6973C14.7342 13.8486 14.771 13.8546 14.8056 13.8675C14.8402 13.8804 14.8718 13.9001 14.8988 13.9252C14.9258 13.9504 14.9476 13.9807 14.9629 14.0143C14.9781 14.0479 14.9866 14.0842 14.9879 14.1211V14.2131L14.5036 15.8838C14.4823 15.9628 14.4347 16.0322 14.3687 16.0806C14.3027 16.129 14.2222 16.1535 14.1404 16.1501H5.61744L7.04601 11.2833L5.44795 11.7676L5.81114 10.6538L7.40921 10.1695L9.41889 3.3414C9.44101 3.26284 9.48879 3.19394 9.55461 3.14567C9.62043 3.0974 9.70051 3.07255 9.78209 3.07506H11.9371C11.9739 3.07377 12.0107 3.07976 12.0453 3.09269C12.0799 3.10562 12.1116 3.12524 12.1385 3.15043C12.1655 3.17561 12.1873 3.20587 12.2026 3.23947C12.2178 3.27307 12.2264 3.30936 12.2276 3.34625V3.43826L10.5327 9.20097L12.1308 8.71671L11.7918 9.87893L10.1695 10.339Z" fill="#345D9D"/>
  </g>
  <defs>
  <clipPath id="clip0_10408_4703">
  <rect width="20" height="20" fill="white"/>
  </clipPath>
  </defs>
  </svg>
