<svg width="24" height="24" viewBox="0 0 24 24" fill="none" xmlns="http://www.w3.org/2000/svg">
<g clip-path="url(#clip0)">
<path d="M0 12C0 5.37258 5.37258 0 12 0C18.6274 0 24 5.37258 24 12C24 18.6274 18.6274 24 12 24C5.37258 24 0 18.6274 0 12Z" fill="white"/>
<path d="M36.998 0H-7.00195V27H36.998V0Z" fill="#ECEFF1"/>
<path d="M37 0H-7V3H37V0Z" fill="#F44336"/>
<path d="M37 6H-7V9H37V6Z" fill="#F44336"/>
<path d="M37 12H-7V15H37V12Z" fill="#F44336"/>
<path d="M37 18H-7V21H37V18Z" fill="#F44336"/>
<path d="M14 0H-7V15H14V0Z" fill="#3F51B5"/>
<path d="M-0.75 2L-0.287 2.988L0.75 3.146L0 3.916L0.178 5L-0.75 4.488L-1.678 5L-1.5 3.916L-2.25 3.146L-1.213 2.988L-0.75 2Z" fill="white"/>
<path d="M3.25 2L3.713 2.988L4.75 3.146L4 3.916L4.178 5L3.25 4.488L2.322 5L2.5 3.916L1.75 3.146L2.787 2.988L3.25 2Z" fill="white"/>
<path d="M7.25 2L7.713 2.988L8.75 3.146L8 3.916L8.178 5L7.25 4.488L6.322 5L6.5 3.916L5.75 3.146L6.787 2.988L7.25 2Z" fill="white"/>
<path d="M11 2L11.463 2.988L12.5 3.146L11.75 3.916L11.928 5L11 4.488L10.072 5L10.25 3.916L9.5 3.146L10.537 2.988L11 2Z" fill="white"/>
<path d="M-0.75 10L-0.287 10.988L0.75 11.146L0 11.916L0.178 13L-0.75 12.488L-1.678 13L-1.5 11.916L-2.25 11.146L-1.213 10.988L-0.75 10Z" fill="white"/>
<path d="M3.25 10L3.713 10.988L4.75 11.146L4 11.916L4.178 13L3.25 12.488L2.322 13L2.5 11.916L1.75 11.146L2.787 10.988L3.25 10Z" fill="white"/>
<path d="M7.25 10L7.713 10.988L8.75 11.146L8 11.916L8.178 13L7.25 12.488L6.322 13L6.5 11.916L5.75 11.146L6.787 10.988L7.25 10Z" fill="white"/>
<path d="M11 10L11.463 10.988L12.5 11.146L11.75 11.916L11.928 13L11 12.488L10.072 13L10.25 11.916L9.5 11.146L10.537 10.988L11 10Z" fill="white"/>
<path d="M0.25 6L0.713 6.988L1.75 7.146L1 7.916L1.178 9L0.25 8.488L-0.678 9L-0.5 7.916L-1.25 7.146L-0.213 6.988L0.25 6Z" fill="white"/>
<path d="M4.25 6L4.713 6.988L5.75 7.146L5 7.916L5.178 9L4.25 8.488L3.322 9L3.5 7.916L2.75 7.146L3.787 6.988L4.25 6Z" fill="white"/>
<path d="M8.25 6L8.713 6.988L9.75 7.146L9 7.916L9.178 9L8.25 8.488L7.322 9L7.5 7.916L6.75 7.146L7.787 6.988L8.25 6Z" fill="white"/>
<path d="M12 6L12.463 6.988L13.5 7.146L12.75 7.916L12.928 9L12 8.488L11.072 9L11.25 7.916L10.5 7.146L11.537 6.988L12 6Z" fill="white"/>
</g>
<defs>
<clipPath id="clip0">
<path d="M0 12C0 5.37258 5.37258 0 12 0C18.6274 0 24 5.37258 24 12C24 18.6274 18.6274 24 12 24C5.37258 24 0 18.6274 0 12Z" fill="white"/>
</clipPath>
</defs>
</svg>
