<svg width="16" height="16" viewBox="0 0 16 16" fill="none" xmlns="http://www.w3.org/2000/svg">
<path d="M15.1159 3.2H4.20976L3.63537 0.728C3.58765 0.522675 3.48 0.340256 3.32895 0.208746C3.17791 0.0772352 2.99181 0.00390107 2.79923 0H0.727074C0.534242 0 0.349308 0.0842854 0.212955 0.234315C0.0766021 0.384344 0 0.587827 0 0.8C0 1.01217 0.0766021 1.21566 0.212955 1.36569C0.349308 1.51571 0.534242 1.6 0.727074 1.6H2.34845L2.90829 4.176L4.36244 12C4.39516 12.2226 4.49863 12.4252 4.65441 12.5717C4.8102 12.7182 5.00819 12.7991 5.21312 12.8H14.4179C14.6316 12.7971 14.8368 12.7071 14.9939 12.5476C15.151 12.3881 15.2488 12.1702 15.2685 11.936L15.9956 4.256C16.0079 4.12143 15.9942 3.98551 15.9555 3.85716C15.9167 3.72881 15.8537 3.61092 15.7707 3.51122C15.6876 3.41152 15.5863 3.33225 15.4735 3.27862C15.3606 3.22499 15.2388 3.19819 15.1159 3.2ZM13.8944 11.2H5.69299L4.52967 4.8H14.476L13.8944 11.2Z" fill="white"/>
<path d="M6.91447 16C7.5168 16 8.00508 15.4627 8.00508 14.8C8.00508 14.1373 7.5168 13.6 6.91447 13.6C6.31214 13.6 5.82386 14.1373 5.82386 14.8C5.82386 15.4627 6.31214 16 6.91447 16Z" fill="white"/>
<path d="M12.004 16C12.6063 16 13.0946 15.4627 13.0946 14.8C13.0946 14.1373 12.6063 13.6 12.004 13.6C11.4017 13.6 10.9134 14.1373 10.9134 14.8C10.9134 15.4627 11.4017 16 12.004 16Z" fill="white"/>
</svg>
