<?xml version="1.0" standalone="no"?>
<!DOCTYPE svg PUBLIC "-//W3C//DTD SVG 1.1//EN" "http://www.w3.org/Graphics/SVG/1.1/DTD/svg11.dtd" >
<svg xmlns="http://www.w3.org/2000/svg">
<metadata>Generated by IcoMoon</metadata>
<defs>
<font id="icomoon" horiz-adv-x="1024">
<font-face units-per-em="1024" ascent="960" descent="-64" />
<missing-glyph horiz-adv-x="1024" />
<glyph unicode="&#x20;" horiz-adv-x="512" d="" />
<glyph unicode="&#xe900;" glyph-name="card-atm" d="M870.401 832h-716.8c-40.738 0-79.806-16.183-108.612-44.988s-44.988-67.874-44.988-108.612v-460.8c0-40.735 16.183-79.804 44.988-108.612 28.806-28.801 67.874-44.988 108.612-44.988h716.8c40.735 0 79.804 16.186 108.612 44.988 28.801 28.808 44.988 67.878 44.988 108.612v460.8c0 40.738-16.186 79.806-44.988 108.612-28.808 28.806-67.878 44.988-108.612 44.988zM921.6 217.6c0-13.578-5.393-26.604-14.998-36.202-9.599-9.605-22.624-14.998-36.202-14.998h-716.8c-13.579 0-26.602 5.393-36.204 14.998-9.601 9.599-14.996 22.624-14.996 36.202v460.8c0 13.579 5.394 26.602 14.996 36.204s22.625 14.996 36.204 14.996h716.8c13.578 0 26.604-5.394 36.202-14.996 9.605-9.601 14.998-22.625 14.998-36.204v-460.8zM716.8 524.8c-27.218-0.191-53.903-7.612-77.312-21.504-23.32 13.838-49.889 21.256-77.006 21.498s-53.815-6.698-77.38-20.117c-23.564-13.418-43.158-32.837-56.786-56.28s-20.808-50.080-20.808-77.197c0-27.115 7.178-53.753 20.808-77.196s33.222-42.865 56.786-56.279c23.564-13.421 50.263-20.364 77.38-20.118 27.118 0.239 53.687 7.66 77.006 21.497 20.364-12.083 43.254-19.292 66.868-21.067 23.621-1.775 47.322 1.932 69.27 10.841 21.941 8.902 41.527 22.766 57.228 40.495s27.089 38.85 33.28 61.706c6.185 22.862 6.997 46.844 2.382 70.070s-14.54 45.073-28.999 63.83-33.061 33.914-54.347 44.292c-21.286 10.378-44.687 15.691-68.369 15.528zM571.904 320c-2.896-0.246-5.808-0.246-8.704 0-13.579 0-26.602 5.393-36.204 14.998-9.601 9.599-14.996 22.624-14.996 36.202s5.394 26.602 14.996 36.204c9.601 9.601 22.625 14.996 36.204 14.996 2.896 0.247 5.808 0.247 8.704 0-11.586-31.744-11.586-66.56 0-98.304v-4.096zM716.8 320c-10.124 0-20.023 3.004-28.447 8.629-8.417 5.626-14.977 13.619-18.856 22.979-3.877 9.353-4.888 19.648-2.915 29.581 1.98 9.931 6.854 19.055 14.015 26.215s16.282 12.037 26.214 14.012c9.932 1.975 20.227 0.962 29.58-2.914 9.359-3.876 17.353-10.438 22.979-18.857s8.629-18.319 8.629-28.445c0-13.578-5.393-26.604-14.998-36.202-9.599-9.605-22.624-14.998-36.202-14.998z" />
<glyph unicode="&#xe901;" glyph-name="voucher" d="M232.727 587.636c25.705 0 46.545-20.839 46.545-46.548 0-25.702-20.839-46.54-46.545-46.54v-465.459h93.066c43.33 57.766 111.712 93.094 186.208 93.094s142.873-35.328 186.208-93.094h93.063v465.459c-25.702 0-46.546 20.838-46.546 46.54 0 25.708 20.845 46.548 46.546 46.548v279.273h-93.063c-43.335-57.762-111.712-93.090-186.208-93.090s-142.878 35.328-186.208 93.090h-93.066v-279.273zM791.27 959.999c51.411 0 93.094-41.677 93.094-93.091v-837.82c0-51.411-41.683-93.088-93.094-93.088h-144.844l-13.44 23.238c-24.825 42.906-70.534 69.849-120.985 69.849-50.457 0-96.166-26.944-120.985-69.849l-13.443-23.238h-144.846c-51.412 0-93.091 41.677-93.091 93.088v837.82c0 51.412 41.677 93.091 93.091 93.091h144.846l13.443-23.239c24.819-42.907 70.527-69.852 120.985-69.852 50.451 0 96.16 26.944 120.985 69.852l13.44 23.239h144.844zM698.183 541.088c0-25.702-20.838-46.54-46.546-46.54s-46.546 20.838-46.546 46.54c0 25.708 20.838 46.548 46.546 46.548s46.546-20.839 46.546-46.548zM558.548 541.088c0-25.702-20.845-46.54-46.546-46.54-25.708 0-46.546 20.838-46.546 46.54 0 25.708 20.838 46.548 46.546 46.548 25.702 0 46.546-20.839 46.546-46.548zM418.906 541.088c0-25.702-20.838-46.54-46.543-46.54s-46.545 20.838-46.545 46.54c0 25.708 20.839 46.548 46.545 46.548s46.543-20.839 46.543-46.548z" />
<glyph unicode="&#xe902;" glyph-name="actions-of-users" d="M512 468.493c-132.080 0-248.243 107.175-248.243 237.995s116.163 237.997 248.243 237.997c132.077 0 248.243-107.177 248.243-237.997s-116.164-237.995-248.243-237.995zM512 851.393c-89.113 0-155.152-56.643-155.152-144.906s66.039-165.396 155.152-165.396c89.113 0 155.152 77.132 155.152 165.396s-66.039 144.906-155.152 144.906zM512-79.515c-182.998 0-385.208 31.030-385.208 234.353 0 212.781 183.115 386.253 385.208 386.253s383.236-173.472 383.236-386.253c0-203.323-200.238-234.353-383.236-234.353zM512 448c-155.945 0-279.271-126.089-279.271-293.162 0-100.873 40.579-141.262 279.271-141.262 238.698 0 279.272 40.388 279.272 141.262 0 167.073-123.321 293.162-279.272 293.162z" />
<glyph unicode="&#xe903;" glyph-name="chevron-left" d="M785.634 81.652c33.364-33.356 33.364-87.284 0-120.649s-87.293-33.364-120.657 0l-426.65 426.646c-33.364 33.364-33.364 87.293 0 120.657l426.65 426.651c33.364 33.364 87.293 33.364 120.657 0s33.364-87.293 0-120.657l-366.322-366.322 366.322-366.326z" />
<glyph unicode="&#xe904;" glyph-name="chevron-right" d="M238.336 81.658c-33.365-33.357-33.365-87.287 0-120.653s87.296-33.365 120.662 0l426.667 426.662c33.365 33.365 33.365 87.296 0 120.661l-426.667 426.667c-33.365 33.365-87.296 33.365-120.662 0s-33.365-87.296 0-120.661l366.336-366.336-366.336-366.34z" />
<glyph unicode="&#xe905;" glyph-name="i18n" d="M403.86 599.632c15.247 15.25 15.248 39.973 0.001 55.223-27.191 27.191-63.407 42.192-101.859 42.192-79.44 0-144.049-64.609-144.049-144.049s64.609-144.048 144.049-144.048c79.44 0 144.049 64.609 144.049 144.048 0 21.566-17.484 39.050-39.050 39.050h-13.814c3.858 1.857 7.474 4.385 10.673 7.584zM328.252 513.949h26.847c-12.028-16.314-31.366-26.899-53.096-26.899-36.353 0-65.949 29.596-65.949 65.949s29.596 65.949 65.949 65.949c17.639 0 34.159-6.844 46.634-19.316 3.198-3.199 6.813-5.726 10.671-7.583h-31.055c-21.566 0-39.050-17.484-39.050-39.050s17.484-39.050 39.050-39.050zM696.851 210.131c-14.106-13.837-35.923-14.752-51.059-3.168l1.331 64.173 24.877 26.31c-5.702 7.622-11.373 15.52-16.858 23.594-12.128 17.832-7.507 42.12 10.33 54.249s42.125 7.5 54.253-10.333c0.851-1.259 1.715-2.515 2.586-3.768 11.411 16.569 21.203 32.864 28.179 47.759h-133.496c-6.079 0-11.834 1.389-16.964 3.868l-17.686 53.206c6.513 12.495 19.585 21.026 34.65 21.026h65.95v13.45c0 21.566 17.485 39.050 39.046 39.050 21.568 0 39.053-17.484 39.053-39.050v-13.45h65.952c21.562 0 39.046-17.485 39.046-39.050 0-19.185-13.837-35.14-32.077-38.428-9.446-33.223-30.259-70.799-61.267-112.136 7.341-8.365 13.85-15.462 18.867-20.819 3.251-3.475 5.882-6.221 7.699-8.102l2.106-2.157 0.742-0.749c15.238-15.258 15.232-39.981-0.019-55.226s-39.968-15.238-55.213 0.006c-1.005 1.005-10.765 10.816-24.71 26.291-14.394-15.782-24.454-25.696-25.318-26.547zM881.248 697.049c50.49 0 91.546-41.058 91.546-91.549v-526.748c0-50.49-41.056-91.546-91.546-91.546l-360.263-0.006c-16.451 0-31.972 10.586-37.26 27.366l-60.956 184.384h-280.017c-50.492 0-91.55 41.062-91.55 91.552v526.745c0 50.492 41.057 91.55 91.55 91.55h264.247c16.82 0 31.75-10.77 37.056-26.731l61.502-185.017h375.69zM129.302 290.502c0-7.405 6.045-13.446 13.45-13.446h420.113l-184.036 553.642h-236.077c-7.405 0-13.45-6.045-13.45-13.45v-526.745zM881.248 65.306c7.405 0 13.446 6.042 13.446 13.446v526.748c0 7.405-6.042 13.45-13.446 13.45h-349.729l115.617-347.813-1.338-64.173-64.228-141.658h299.677zM505.031 199.046l21.669-65.92 29.721 65.92h-51.39z" />
<glyph unicode="&#xe906;" glyph-name="contracts" d="M336.013 243.201h415.999v-102.4h-415.999v102.4zM336.013 448h415.999v-102.4h-415.999v102.4zM648 959.999h-415.999c-57.199 0-103.999-46.080-103.999-102.4v-819.199c0-56.32 46.279-102.4 103.48-102.4h624.519c57.202 0 103.999 46.080 103.999 102.4v614.4l-312 307.2zM856.007 38.4h-624v819.201h364v-256h259.999v-563.202z" />
<glyph unicode="&#xe907;" glyph-name="edit" d="M972.514 447.851c-13.575 0-26.588-5.393-36.193-14.992-9.597-9.599-14.986-22.619-14.986-36.193v-307.113c0-13.575-5.398-26.588-14.995-36.193-9.597-9.597-22.619-14.986-36.193-14.986h-716.591c-13.575 0-26.594 5.39-36.193 14.986-9.598 9.605-14.992 22.619-14.992 36.193v716.594c0 13.575 5.393 26.594 14.992 36.193s22.618 14.992 36.193 14.992h307.11c13.576 0 26.594 5.393 36.193 14.993s14.992 22.618 14.992 36.193c0 13.575-5.393 26.594-14.992 36.193s-22.618 14.992-36.193 14.992h-307.11c-40.725 0-79.783-16.178-108.579-44.975s-44.975-67.854-44.975-108.579v-716.594c0-40.723 16.178-79.78 44.975-108.579s67.854-44.976 108.579-44.976h716.591c40.723 0 79.78 16.177 108.579 44.976s44.976 67.856 44.976 108.579v307.113c0 13.575-5.39 26.594-14.995 36.193-9.597 9.598-22.611 14.992-36.193 14.992zM204.74 408.95v-217.022c0-13.575 5.393-26.596 14.992-36.193 9.599-9.605 22.619-14.995 36.193-14.995h217.024c6.737-0.039 13.415 1.251 19.65 3.801s11.908 6.296 16.691 11.041l354.197 354.715 145.371 142.296c4.798 4.758 8.606 10.419 11.202 16.657s3.938 12.927 3.938 19.684c0 6.757-1.344 13.447-3.938 19.684s-6.403 11.899-11.202 16.657l-217.027 219.585c-4.76 4.797-10.418 8.605-16.653 11.204-6.243 2.599-12.929 3.936-19.686 3.936s-13.449-1.338-19.687-3.936c-6.237-2.599-11.898-6.406-16.657-11.204l-144.342-144.854-355.225-354.713c-4.744-4.783-8.497-10.455-11.044-16.691s-3.839-12.914-3.8-19.65v0zM755.494 836.346l144.848-144.854-72.678-72.682-144.856 144.854 72.685 72.683zM307.11 387.965l303.529 303.528 144.856-144.854-303.53-303.529h-144.854v144.854z" />
<glyph unicode="&#xe908;" glyph-name="save" d="M992.712 653.569c-6.724 6.774-14.714 12.155-23.527 15.823s-18.262 5.561-27.802 5.561c-9.533 0-18.995-1.889-27.803-5.561s-16.804-9.048-23.527-15.823l-538.593-539.319-226.288 227.005c-6.979 6.74-15.222 12.040-24.24 15.598s-18.665 5.3-28.367 5.135-19.275-2.244-28.171-6.114-16.946-9.449-23.687-16.424c-6.74-6.979-12.039-15.222-15.596-24.241s-5.3-18.665-5.135-28.366 2.244-19.275 6.114-28.171c3.866-8.895 9.449-16.947 16.425-23.687l277.609-277.61c6.724-6.773 14.714-12.155 23.527-15.814s18.262-5.561 27.803-5.561 18.994 1.889 27.802 5.561c8.809 3.676 16.805 9.048 23.527 15.814l589.924 589.924c7.338 6.762 13.192 14.983 17.208 24.136 4.004 9.147 6.069 19.021 6.069 29.005s-2.066 19.86-6.069 29.005c-4.004 9.146-9.865 17.362-17.208 24.136z" />
<glyph unicode="&#xe909;" glyph-name="exchange" d="M284.628 101.333c68.59-56.597 133.563-80 227.372-80 206.131 0 376.226 162.863 401.088 373.333h60.301c40.354 0 64.427 47.475 42.039 82.918l-107.695 170.519c-20.002 31.665-64.085 31.665-84.083 0l-107.699-170.519c-22.387-35.442 1.685-82.918 42.039-82.918h52.979c-24.051-151.343-148.753-266.667-298.97-266.667-55.241 0-107.030 15.595-151.633 42.842l-75.739-69.508zM663.633 725.159c-44.604 27.246-96.393 42.841-151.633 42.841-150.217 0-274.916-115.322-298.971-266.667h52.979c40.356 0 64.426-47.474 42.041-82.918l-107.697-170.517c-20-31.667-64.083-31.667-84.082 0l-107.698 170.517c-22.385 35.444 1.685 82.918 42.041 82.918h60.298c24.864 210.47 194.959 373.333 401.090 373.333 93.807 0 158.784-23.403 227.375-80l-75.742-69.507z" />
<glyph unicode="&#xe90a;" glyph-name="info-circle" d="M0 448c0-282.769 229.23-512 512-512s512 229.231 512 512c0 282.77-229.231 512-512 512s-512-229.23-512-512zM930.91 448.004c0-231.356-187.554-418.91-418.91-418.91s-418.909 187.554-418.909 418.91 187.552 418.909 418.909 418.909c231.356 0 418.91-187.552 418.91-418.909zM558.711 354.991h46.515v-93.090h-186.181v93.090h46.545v93.090h-46.545v93.093h139.665v-186.183zM558.575 634.281c0-25.706-20.843-46.545-46.558-46.545s-46.562 20.839-46.562 46.545c0 25.706 20.847 46.545 46.562 46.545s46.558-20.839 46.558-46.545z" />
<glyph unicode="&#xe90b;" glyph-name="invoices" d="M648 959.999h-415.999c-57.199 0-103.999-46.080-103.999-102.4v-819.199c0-56.32 46.281-102.4 103.48-102.4h624.519c57.202 0 103.999 46.080 103.999 102.4v614.4l-312 307.2zM856.007 38.4h-623.998v819.201h363.999v-256h259.999v-563.202zM572.345 250.579c0 14.713-4.012 26.38-12.039 34.995-7.852 8.793-21.292 16.864-40.314 24.223s-35.424 14.623-49.209 21.805c-13.792 7.36-25.657 15.705-35.602 25.036-9.772 9.51-17.452 20.634-23.034 33.376-5.415 12.742-8.121 27.91-8.121 45.498 0 30.33 9.427 55.18 28.275 74.56 18.847 19.386 43.891 30.688 75.129 33.919v36.073c0 11.893 9.376 21.534 20.941 21.534s20.941-9.642 20.941-21.534v-36.879c30.886-4.486 55.059-17.766 72.511-39.84 11.737-14.727 19.527-32.422 23.373-53.074 3.27-17.593-11.314-32.256-28.729-32.256h-12.582c-17.421 0-30.297 15.027-35.949 31.968-2.125 6.367-5.017 11.776-8.679 16.218-8.55 10.765-20.064 16.147-34.554 16.147-14.304 0-25.389-4.218-33.241-12.646-7.852-8.256-11.782-19.744-11.782-34.458 0-13.638 3.84-24.589 11.52-32.845s21.901-16.69 42.669-25.299c20.941-8.614 38.131-16.786 51.571-24.499 13.434-7.539 24.781-16.153 34.029-25.843 9.247-9.51 16.314-20.461 21.202-32.838 4.882-12.205 7.327-26.476 7.327-42.802 0-30.508-9.247-55.276-27.744-74.298-18.502-19.021-43.981-30.24-76.441-33.651v-32.166c0-11.821-9.318-21.402-20.812-21.402s-20.812 9.58-20.812 21.402v31.897c-35.776 3.949-63.52 16.96-83.238 39.033-13.459 15.328-22.285 34.099-26.476 56.313-3.315 17.587 11.277 32.25 28.69 32.25h12.582c17.415 0 30.355-15.072 36.364-31.878 2.386-6.694 5.664-12.486 9.831-17.382 9.945-11.302 24.172-16.96 42.669-16.96 15.36 0 27.481 4.128 36.384 12.384 8.902 8.434 13.35 19.744 13.35 33.919z" />
<glyph unicode="&#xe90c;" glyph-name="account" horiz-adv-x="922" d="M358.4 652.8h307.2c13.578 0 26.604 5.394 36.204 14.996s14.996 22.625 14.996 36.204c0 13.579-5.396 26.602-14.996 36.204s-22.625 14.996-36.204 14.996h-307.2c-13.579 0-26.602-5.394-36.204-14.996s-14.996-22.625-14.996-36.204c0-13.579 5.394-26.602 14.996-36.204s22.625-14.996 36.204-14.996zM256 448h409.6c13.578 0 26.604 5.394 36.204 14.996s14.996 22.625 14.996 36.204c0 13.579-5.396 26.602-14.996 36.204s-22.625 14.996-36.204 14.996h-409.6c-13.579 0-26.602-5.394-36.204-14.996s-14.996-22.625-14.996-36.204c0-13.579 5.394-26.602 14.996-36.204s22.625-14.996 36.204-14.996zM256 243.2h409.6c13.578 0 26.604 5.396 36.204 14.996s14.996 22.625 14.996 36.204c0 13.578-5.396 26.604-14.996 36.204s-22.625 14.996-36.204 14.996h-409.6c-13.579 0-26.602-5.396-36.204-14.996s-14.996-22.625-14.996-36.204c0-13.578 5.394-26.604 14.996-36.204s22.625-14.996 36.204-14.996zM870.4 960h-819.2c-13.579 0-26.602-5.394-36.204-14.996s-14.996-22.625-14.996-36.204v-921.6c0-9.508 2.648-18.831 7.647-26.916 4.999-8.090 12.151-14.628 20.656-18.877 8.505-4.255 18.025-6.052 27.496-5.202 9.47 0.855 18.515 4.332 26.122 10.035l105.984 79.36 105.472-79.36c8.863-6.646 19.642-10.24 30.72-10.24s21.857 3.594 30.72 10.24l105.984 79.36 105.984-79.36c8.863-6.646 19.64-10.24 30.72-10.24s21.857 3.594 30.72 10.24l105.472 79.36 105.984-79.36c7.644-5.699 16.727-9.144 26.225-9.958s19.036 1.039 27.535 5.35c8.443 4.255 15.544 10.762 20.516 18.806s7.613 17.306 7.644 26.762v921.6c0 13.579-5.396 26.602-14.996 36.204s-22.625 14.996-36.204 14.996zM819.2 89.6l-54.784 40.96c-8.863 6.646-19.64 10.24-30.72 10.24s-21.857-3.594-30.72-10.24l-105.472-79.36-105.984 79.36c-8.863 6.646-19.642 10.24-30.72 10.24s-21.857-3.594-30.72-10.24l-105.984-79.36-105.472 79.36c-8.863 6.646-19.642 10.24-30.72 10.24s-21.857-3.594-30.72-10.24l-54.784-40.96v768h716.8v-768z" />
<glyph unicode="&#xe90d;" glyph-name="issuers" d="M158.315 521.146v-341.337h141.474v341.337h-141.474zM441.261 521.146v-341.337h141.479v341.337h-141.479zM63.999-64h896v146.285h-896v-146.285zM724.211 521.146v-341.337h141.473v341.337h-141.473zM512 960l-448.001-243.81v-97.524h896v97.524l-448.001 243.81z" />
<glyph unicode="&#xe90e;" glyph-name="pencil" d="M960 64c35.347 0 64-28.653 64-64s-28.653-64-64-64h-896c-35.346 0-64 28.653-64 64s28.654 64 64 64h896zM274.745 493.255l448.001 448c23.072 23.071 59.373 24.846 84.48 5.324l6.029-5.324 192-192c23.072-23.071 24.845-59.374 5.325-84.481l-5.325-6.029-447.999-447.999c-10.002-10.003-22.973-16.352-36.843-18.189l-8.412-0.557h-192c-32.822 0-59.873 24.704-63.569 56.538l-0.431 7.462v192c0 14.145 4.682 27.807 13.189 38.914l5.556 6.341zM768 805.492l-384-384v-101.491h101.491l384.001 384-101.491 101.491z" />
<glyph unicode="&#xe90f;" glyph-name="plus-circle" d="M1024 448c0 282.77-229.231 512-512 512s-512-229.23-512-512c0-282.769 229.23-512 512-512s512 229.231 512 512zM938.667 448c0-235.639-191.027-426.667-426.667-426.667-235.642 0-426.667 191.027-426.667 426.667 0 235.642 191.025 426.667 426.667 426.667 235.639 0 426.667-191.025 426.667-426.667zM469.333 576v-85.333h-85.333c-23.564 0-42.667-19.102-42.667-42.667s19.102-42.667 42.667-42.667h85.333v-85.333c0-23.565 19.102-42.667 42.667-42.667s42.667 19.102 42.667 42.667v85.333h85.333c23.565 0 42.667 19.102 42.667 42.667s-19.102 42.667-42.667 42.667h-85.333v85.333c0 23.564-19.102 42.667-42.667 42.667s-42.667-19.102-42.667-42.667z" />
<glyph unicode="&#xe910;" glyph-name="system-operations" d="M184.080 960h655.837c30.867 0 56.084-25.614 56.084-56.96v-172.892c0-31.346-25.217-56.985-56.084-56.985h-655.837c-30.863 0-56.081 25.64-56.081 56.985v172.892c0 31.346 25.218 56.96 56.081 56.96zM839.917 591.418h-655.837c-30.863 0-56.081-25.614-56.081-56.961v-172.916c0-31.322 25.218-56.96 56.081-56.96h655.837c30.867 0 56.084 25.638 56.084 56.96v172.916c0 31.347-25.217 56.961-56.084 56.961zM839.917 222.835h-655.837c-30.863 0-56.081-25.638-56.081-56.985v-172.89c0-31.347 25.218-56.96 56.081-56.96h655.837c30.867 0 56.084 25.613 56.084 56.96v172.89c0 31.347-25.217 56.985-56.084 56.985zM287.765 21.734c31.719 0 57.432 26.118 57.432 58.337 0 32.211-25.713 58.329-57.432 58.329s-57.432-26.118-57.432-58.329c0-32.217 25.713-58.337 57.432-58.337zM345.197 446.732c0-32.217-25.713-58.337-57.432-58.337s-57.432 26.118-57.432 58.337c0 32.217 25.713 58.329 57.432 58.329s57.432-26.112 57.432-58.329zM287.765 755.064c31.719 0 57.432 26.117 57.432 58.334s-25.713 58.334-57.432 58.334c-31.719 0-57.432-26.117-57.432-58.334s25.713-58.334 57.432-58.334z" />
<glyph unicode="&#xe911;" glyph-name="user-waiting" d="M522.667 545.28c1.131-0.503 2.261-1.012 3.388-1.528 14.4-6.853 24.341-21.568 24.341-38.579 0-23.565-19.102-42.667-42.667-42.667-9.707 0-18.658 3.238-25.826 8.7-30.75 12.727-63.979 19.46-97.903 19.46-67.895 0-133.010-26.97-181.019-74.982-48.009-48.009-74.981-113.122-74.981-181.018 0-11.315-4.495-22.17-12.497-30.17s-18.854-12.497-30.17-12.497c-11.316 0-22.168 4.497-30.17 12.497s-12.497 18.854-12.497 30.17c0.063 65.566 19.008 129.724 54.57 184.811 35.562 55.083 86.236 98.756 145.964 125.803-23.156 19.506-41.818 43.791-54.706 71.188s-19.697 57.257-19.961 87.532c0 56.579 22.476 110.842 62.484 150.849s94.27 62.484 150.849 62.484c56.58 0 110.844-22.476 150.848-62.484 40.009-40.008 62.485-94.27 62.485-150.849 0-30.11-6.477-59.868-18.991-87.254s-30.775-51.759-53.542-71.466zM310.754 597.572c21.050-14.065 45.797-21.572 71.113-21.572 33.948 0 66.505 13.486 90.509 37.49s37.491 56.562 37.491 90.51c0 25.316-7.505 50.063-21.572 71.113-14.063 21.050-34.057 37.456-57.442 47.144-23.391 9.688-49.128 12.223-73.957 7.284s-47.637-17.13-65.538-35.031c-17.901-17.901-30.092-40.709-35.031-65.538s-2.404-50.566 7.284-73.955c9.688-23.389 26.094-43.38 47.144-57.445zM768 341.333c0 23.565-19.102 42.667-42.667 42.667s-42.667-19.102-42.667-42.667v-106.667c0-23.565 19.102-42.667 42.667-42.667h64c23.565 0 42.667 19.102 42.667 42.667s-19.102 42.667-42.667 42.667h-21.333v64zM725.333-21.333c-141.385 0-256 114.615-256 256s114.615 256 256 256c141.385 0 256-114.615 256-256s-114.615-256-256-256zM725.333 64c94.255 0 170.667 76.412 170.667 170.667s-76.412 170.667-170.667 170.667c-94.255 0-170.667-76.412-170.667-170.667s76.412-170.667 170.667-170.667z" />
<glyph unicode="&#xe912;" glyph-name="time-circle" d="M512 960c-282.408 0-512-229.592-512-512s229.592-512 512-512c282.408 0 512 229.592 512 512s-229.592 512-512 512zM713.566 306.796c-9.701-14.013-24.791-21.558-40.959-21.558-9.702 0-20.48 3.234-29.104 8.623l-160.606 113.179c-12.935 9.701-21.558 24.792-21.558 40.96v270.552c0 28.025 22.636 50.661 50.661 50.661s50.661-22.636 50.661-50.661v-244.682l139.049-98.089c22.636-15.090 28.025-46.349 11.856-68.985z" />
<glyph unicode="&#xe913;" glyph-name="transfer-from" d="M508.075 243.405l2.991 0.358 6.020 1.271 5.393 1.813 5.769 2.735 5.696 3.669c2.001 1.485 3.913 3.132 5.726 4.945l153.6 153.6c19.994 19.994 19.994 52.412 0 72.405-19.994 19.998-52.412 19.998-72.41 0l-66.193-66.206v490.803c0 28.277-22.925 51.2-51.2 51.2-28.279 0-51.2-22.923-51.2-51.2v-490.803l-66.197 66.206c-19.995 19.998-52.413 19.998-72.407 0-19.995-19.994-19.995-52.412 0-72.405l153.598-153.6 4.181-3.75 5.363-3.772 4.992-2.679 5.687-2.249 5.705-1.51 6.426-0.896 3.853-0.141 4.608 0.205zM1023.654 197.969c-2.957 25.463-24.597 45.231-50.854 45.231-28.275 0-51.2-22.925-51.2-51.2v-102.4l-0.346-5.969c-2.957-25.468-24.597-45.231-50.854-45.231l-722.771 0.346c-25.463 2.957-45.229 24.597-45.229 50.854v102.4l-0.344 5.969c-2.958 25.463-24.599 45.231-50.856 45.231-28.277 0-51.2-22.925-51.2-51.2v-102.4l0.261-9.024c4.672-80.631 71.538-144.576 153.339-144.576l725.824 0.26c80.631 4.672 144.576 71.539 144.576 153.34v102.4l-0.346 5.969z" />
<glyph unicode="&#xe914;" glyph-name="transfer-to" d="M972.8 243.2c26.257 0 47.898-19.763 50.854-45.231l0.346-5.969v-102.4c0-81.801-63.945-148.668-144.576-153.34l-9.024-0.26h-716.8c-81.801 0-148.667 63.945-153.339 144.576l-0.261 9.024v102.4c0 28.275 22.923 51.2 51.2 51.2 26.257 0 47.898-19.763 50.856-45.231l0.344-5.969v-102.4c0-26.257 19.765-47.898 45.229-50.854l5.971-0.346h716.8c26.257 0 47.898 19.763 50.854 45.231l0.346 5.969v102.4c0 28.275 22.925 51.2 51.2 51.2zM504.397 959.436l2.995 0.359 4.608 0.205 3.853-0.143 6.426-0.894 5.705-1.51 5.687-2.249 4.992-2.679 5.359-3.773 4.181-3.748 153.6-153.6c19.998-19.995 19.998-52.413 0-72.408-19.994-19.995-52.412-19.995-72.405 0l-66.197 66.207v-490.803c0-28.275-22.925-51.2-51.2-51.2s-51.2 22.925-51.2 51.2v490.803l-66.196-66.207c-19.995-19.995-52.413-19.995-72.408 0s-19.995 52.413 0 72.408l153.601 153.6c1.809 1.812 3.725 3.46 5.722 4.944l5.696 3.669 5.773 2.736 5.393 1.811 6.016 1.271z" />
<glyph unicode="&#xe915;" glyph-name="transfers" d="M341.333 163.558c0 31.417 25.47 56.883 56.887 56.883h568.889c31.417 0 56.889-25.465 56.889-56.883 0-31.423-25.471-56.889-56.889-56.889h-568.889c-31.417 0-56.887 25.465-56.887 56.889zM357.995 123.328c-22.216 22.215-22.216 58.24 0 80.454l170.664 170.668c22.221 22.215 58.24 22.215 80.454 0 22.221-22.221 22.221-58.24 0-80.454l-130.438-130.438 130.438-130.444c22.221-22.215 22.221-58.233 0-80.454-22.215-22.215-58.233-22.215-80.454 0l-170.664 170.668zM0.001 732.443c0 31.419 25.47 56.889 56.889 56.889h568.889c31.417 0 56.889-25.47 56.889-56.889s-25.471-56.889-56.889-56.889h-568.889c-31.419 0-56.889 25.47-56.889 56.889zM666.003 772.67c22.215-22.216 22.215-58.236 0-80.452l-170.662-170.668c-22.221-22.215-58.24-22.215-80.454 0-22.221 22.221-22.221 58.239 0 80.455l130.438 130.44-130.438 130.44c-22.221 22.216-22.221 58.237 0 80.452 22.215 22.216 58.233 22.216 80.454 0l170.662-170.667z" />
<glyph unicode="&#xe916;" glyph-name="trash" d="M658.285 896c40.397 0 73.146-33.429 73.146-74.667v-74.666h219.424c40.397 0 73.146-33.43 73.146-74.667s-32.749-74.667-73.146-74.667h-73.139v-373.333c0-123.712-81.869-224-182.861-224h-365.711c-100.989 0-182.858 100.288-182.858 224v373.333h-73.142c-40.396 0-73.143 33.43-73.143 74.667s32.747 74.667 73.143 74.667h219.428v74.666c0 41.238 32.747 74.667 73.143 74.667h292.57zM365.768 597.327c-37.51 0-68.426-28.824-72.651-65.959l-0.492-8.708v-298.666c0-41.235 32.747-74.669 73.142-74.669 37.51 0 68.426 28.826 72.65 65.958l0.492 8.71v298.666c0 41.237-32.747 74.667-73.142 74.667zM658.266 597.327c-37.508 0-68.424-28.824-72.648-65.959l-0.492-8.708v-298.666c0-41.235 32.747-74.669 73.14-74.669 37.51 0 68.429 28.826 72.653 65.958l0.493 8.71v298.666c0 41.237-32.749 74.667-73.146 74.667z" />
<glyph unicode="&#xe917;" glyph-name="users" d="M346.765 466.785c-122.999 0-223.768 98.244-223.768 218.163s100.771 218.164 223.768 218.164c123 0 223.768-98.245 223.768-218.164s-100.767-218.163-223.768-218.163zM346.765 817.778c-82.987 0-136.464-51.923-136.464-132.831s53.477-145.924 136.464-145.924c82.985 0 136.791 65.016 136.791 145.924s-53.805 132.831-136.791 132.831zM778.002 449.445c-88.917 0-161.531 70.792-161.531 157.482s72.613 157.483 161.531 157.483c88.912 0 161.531-70.796 161.531-157.483s-72.619-157.482-161.531-157.482zM778.002 692.17c-48.901 0-87.432-37.565-87.432-85.244s38.531-85.244 87.432-85.244 87.432 37.564 87.432 85.244c0 47.679-38.531 85.244-87.432 85.244zM779.48 130.138c-59.272 0-99.288 2.889-128.922 7.225l-31.124 5.78v36.119c0 57.793-19.263 115.587-54.829 167.6l-11.856 17.335 10.376 18.785c42.973 83.797 127.443 137.256 214.875 137.256 131.891 0 244.515-115.587 245.999-252.843 0-137.256-130.412-137.256-244.52-137.256zM692.048 220.444c22.232-1.445 50.387 0 87.432 0 149.675 0 159.187-3.619 159.187 46.951-1.485 95.357-68.791 168.903-159.187 168.903-54.829 0-108.18-18.643-140.778-67.767 31.119-50.568 48.901-91.739 53.345-148.088zM346.768-7.111c-170.42 0-346.769 0-346.769 186.38 0 195.050 158.566 359.754 346.769 359.754s346.766-164.706 346.766-359.754c0-186.38-176.344-186.38-346.766-186.38zM346.768 448c-145.227 0-261.435-115.582-261.435-268.732 0-92.467 39.148-101.047 261.435-101.047s250.566 8.579 250.566 101.047c0 153.151-105.336 268.732-250.566 268.732z" />
<glyph unicode="&#xe918;" glyph-name="variables" d="M256.023 196.98c-16.384 0-32.767 6.226-45.246 18.604l-191.995 190.504c-25.024 24.832-25.024 64.965 0 89.789l191.995 190.502c25.024 24.829 65.47 24.829 90.494 0s25.024-64.96 0-89.789l-146.748-145.608 146.748-145.608c25.024-24.824 25.024-64.959 0-89.789-12.48-12.378-28.864-18.604-45.246-18.604v0zM768.005 196.98c-16.384 0-32.761 6.226-45.24 18.604-25.024 24.832-25.024 64.965 0 89.789l146.748 145.608-146.748 145.608c-25.024 24.829-25.024 64.96 0 89.789s65.464 24.829 90.487 0l191.995-190.502c25.024-24.824 25.024-64.959 0-89.789l-191.995-190.504c-12.48-12.378-28.864-18.604-45.246-18.604v0zM450.062 64.011l-12.282 1.209c-34.687 6.663-57.345 40.062-50.559 74.48l126.006 640.913c6.72 34.418 40.454 56.961 75.076 50.166 34.687-6.667 57.342-40.068 50.559-74.486l-126.019-640.913c-6.016-30.355-32.767-51.372-62.782-51.372z" />
<glyph unicode="&#xe919;" glyph-name="wallets" d="M0 667.428c0 90.89 68.769 164.572 153.6 164.572h614.4c84.832 0 153.6-73.681 153.6-164.572v-438.857c0-90.888-68.768-164.572-153.6-164.572h-614.4c-84.831 0-153.6 73.683-153.6 164.572v438.857zM153.6 722.285c-28.277 0-51.2-24.56-51.2-54.857v-438.857c0-30.297 22.923-54.856 51.2-54.856h614.4c28.275 0 51.2 24.559 51.2 54.856v438.857c0 30.297-22.925 54.857-51.2 54.857h-614.4zM716.8 557.715h204.8c56.557 0 102.4-49.121 102.4-109.715s-45.843-109.715-102.4-109.715h-204.8c-56.557 0-102.4 49.121-102.4 109.715s45.843 109.715 102.4 109.715zM716.8 393.143c28.275 0 51.2 24.56 51.2 54.857s-22.925 54.857-51.2 54.857c-28.275 0-51.2-24.56-51.2-54.857s22.925-54.857 51.2-54.857z" />
<glyph unicode="&#xe91a;" glyph-name="points-of-sale" d="M511.999 73.741c21.288 0 41.496 9.568 55.128 26.080 47.256 57.286 282.889 351.567 282.889 518.182 0 188.592-151.633 341.997-338.017 341.997-186.336 0-337.968-153.405-337.968-341.997 0-166.616 235.632-460.896 282.888-518.182 13.632-16.538 33.792-26.080 55.080-26.080zM305.287 601.101c0 115.521 92.52 209.186 206.712 209.186s206.808-93.665 206.808-209.186c0-115.545-92.616-209.21-206.808-209.21s-206.712 93.665-206.712 209.21zM715.957 178.842c-17.322-19.238-33.846-36.979-48.828-52.762 102.938-15.738 155.789-44.582 155.789-59.398 0-21.056-105.791-70.342-310.918-70.342-205.070 0-310.858 49.306-310.858 70.342 0 14.842 52.851 43.661 155.786 59.398-15.039 15.782-31.534 33.523-48.828 52.762-103.962-20.627-180.1-58.317-180.1-112.186 0-85.773 193.199-130.656 383.971-130.656 190.859 0 384.029 44.883 384.029 130.656 0.058 53.869-76.141 91.558-180.043 112.186z" />
<glyph unicode="&#xe91b;" glyph-name="subscription" horiz-adv-x="1170" d="M559.278 150.837h52.961c9.853 0 18.475 8.951 18.475 19.174v48.563l4.927 1.28c56.655 15.338 98.533 63.907 104.691 121.421 3.693 39.621-8.622 79.243-34.488 107.36-25.865 29.396-61.582 46.011-99.763 46.011h-40.644c-12.316 0-24.633 5.112-33.254 15.337s-12.316 23.006-11.085 35.787c2.463 23.006 23.401 40.9 46.802 40.9h46.802c13.548 0 24.633-10.225 27.096-23.006 1.232-8.946 9.853-15.336 18.475-15.336h52.961c4.927 0 11.084 2.555 13.547 6.391 3.695 3.834 4.929 8.947 4.929 14.059-4.929 54.958-45.573 99.692-97.301 108.638l-4.927 1.279v47.29c0 10.225-8.621 19.172-18.475 19.172h-52.96c-9.853 0-18.475-8.947-18.475-19.172v-47.29l-4.927-1.279c-66.508-15.336-110.848-80.52-104.689-149.538 6.158-70.295 67.739-125.254 139.174-125.254h34.486c12.316 0 24.632-5.112 33.254-15.337s12.316-21.727 11.084-35.787c-2.462-23.006-23.401-40.9-46.802-40.9h-46.802c-13.548 0-24.632 10.225-27.096 23.006-1.232 8.947-9.854 15.337-18.475 15.337h-52.961c-4.927 0-11.084-2.555-14.78-6.391s-4.927-8.947-4.927-14.059c4.927-54.958 45.571-99.692 97.3-108.64l4.927-1.28v-47.283c1.232-11.502 9.853-20.453 20.937-20.453zM274.77 472.92h-66.508c12.316 204.496 174.892 366.816 375.65 366.816 88.678 0 173.663-31.954 241.399-90.746 8.622-7.668 20.936-6.391 28.329 1.279l51.729 57.515c7.385 8.947 7.385 23.006-1.236 30.675-88.673 79.242-201.986 121.419-320.221 121.419-264.802 1.278-479.107-214.721-491.423-486.957h-57.887c-27.096 0-43.107-30.674-29.559-54.958l119.469-204.499c13.548-23.006 45.571-23.006 59.118 0l119.469 204.499c14.78 25.562-1.232 54.958-28.327 54.958zM1165.245 478.033l-119.466 204.496c-13.55 23.006-45.573 23.006-59.122 0l-119.466-204.496c-13.55-24.284 2.464-54.958 29.557-54.958h66.508c-12.314-204.5-174.896-366.818-375.65-366.818-88.679 0-173.661 31.956-241.401 90.749-8.621 7.663-20.937 6.392-28.327-1.28l-52.96-57.514c-7.39-8.951-7.39-23.006 1.232-30.676 88.678-79.24 201.989-121.418 320.225-121.418 264.801 0 479.104 217.279 491.426 488.235h57.887c27.093 0 43.108 29.396 29.557 53.681z" />
<glyph unicode="&#xe91c;" glyph-name="template" horiz-adv-x="896" d="M72.615 919.1c26.005 26.187 61.276 40.899 98.052 40.899h369.776c12.259 0 24.016-4.904 32.684-13.633l277.336-279.272c8.666-8.729 13.536-20.568 13.536-32.913v-558.546c0-37.030-14.611-72.55-40.614-98.739-26.003-26.182-61.274-40.896-98.054-40.896h-554.663c-36.777 0-72.047 14.714-98.052 40.896-26.005 26.189-40.614 61.709-40.614 98.739v744.727c0 37.034 14.609 72.551 40.614 98.738zM170.667 866.908c-12.259 0-24.016-4.904-32.684-13.633s-13.539-20.568-13.539-32.913v-744.727c0-12.346 4.87-24.186 13.539-32.909 8.668-8.73 20.425-13.638 32.684-13.638h554.663c12.262 0 24.019 4.909 32.685 13.638 8.672 8.723 13.542 20.563 13.542 32.909v539.266l-250.26 252.007h-350.631zM540.444 959.999c25.528 0 46.223-20.839 46.223-46.545v-232.727h231.112c25.53 0 46.221-20.839 46.221-46.545s-20.691-46.545-46.221-46.545h-277.335c-25.528 0-46.222 20.839-46.222 46.545v279.272c0 25.706 20.694 46.545 46.222 46.545zM216.889 401.455c0 25.706 20.694 46.545 46.222 46.545h369.777c25.53 0 46.221-20.839 46.221-46.545s-20.691-46.546-46.221-46.546h-369.777c-25.528 0-46.222 20.84-46.222 46.546zM216.889 215.27c0 25.709 20.694 46.547 46.222 46.547h369.777c25.53 0 46.221-20.838 46.221-46.547 0-25.702-20.691-46.541-46.221-46.541h-369.777c-25.528 0-46.222 20.838-46.222 46.541zM216.889 587.636c0 25.706 20.694 46.545 46.222 46.545h92.445c25.528 0 46.222-20.839 46.222-46.545s-20.694-46.545-46.222-46.545h-92.445c-25.528 0-46.222 20.839-46.222 46.545z" />
<glyph unicode="&#xe91d;" glyph-name="identification" d="M377.174 320h-174.507c-17.664 0-32 14.336-32 32s14.336 32 32 32h174.507c17.664 0 32-14.336 32-32s-14.336-32-32-32zM352 192h-149.333c-17.664 0-32 14.336-32 32s14.336 32 32 32h149.333c17.664 0 32-14.336 32-32s-14.336-32-32-32zM352 64h-234.667c-64.725 0-117.333 52.606-117.333 117.332v661.335c0 64.725 52.608 117.333 117.333 117.333h490.667c64.726 0 117.332-52.608 117.332-117.333v-237.227c0-17.664-14.336-32-32-32s-32 14.336-32 32v237.227c0 29.397-23.934 53.333-53.332 53.333h-490.667c-29.397 0-53.333-23.936-53.333-53.333v-661.335c0-29.398 23.936-53.332 53.333-53.332h234.667c17.664 0 32-14.336 32-32s-14.336-32-32-32zM362.666 661.334c47.128 0 85.333 38.205 85.333 85.333s-38.205 85.333-85.333 85.333c-47.128 0-85.333-38.205-85.333-85.333s38.205-85.333 85.333-85.333zM501.332 448h-277.332c-17.664 0-32 14.336-32 32v21.332c0 64.725 52.608 117.333 117.334 117.333h106.666c64.726 0 117.332-52.608 117.332-117.333v-21.332c0-17.664-14.336-32-32-32zM746.668 490.664c-152.92 0-277.336-124.416-277.336-277.332s124.416-277.332 277.336-277.332c152.916 0 277.332 124.416 277.332 277.332s-124.416 277.332-277.332 277.332zM885.42 281.214l-149.336-170.668c-16.254-18.558-44.842-19.498-62.25-2.048l-85.332 85.336c-16.682 16.682-16.682 43.646 0 60.328 16.682 16.687 43.646 16.687 60.328 0l53.080-53.076 119.296 136.364c15.532 17.664 42.496 19.54 60.202 4.008 17.706-15.528 19.54-42.496 4.012-60.244v0z" />
<glyph unicode="&#xe91e;" glyph-name="top-up1" d="M511.997 960c-30.304 0-54.861-25.469-54.861-56.886v-542.099l-231.398 240.235c-22.367 23.204-58.603 23.204-80.97 0s-22.367-60.84 0-84.064l323.872-336.224c11.915-12.378 27.762-18.144 43.36-17.336 15.588-0.8 31.456 4.966 43.36 17.336l323.872 336.224c22.362 23.204 22.362 60.84 0 84.064-22.368 23.204-58.606 23.204-80.968 0l-231.405-240.238v542.102c0 31.417-24.554 56.886-54.861 56.886zM127.999-7.112c0 31.416 24.554 56.888 54.861 56.888h658.273c30.304 0 54.866-25.472 54.866-56.888s-24.558-56.888-54.866-56.888h-658.273c-30.304 0-54.861 25.472-54.861 56.888z" />
<glyph unicode="&#xe91f;" glyph-name="plus" d="M0.001 448c-0.071 18.196 5.107 35.772 14.522 49.296s22.391 22.027 36.395 23.846h916.506c15.010 0 29.397-7.706 40.004-21.423s16.572-32.321 16.572-51.72c0-19.399-5.965-38.003-16.572-51.72s-24.994-21.423-40.004-21.423h-916.506c-14.004 1.819-26.98 10.321-36.395 23.846s-14.593 31.101-14.522 49.296zM512 959.999c18.196 0.071 35.772-5.107 49.296-14.522s22.027-22.391 23.846-36.395v-916.506c0-15.010-7.706-29.397-21.423-40.004s-32.321-16.572-51.72-16.572c-19.399 0-38.003 5.965-51.72 16.572s-21.423 24.994-21.423 40.004v916.506c1.819 14.004 10.321 26.98 23.846 36.395s31.101 14.593 49.296 14.522z" />
<glyph unicode="&#xe920;" glyph-name="send" d="M457.143 252.952c0-30.298 24.561-54.859 54.857-54.859s54.857 24.561 54.857 54.859h-109.714zM512 886.857l38.79 38.79c-10.288 10.288-24.241 16.067-38.79 16.067s-28.502-5.78-38.79-16.067l38.79-38.79zM278.162 730.599c-21.423-21.423-21.423-56.156 0-77.58s56.157-21.423 77.58 0l-77.58 77.58zM668.258 653.019c21.423-21.423 56.156-21.423 77.58 0s21.424 56.157 0 77.58l-77.58-77.58zM268.191 344.381c30.297 0 54.857 24.561 54.857 54.857s-24.561 54.857-54.857 54.857v-109.714zM73.143 95.832v0zM755.807 454.095c-30.294 0-54.855-24.56-54.855-54.857s24.561-54.857 54.855-54.857v109.714zM950.857 95.832v0zM566.857 252.952v633.905h-109.714v-633.905h109.714zM473.21 925.647l-195.048-195.048 77.58-77.58 195.048 195.048-77.58 77.58zM473.21 848.067l195.048-195.048 77.58 77.58-195.048 195.048-77.58-77.58zM268.191 454.095h-117.027v-109.714h117.027v109.714zM151.164 454.095c-23.038 0-55.314-7.184-83.032-29.358-30.102-24.081-49.846-61.945-49.846-112.187h109.714c0 10.367 1.91 16.423 3.432 19.7 1.495 3.22 3.309 5.271 5.237 6.813 4.792 3.833 11.525 5.317 14.495 5.317v109.714zM18.286 312.55v-216.719h109.714v216.719h-109.714zM18.286 95.824c0.002-22.14 5.574-54.908 24.428-84.005 20.772-32.059 56.808-57.534 108.449-57.534v109.714c-6.792 0-9.939 1.47-11.24 2.216-1.494 0.856-3.243 2.341-5.138 5.266-2.006 3.094-3.821 7.307-5.1 12.281-1.286 4.996-1.686 9.435-1.686 12.069l-109.714-0.007zM755.807 344.381h117.029v109.714h-117.029v-109.714zM872.836 344.381c2.97 0 9.706-1.484 14.497-5.317 1.924-1.543 3.738-3.594 5.237-6.813 1.521-3.278 3.43-9.334 3.43-19.701h109.714c0 50.241-19.741 88.106-49.847 112.187-27.714 22.174-59.992 29.358-83.032 29.358v-109.714zM896 312.55v-216.719h109.714v216.719h-109.714zM896 95.832c0-2.633-0.402-7.073-1.69-12.069-1.273-4.974-3.087-9.187-5.098-12.281-1.894-2.926-3.643-4.411-5.135-5.266-1.302-0.746-4.447-2.216-11.242-2.216v-109.714c51.639 0 87.676 25.476 108.449 57.534 18.856 29.096 24.43 61.864 24.43 84.005l-109.714 0.007zM151.164-45.714h721.672v109.714h-721.672v-109.714z" />
<glyph unicode="&#xe921;" glyph-name="user-profile" d="M692.906 413.376c47.804 37.612 82.7 89.19 99.83 147.557 17.123 58.367 15.631 120.621-4.264 178.101-19.902 57.48-57.227 107.328-106.778 142.61s-108.867 54.24-169.695 54.24c-60.829 0-120.144-18.959-169.695-54.24s-86.873-85.13-106.775-142.61c-19.901-57.481-21.392-119.735-4.264-178.101s52.021-109.945 99.827-147.557c-81.916-32.818-153.391-87.251-206.804-157.496-53.414-70.243-86.764-153.669-96.495-241.375-0.704-6.407-0.141-12.88 1.659-19.068s4.8-11.959 8.83-16.984c8.139-10.152 19.976-16.655 32.909-18.074 12.932-1.426 25.901 2.348 36.051 10.489s16.652 19.975 18.075 32.907c10.707 95.32 56.158 183.355 127.669 247.284s164.068 99.268 259.988 99.268 188.477-35.34 259.991-99.268c71.504-63.929 116.955-151.964 127.664-247.284 1.331-11.981 7.044-23.047 16.048-31.064 9.011-8.009 20.663-12.405 32.717-12.332h5.361c12.785 1.47 24.466 7.936 32.505 17.979 8.038 10.050 11.776 22.864 10.408 35.657-9.779 87.962-43.308 171.593-96.995 241.949-53.687 70.352-125.513 124.769-207.767 157.413zM512 447.997c-38.577 0-76.287 11.44-108.363 32.871s-57.076 51.895-71.838 87.534c-14.762 35.64-18.625 74.858-11.099 112.694s26.102 72.589 53.38 99.867c27.278 27.278 62.032 45.855 99.868 53.38s77.053 3.664 112.693-11.099c35.64-14.762 66.102-39.762 87.534-71.838s32.872-69.786 32.872-108.363c0-51.73-20.55-101.341-57.128-137.919s-86.19-57.128-137.92-57.128z" />
<glyph unicode="&#xe922;" glyph-name="back-arrow" d="M804.564 521.143h-555.154l241.371 240.64c13.773 13.774 21.511 32.453 21.511 51.931s-7.738 38.159-21.511 51.931c-13.774 13.774-32.453 21.511-51.931 21.511s-38.159-7.737-51.931-21.511l-365.715-365.714c-6.659-6.956-11.879-15.159-15.36-24.137-7.316-17.807-7.316-37.781 0-55.589 3.481-8.978 8.701-17.181 15.36-24.137l365.715-365.714c6.799-6.853 14.889-12.295 23.802-16.011s18.473-5.625 28.129-5.625c9.656 0 19.215 1.909 28.129 5.625s17.003 9.157 23.803 16.011c6.856 6.802 12.297 14.892 16.010 23.801 3.713 8.916 5.625 18.476 5.625 28.131s-1.911 19.215-5.625 28.131c-3.713 8.909-9.155 16.998-16.010 23.801l-241.371 240.64h555.154c19.397 0 38.005 7.706 51.719 21.423s21.424 32.322 21.424 51.72c0 19.399-7.709 38.003-21.424 51.72s-32.322 21.423-51.719 21.423z" />
<glyph unicode="&#xe923;" glyph-name="close-circle" d="M512 866.908c-82.851 0-163.843-24.569-232.733-70.599s-122.582-111.455-154.288-188c-31.706-76.547-40.002-160.774-23.838-242.035s56.061-155.904 114.646-214.49c58.585-58.586 133.228-98.483 214.489-114.646s165.488-7.866 242.035 23.84c76.544 31.706 141.968 85.398 188 154.288 46.029 68.89 70.598 149.882 70.598 232.733 0 111.101-44.134 217.652-122.694 296.213-78.563 78.561-185.114 122.696-296.214 122.696zM0.001 448c0 101.264 30.028 200.254 86.288 284.452s136.223 149.822 229.778 188.574c93.556 38.752 196.5 48.891 295.819 29.136s190.55-68.519 262.154-140.123c71.603-71.604 120.368-162.834 140.125-262.154 19.754-99.318 9.616-202.262-29.136-295.818-38.752-93.558-104.378-173.52-188.576-229.779s-183.187-86.288-284.451-86.288c-135.792 0-266.020 53.942-362.039 149.962s-149.961 226.246-149.961 362.038zM284.858 228.771c-4.363 4.326-7.825 9.475-10.188 15.146-2.363 5.674-3.58 11.757-3.58 17.901s1.216 12.227 3.58 17.901c2.363 5.67 5.826 10.819 10.188 15.146l395.17 394.706c9.011 6.661 20.122 9.847 31.296 8.974 11.171-0.873 21.651-5.747 29.517-13.727 7.869-7.98 12.592-18.53 13.306-29.713s-2.63-22.247-9.421-31.162l-393.772-395.17c-4.326-4.362-9.475-7.827-15.149-10.189-5.67-2.362-11.754-3.581-17.9-3.581-6.144 0-12.228 1.219-17.9 3.581s-10.82 5.827-15.147 10.189zM265.774 694.225c8.721 8.669 20.518 13.535 32.815 13.535s24.092-4.866 32.816-13.535l395.17-394.704c8.762-8.765 13.686-20.653 13.686-33.046 0-12.397-4.925-24.285-13.686-33.050-8.765-8.765-20.653-13.686-33.050-13.686-12.394 0-24.282 4.922-33.046 13.686l-394.705 395.17c-8.669 8.723-13.535 20.519-13.535 32.815s4.866 24.094 13.535 32.815z" />
<glyph unicode="&#xe924;" glyph-name="arrow-down-curv" d="M148.016 705.262c-17.824 15.546-41.108 23.391-64.73 21.809s-45.644-12.462-61.227-30.246c-15.581-17.784-23.444-41.015-21.859-64.583s12.49-45.542 30.315-61.088l431.726-374.796c19.784-17.788 45.47-27.63 72.103-27.63s52.319 9.843 72.103 27.63l391.664 372.131c16.58 16.641 25.888 39.15 25.888 62.615s-9.309 45.973-25.888 62.614c-8.276 8.324-18.116 14.932-28.96 19.441-10.855 4.509-22.481 6.83-34.239 6.83-11.749 0-23.384-2.321-34.232-6.83s-20.692-11.116-28.968-19.441l-330.248-313.514c-4.061-3.56-9.282-5.523-14.688-5.523s-10.627 1.963-14.688 5.523l-364.074 325.060z" />
<glyph unicode="&#xe925;" glyph-name="export-scv" horiz-adv-x="967" d="M588.908 922.083c20.014 0 37.922-7.375 51.621-22.123l270.746-277.070c12.646-13.695 20.019-31.605 20.019-50.568v-520.428c0-43.196-34.765-77.961-77.961-77.961h-603.653c-43.193 0-77.959 34.765-77.959 77.961v79.013c-1.054 8.954 22.65 32.66 46.354 32.66s38.98-23.706 38.98-32.66v-68.477c0-2.111 2.107-4.215 4.214-4.215h581.529c2.111 0 4.215 2.105 4.215 4.215v505.678c0 12.642-10.536 23.177-23.177 23.177h-138.007c-43.196 0-77.961 34.765-77.961 77.959v145.383c0 12.642-10.536 23.177-23.177 23.177h-323.424c-2.107 0-4.214-2.107-4.214-4.214l0.002-267.061h435.093c28.444 0 50.569-23.177 50.569-50.568v-270.752c0-28.444-23.177-50.563-50.569-50.563h-613.134c-28.444 0-50.568 23.177-50.568 50.563v270.752c0 28.444 23.177 50.568 50.568 50.568h93.761l-0.002 277.597c0 43.193 34.765 77.959 77.959 77.959h338.174zM206.933 495.417c-72.647 0-131.078-43.653-131.078-122.089 0-65.479 42.747-114.95 125.743-114.95 29.211 0 51.645 5.126 61.622 9.91l-8.199 40.585c-10.683-4.096-28.852-7.498-45.223-7.498-48.459 0-76.947 28.979-76.947 75.025 0 51.148 33.473 76.026 76.574 76.026 19.229 0 34.56-4.087 45.596-8.503l11.054 41.259c-9.624 4.779-30.995 10.236-59.142 10.236zM292.809 426.164c0-33.413 25.995-54.548 65.892-67.849 28.848-9.882 40.253-18.057 40.261-32.387 0-15.019-13.185-24.912-38.114-24.912-23.162 0-45.598 7.151-60.211 14.33l-11.036-42.98c13.53-7.151 40.614-13.989 68.036-13.989 65.904 0 96.89 32.757 96.89 71.287 0 32.404-19.949 53.538-62.33 68.544-31.004 11.258-44.533 17.733-44.533 32.404 0 11.935 11.398 22.171 34.901 22.171 23.52 0 40.615-6.479 50.231-10.928l12.098 41.952c-14.238 6.151-34.186 11.608-61.264 11.608-56.634 0-90.82-30.016-90.82-69.253zM611.277 261.803h-63.406l-76.938 229.857h59.498l29.199-97.211c8.193-27.271 15.671-53.531 21.383-82.181h1.058c6.053 27.631 13.528 54.909 21.726 81.172l30.635 98.219h57.719l-80.873-229.857z" />
<glyph unicode="&#xe926;" glyph-name="more" horiz-adv-x="228" d="M0 846.222c0-62.838 50.94-113.778 113.778-113.778s113.778 50.94 113.778 113.778c0 62.838-50.94 113.778-113.778 113.778s-113.778-50.94-113.778-113.778zM113.778 334.222c-62.838 0-113.778 50.938-113.778 113.778 0 62.838 50.94 113.778 113.778 113.778s113.778-50.94 113.778-113.778c0-62.839-50.94-113.778-113.778-113.778zM113.778-64c-62.838 0-113.778 50.938-113.778 113.778s50.94 113.778 113.778 113.778c62.838 0 113.778-50.938 113.778-113.778s-50.94-113.778-113.778-113.778z" />
<glyph unicode="&#xe927;" glyph-name="search" d="M972.328 54.983l-175.883 174.461c68.272 85.123 101.336 193.169 92.393 301.922-8.949 108.752-59.221 209.944-140.487 282.769-81.26 72.824-187.338 111.745-296.417 108.761s-212.869-47.649-290.028-124.808c-77.159-77.159-121.823-180.949-124.808-290.028s35.937-215.155 108.761-296.421c72.825-81.26 174.016-131.533 282.769-140.481 108.752-8.943 216.8 24.121 301.923 92.388l174.461-174.455c4.403-4.443 9.648-7.97 15.428-10.377 5.774-2.406 11.969-3.647 18.227-3.647 6.263 0 12.459 1.24 18.233 3.647 5.78 2.406 11.019 5.934 15.428 10.377 8.545 8.841 13.323 20.651 13.323 32.944s-4.779 24.11-13.323 32.95zM464.595 163.544c-65.634 0-129.794 19.467-184.367 55.927-54.572 36.466-97.107 88.292-122.224 148.929-25.117 60.641-31.689 127.365-18.884 191.738s44.41 123.503 90.821 169.913c46.411 46.41 105.541 78.016 169.913 90.821s131.098 6.233 191.734-18.884c60.638-25.117 112.469-67.652 148.929-122.224 36.466-54.573 55.927-118.733 55.927-184.367 0-88.013-34.958-172.423-97.195-234.654-62.236-62.236-146.642-97.2-234.655-97.2z" />
<glyph unicode="&#xe928;" glyph-name="close" d="M602.175 448.055l402.91 402.311c12.039 12.044 18.805 28.379 18.805 45.412s-6.766 33.368-18.805 45.412c-12.047 12.044-28.379 18.81-45.407 18.81-17.035 0-33.368-6.766-45.407-18.81l-402.271-402.951-402.268 402.951c-12.043 12.044-28.377 18.81-45.407 18.81s-33.364-6.766-45.407-18.81c-12.043-12.044-18.808-28.379-18.808-45.412s6.766-33.368 18.808-45.412l402.908-402.311-402.908-402.311c-5.994-5.947-10.752-13.019-13.999-20.816-3.247-7.79-4.918-16.15-4.918-24.598 0-8.441 1.672-16.801 4.918-24.598 3.247-7.79 8.005-14.863 13.999-20.809 5.945-5.998 13.019-10.759 20.812-14 7.793-3.248 16.152-4.923 24.595-4.923s16.802 1.675 24.595 4.923c7.793 3.24 14.866 8.002 20.812 14l402.268 402.948 402.271-402.948c5.939-5.998 13.019-10.759 20.809-14 7.797-3.248 16.15-4.923 24.598-4.923 8.441 0 16.801 1.675 24.591 4.923 7.797 3.24 14.87 8.002 20.816 14 5.99 5.947 10.752 13.019 14 20.809 3.24 7.797 4.915 16.157 4.915 24.598 0 8.448-1.675 16.808-4.915 24.598-3.248 7.797-8.009 14.87-14 20.816l-402.91 402.311z" />
<glyph unicode="&#xe929;" glyph-name="star" d="M512.002 754.59l-68.152-205.806c-3.682-10.886-10.761-20.37-20.242-27.119s-20.885-10.423-32.611-10.507h-221.146l178.493-126.929c9.468-6.77 16.528-16.27 20.187-27.166s3.733-22.64 0.212-33.578l-68.152-205.804 178.492 127.379c9.627 6.656 21.127 10.227 32.917 10.227s23.289-3.571 32.917-10.227l178.494-127.379-68.153 205.804c-3.52 10.94-3.443 22.683 0.211 33.578 3.661 10.896 10.72 20.397 20.185 27.166l178.496 126.929h-221.146c-11.727 0.083-23.132 3.757-32.611 10.507s-16.559 16.233-20.242 27.119l-68.152 205.806zM459.149 890.586c3.658 10.883 10.737 20.36 20.227 27.078s20.908 10.335 32.625 10.335c11.717 0 23.134-3.617 32.625-10.335s16.569-16.194 20.227-27.078l95.506-288.763h308.307c11.719-0.062 23.117-3.74 32.57-10.508s16.48-16.284 20.077-27.188c3.597-10.904 3.584-22.641-0.045-33.535-3.622-10.896-10.675-20.392-20.147-27.137l-249.427-177.247 95.501-286.95c3.654-10.944 3.654-22.739 0.013-33.683-3.636-10.944-10.732-20.48-20.269-27.232s-21.011-10.374-32.781-10.342c-11.776 0.032-23.232 3.712-32.73 10.515l-249.427 177.696-249.427-177.248c-9.466-6.713-20.857-10.349-32.555-10.374s-23.105 3.559-32.602 10.234c-9.498 6.675-16.601 16.109-20.302 26.957s-3.809 22.567-0.311 33.478l95.505 286.496-249.426 177.7c-9.472 6.745-16.524 16.242-20.151 27.137s-3.642 22.631-0.045 33.535c3.597 10.904 10.624 20.42 20.078 27.188s20.853 10.447 32.571 10.508h308.307l95.505 288.763z" />
<glyph unicode="&#xe92a;" glyph-name="refresh" d="M524.493 857.6c-72.452 0-140.259-19.718-198.755-54.168-65.022-38.294-118.563-94.814-153.956-162.713-13.001-24.94-43.265-34.356-67.596-21.030s-33.517 44.346-20.516 69.286c44.233 84.855 111.073 155.407 192.299 203.244 73.236 43.132 158.148 67.78 248.525 67.78 275.872 0 499.506-229.23 499.506-511.999s-223.635-511.999-499.506-511.999c-227.798 0-419.859 156.256-479.977 369.805-7.649 27.169 7.638 55.548 34.144 63.388s54.193-7.829 61.841-34.998c48.109-170.893 201.885-295.795 383.993-295.795 220.698 0 399.602 183.386 399.602 409.599 0 226.216-178.906 409.599-399.602 409.599zM357.763 666.056c-7.14 27.314-34.53 43.523-61.177 36.204l-156.453-42.97-41.921 160.366c-7.14 27.314-34.53 43.523-61.177 36.204s-42.461-35.393-35.321-62.707l48.386-185.094c10.71-40.97 51.795-65.284 91.766-54.306l180.577 49.596c26.647 7.318 42.461 35.393 35.32 62.707z" />
<glyph unicode="&#xe92b;" glyph-name="dispute" d="M884.364 896h-744.727c-37.034 0-72.551-15.177-98.738-42.192s-40.898-63.654-40.898-101.86v-432.154c0-18.917 3.612-37.649 10.629-55.126 7.017-17.475 17.303-33.359 30.27-46.735s28.36-23.987 45.301-31.225c16.942-7.238 35.1-10.963 53.437-10.963h69.818l107.054-146.931c6.504-8.947 14.936-16.211 24.631-21.21s20.385-7.603 31.223-7.603c10.839 0 21.529 2.605 31.223 7.603s18.127 12.262 24.631 21.21l107.054 146.931h349.091c37.030 0 72.551 15.174 98.739 42.189 26.183 27.015 40.896 63.656 40.896 101.861v432.154c0 18.917-3.609 37.649-10.63 55.126-7.014 17.477-17.3 33.358-30.265 46.734s-28.365 23.987-45.306 31.226c-16.941 7.239-35.098 10.965-53.434 10.965zM930.91 319.794c0-12.735-4.909-24.948-13.639-33.953-8.723-9.005-20.563-14.063-32.909-14.063h-395.637l-116.364-159.899-116.364 159.899h-116.364c-12.345 0-24.183 5.058-32.912 14.063s-13.632 21.219-13.632 33.953v432.154c0 12.735 4.903 24.948 13.632 33.953s20.568 14.063 32.912 14.063h744.727c12.345 0 24.186-5.058 32.909-14.063 8.73-9.005 13.639-21.219 13.639-33.953v-432.154zM232.727 607.897h232.727c12.344 0 24.183 5.059 32.912 14.064s13.632 21.219 13.632 33.953c0 12.735-4.903 24.949-13.632 33.953s-20.569 14.064-32.912 14.064h-232.727c-12.344 0-24.183-5.059-32.912-14.064s-13.632-21.219-13.632-33.953c0-12.735 4.903-24.949 13.632-33.953s20.569-14.064 32.912-14.064zM744.729 511.863h-512.002c-12.344 0-24.183-5.059-32.912-14.064s-13.632-21.219-13.632-33.953c0-12.736 4.903-24.949 13.632-33.953s20.569-14.064 32.912-14.064h512.002c12.339 0 24.179 5.059 32.909 14.064s13.632 21.218 13.632 33.953c0 12.735-4.903 24.948-13.632 33.953s-20.569 14.064-32.909 14.064z" />
<glyph unicode="&#xe92c;" glyph-name="copy" horiz-adv-x="922" d="M921.6 604.672c-0.532 4.704-1.562 9.337-3.072 13.824v4.608c-2.463 5.264-5.745 10.103-9.728 14.336l-307.2 307.2c-4.234 3.983-9.073 7.266-14.336 9.728-1.526 0.217-3.077 0.217-4.608 0-5.202 2.983-10.947 4.898-16.896 5.632h-207.36c-40.737 0-79.806-16.183-108.612-44.988s-44.988-67.874-44.988-108.612v-51.2h-51.2c-40.737 0-79.806-16.183-108.612-44.988s-44.988-67.874-44.988-108.612v-512c0-40.735 16.183-79.805 44.988-108.611s67.874-44.989 108.612-44.989h409.6c40.735 0 79.805 16.184 108.611 44.989s44.989 67.876 44.989 108.611v51.2h51.2c40.735 0 79.805 16.184 108.611 44.989s44.989 67.876 44.989 108.611v307.2c0 0 0 0 0 3.072zM614.4 785.408l132.608-132.608h-81.408c-13.578 0-26.604 5.394-36.204 14.996s-14.996 22.625-14.996 36.204v81.408zM614.4 89.6c0-13.578-5.396-26.604-14.996-36.204s-22.625-14.996-36.204-14.996h-409.6c-13.579 0-26.602 5.396-36.204 14.996s-14.996 22.625-14.996 36.204v512c0 13.579 5.394 26.602 14.996 36.204s22.625 14.996 36.204 14.996h51.2v-358.4c0-40.735 16.183-79.805 44.988-108.611s67.874-44.989 108.612-44.989h256v-51.2zM819.2 294.4c0-13.578-5.396-26.604-14.996-36.204s-22.625-14.996-36.204-14.996h-409.6c-13.579 0-26.602 5.396-36.204 14.996s-14.996 22.625-14.996 36.204v512c0 13.579 5.394 26.602 14.996 36.204s22.625 14.996 36.204 14.996h153.6v-153.6c0-40.737 16.184-79.806 44.989-108.612s67.876-44.988 108.611-44.988h153.6v-256z" />
<glyph unicode="&#xe92d;" glyph-name="print" d="M256 550.4c-10.127 0-20.026-3.003-28.445-8.628s-14.982-13.622-18.857-22.978c-3.875-9.356-4.89-19.651-2.914-29.582s6.852-19.055 14.012-26.216c7.161-7.16 16.284-12.036 26.216-14.012s20.227-0.961 29.582 2.914c9.356 3.875 17.352 10.437 22.978 18.857s8.628 18.319 8.628 28.445c0 13.579-5.395 26.602-14.996 36.204s-22.625 14.996-36.204 14.996zM870.4 755.2h-51.2v153.6c0 13.579-5.395 26.602-14.995 36.204s-22.624 14.996-36.205 14.996h-512c-13.579 0-26.602-5.394-36.204-14.996s-14.996-22.625-14.996-36.204v-153.6h-51.2c-40.737 0-79.806-16.183-108.612-44.988s-44.988-67.875-44.988-108.612v-307.2c0-40.736 16.183-79.808 44.988-108.614 28.806-28.8 67.874-44.986 108.612-44.986h51.2v-153.6c0-13.581 5.395-26.605 14.996-36.205s22.625-14.995 36.204-14.995h512c13.581 0 26.605 5.395 36.205 14.995s14.995 22.624 14.995 36.205v153.6h51.2c40.736 0 79.808 16.186 108.614 44.986 28.8 28.806 44.986 67.878 44.986 108.614v307.2c0 40.737-16.186 79.806-44.986 108.612-28.806 28.805-67.878 44.988-108.614 44.988zM307.2 857.6h409.6v-102.4h-409.6v102.4zM716.8 38.4h-409.6v204.8h409.6v-204.8zM921.6 294.4c0-13.581-5.395-26.605-14.995-36.205s-22.624-14.995-36.205-14.995h-51.2v51.2c0 13.581-5.395 26.602-14.995 36.204s-22.624 14.996-36.205 14.996h-512c-13.579 0-26.602-5.395-36.204-14.996s-14.996-22.623-14.996-36.204v-51.2h-51.2c-13.579 0-26.602 5.395-36.204 14.995s-14.996 22.624-14.996 36.205v307.2c0 13.579 5.395 26.602 14.996 36.204s22.625 14.996 36.204 14.996h716.8c13.581 0 26.605-5.395 36.205-14.996s14.995-22.625 14.995-36.204v-307.2z" />
<glyph unicode="&#xe92e;" glyph-name="share" d="M819.264 344.939c-30.24-0.2-60.058-7.087-87.315-20.168-27.258-13.084-51.277-32.028-70.33-55.484l-261.033 120.124c12.273 37.533 12.273 77.992 0 115.526l261.033 120.125c30.797-37.109 73.722-62.163 121.21-70.738s96.486-0.122 138.342 23.868c41.856 23.99 73.875 61.976 90.419 107.252s16.538 94.933-0.013 140.207c-16.55 45.273-48.582 83.253-90.438 107.236-41.862 23.983-90.854 32.428-138.342 23.843s-90.413-33.645-121.197-70.76c-30.788-37.115-47.457-83.898-47.067-132.092 0.154-12.178 1.352-24.32 3.583-36.294l-270.248-124.215c-28.812 28.136-65.297 47.155-104.884 54.674s-80.516 3.203-117.658-12.406c-37.142-15.61-68.846-41.819-91.14-75.343s-34.185-72.875-34.185-113.119c0-40.245 11.892-79.595 34.185-113.12 22.294-33.523 53.998-59.731 91.14-75.34s78.071-19.93 117.658-12.41c39.587 7.52 76.072 26.541 104.884 54.675l270.248-124.218c-2.23-11.974-3.429-24.115-3.583-36.294 0-40.435 12.007-79.968 34.504-113.594s54.47-59.834 91.878-75.309c37.414-15.475 78.579-19.526 118.291-11.635 39.718 7.891 76.198 27.36 104.826 55.955 28.634 28.602 48.134 65.030 56.032 104.698 7.904 39.661 3.846 80.774-11.648 118.131-15.494 37.363-41.734 69.299-75.405 91.763-33.67 22.47-73.254 34.462-113.747 34.462zM819.264 856.112c20.25 0 40.038-5.996 56.877-17.229 16.832-11.234 29.952-27.201 37.702-45.882 7.744-18.681 9.773-39.237 5.824-59.069s-13.702-38.048-28.019-52.346c-14.31-14.298-32.55-24.035-52.41-27.98s-40.442-1.92-59.149 5.818c-18.701 7.738-34.688 20.842-45.939 37.654-11.245 16.812-17.248 36.579-17.248 56.799 0 27.114 10.784 53.118 29.978 72.291 19.2 19.172 45.235 29.944 72.384 29.944zM205.066 344.939c-20.246 0-40.038 5.996-56.872 17.229s-29.955 27.201-37.702 45.882c-7.748 18.681-9.775 39.237-5.825 59.069s13.699 38.048 28.015 52.346c14.316 14.298 32.557 24.035 52.413 27.98s40.44 1.92 59.145-5.818c18.705-7.738 34.692-20.842 45.941-37.654s17.252-36.579 17.252-56.798c0-27.115-10.785-53.119-29.983-72.291s-45.235-29.944-72.384-29.944zM819.264 38.234c-20.243 0-40.038 5.997-56.87 17.229-16.832 11.238-29.952 27.2-37.702 45.882-7.744 18.682-9.773 39.238-5.824 59.072 3.949 19.827 13.696 38.048 28.013 52.346s32.557 24.032 52.416 27.981c19.859 3.942 40.442 1.92 59.142-5.818 18.707-7.738 34.694-20.845 45.946-37.658 11.245-16.813 17.248-36.576 17.248-56.8 0-27.11-10.784-53.114-29.984-72.288-19.194-19.174-45.235-29.946-72.384-29.946z" />
<glyph unicode="&#xe92f;" glyph-name="calendar" d="M853.241 838.096h-97.529v48.762c0 12.932-5.135 25.335-14.277 34.48-9.15 9.145-21.549 14.282-34.482 14.282s-25.336-5.137-34.48-14.282c-9.144-9.145-14.282-21.547-14.282-34.48v-48.762h-292.571v48.762c0 12.932-5.138 25.335-14.282 34.48s-21.548 14.282-34.48 14.282c-12.932 0-25.335-5.137-34.48-14.282s-14.283-21.547-14.283-34.48v-48.762h-97.524c-38.797 0-76.006-15.412-103.44-42.846s-42.846-64.642-42.846-103.44v-585.139c0-38.802 15.412-76.010 42.846-103.446 27.434-27.429 64.642-42.84 103.44-42.84h682.669c38.795 0 76.003 15.411 103.439 42.84 27.436 27.436 42.847 64.644 42.847 103.446v585.139c0 38.798-15.411 76.006-42.847 103.44s-64.644 42.846-103.439 42.846zM901.998 106.672c0-12.939-5.135-25.337-14.277-34.487-9.15-9.143-21.548-14.277-34.48-14.277h-682.669c-12.932 0-25.335 5.135-34.48 14.277-9.145 9.15-14.283 21.548-14.283 34.487v341.33h780.189v-341.33zM901.998 545.525h-780.189v146.286c0 12.932 5.138 25.335 14.283 34.48s21.547 14.282 34.48 14.282h97.524v-48.762c0-12.932 5.138-25.335 14.283-34.48s21.547-14.282 34.48-14.282c12.932 0 25.335 5.137 34.48 14.282s14.282 21.547 14.282 34.48v48.762h292.571v-48.762c0-12.932 5.138-25.335 14.282-34.48s21.547-14.282 34.48-14.282c12.932 0 25.332 5.137 34.482 14.282 9.143 9.144 14.277 21.547 14.277 34.48v48.762h97.529c12.932 0 25.329-5.138 34.48-14.282 9.143-9.145 14.277-21.548 14.277-34.48v-146.286z" />
<glyph unicode="&#xe930;" glyph-name="merchant" d="M684.859 414.799c45.863 36.082 79.339 85.564 95.769 141.559 16.434 55.995 15.002 115.718-4.089 170.863-19.095 55.144-54.901 102.967-102.434 136.813-47.537 33.846-104.446 52.036-162.8 52.036-58.357 0-115.262-18.189-162.799-52.036s-83.342-81.67-102.434-136.813c-19.093-55.144-20.522-114.868-4.091-170.863s49.908-105.478 95.77-141.559c-78.587-31.483-147.158-83.704-198.399-151.095s-83.237-147.422-92.574-231.567c-0.676-6.142-0.134-12.359 1.592-18.296 1.727-5.931 4.605-11.471 8.472-16.288 7.808-9.739 19.164-15.975 31.572-17.341s24.848 2.255 34.586 10.063c9.737 7.807 15.975 19.167 17.34 31.573 10.272 91.446 53.876 175.903 122.481 237.231s157.401 95.234 249.422 95.234c92.021 0 180.814-33.906 249.422-95.234 68.603-61.329 112.207-145.785 122.48-237.231 1.273-11.493 6.754-22.113 15.395-29.798 8.641-7.69 19.821-11.905 31.384-11.835h5.146c12.262 1.413 23.47 7.611 31.18 17.253 7.714 9.637 11.302 21.931 9.987 34.206-9.379 84.382-41.545 164.619-93.055 232.113-51.505 67.494-120.408 119.696-199.321 151.016zM511.306 448.013c-37.009 0-73.188 10.976-103.96 31.534-30.772 20.562-54.756 49.786-68.918 83.978s-17.868 71.815-10.648 108.113c7.22 36.298 25.042 69.639 51.211 95.808s59.511 43.991 95.808 51.211c36.298 7.22 73.921 3.515 108.112-10.648s63.415-38.147 83.979-68.919c20.56-30.773 31.534-66.95 31.534-103.958 0-49.628-19.713-97.221-54.808-132.315-35.090-35.093-82.684-54.806-132.313-54.806zM511.306 167.332c0 25.837 20.943 46.779 46.779 46.779h93.561c25.837 0 46.779-20.943 46.779-46.779s-20.943-46.779-46.779-46.779h-93.561c-25.837 0-46.779 20.943-46.779 46.779z" />
<glyph unicode="&#xe931;" glyph-name="user" d="M683.994 414.966c45.633 35.901 78.941 85.134 95.288 140.848 16.351 55.714 14.927 115.138-4.068 170.006-19 54.868-54.626 102.45-101.921 136.127-47.299 33.677-103.922 51.775-161.983 51.775-58.064 0-114.683-18.098-161.982-51.775s-82.924-81.26-101.921-136.127c-18.997-54.868-20.419-114.292-4.070-170.006s49.657-104.948 95.289-140.848c-78.193-31.33-146.419-83.288-197.404-150.337-50.986-67.053-82.82-146.683-92.109-230.405-0.672-6.111-0.134-12.297 1.584-18.204 1.718-5.902 4.582-11.413 8.429-16.207 7.769-9.691 19.068-15.895 31.413-17.254s24.723 2.243 34.412 10.012c9.689 7.768 15.895 19.070 17.253 31.414 10.22 90.987 53.605 175.020 121.866 236.041s156.611 94.757 248.171 94.757c91.56 0 179.907-33.736 248.171-94.757 68.259-61.021 111.644-145.054 121.865-236.041 1.266-11.436 6.721-22.002 15.318-29.649 8.597-7.652 19.721-11.846 31.227-11.776h5.12c12.2 1.401 23.352 7.573 31.023 17.161 7.675 9.593 11.245 21.825 9.937 34.039-9.332 83.959-41.337 163.793-92.588 230.949-51.247 67.156-119.803 119.096-198.321 150.258zM511.311 448.013c-36.824 0-72.82 10.92-103.438 31.376-30.617 20.458-54.481 49.536-68.572 83.556s-17.779 71.456-10.595 107.571c7.184 36.116 24.916 69.29 50.954 95.328s59.212 43.77 95.328 50.954c36.116 7.184 73.55 3.497 107.57-10.595s63.097-37.955 83.558-68.573c20.457-30.618 31.376-66.614 31.376-103.437 0-49.379-19.614-96.734-54.533-131.651-34.914-34.916-82.269-54.53-131.649-54.53z" />
<glyph unicode="&#xe932;" glyph-name="users-alt" d="M526.678 437.747c24.87 21.527 44.818 48.152 58.489 78.068s20.745 62.424 20.745 95.316c0 61.806-24.553 121.082-68.258 164.786-43.7 43.705-102.977 68.257-164.785 68.257s-121.082-24.553-164.786-68.257c-43.705-43.705-68.257-102.979-68.257-164.786-0.001-32.892 7.076-65.399 20.747-95.316s33.618-56.541 58.488-78.068c-65.245-29.545-120.601-77.253-159.449-137.425-38.847-60.176-59.543-130.261-59.612-201.885 0-12.361 4.911-24.217 13.651-32.957s20.596-13.652 32.958-13.652c12.362 0 24.217 4.912 32.958 13.652s13.651 20.596 13.651 32.957c0 74.168 29.463 145.297 81.908 197.742 52.445 52.448 123.575 81.91 197.743 81.91s145.297-29.461 197.742-81.91c52.448-52.444 81.91-123.573 81.91-197.742 0-12.361 4.912-24.217 13.652-32.957s20.596-13.652 32.957-13.652c12.361 0 24.217 4.912 32.957 13.652s13.652 20.596 13.652 32.957c-0.069 71.623-20.764 141.709-59.613 201.885-38.848 60.172-94.2 107.881-159.448 137.425zM372.871 471.305c-27.654 0-54.688 8.201-77.683 23.565s-40.916 37.202-51.499 62.752c-10.583 25.55-13.352 53.665-7.957 80.788s18.713 52.038 38.268 71.593c19.555 19.555 44.47 32.873 71.593 38.268s55.237 2.626 80.788-7.957c25.55-10.583 47.389-28.505 62.751-51.499 15.366-22.994 23.565-50.028 23.565-77.683 0-37.085-14.734-72.649-40.955-98.872s-61.787-40.954-98.871-40.954zM826.838 456.39c29.829 33.589 49.312 75.084 56.108 119.489s0.61 89.827-17.805 130.8c-18.419 40.972-48.287 75.749-86.007 100.142-37.725 24.394-81.691 37.366-126.613 37.353-12.361 0-24.217-4.911-32.957-13.651s-13.652-20.595-13.652-32.958c0-12.362 4.912-24.217 13.652-32.958s20.596-13.651 32.957-13.651c37.082 0 72.649-14.731 98.871-40.954s40.955-61.788 40.955-98.872c-0.065-24.48-6.557-48.515-18.825-69.699-12.272-21.185-29.885-38.776-51.088-51.016-6.913-3.985-12.682-9.679-16.76-16.534-4.082-6.855-6.334-14.643-6.544-22.618-0.196-7.912 1.626-15.744 5.299-22.758 3.668-7.013 9.061-12.975 15.675-17.326l18.178-12.118 6.059-3.263c56.182-26.646 103.578-68.794 136.61-121.476 33.027-52.682 50.314-113.706 49.824-175.887 0-12.361 4.912-24.217 13.652-32.957s20.596-13.652 32.957-13.652c12.361 0 24.217 4.912 32.957 13.652s13.652 20.596 13.652 32.957c0.382 71.526-17.534 141.956-52.038 204.608-34.509 62.651-84.464 115.44-145.116 153.347z" />
<glyph unicode="&#xe933;" glyph-name="dropdown" d="M0 842.971c0 36.355 28.654 65.829 64 65.829h896c35.348 0 64-29.472 64-65.829s-28.651-65.829-64-65.829h-896c-35.347 0-64 29.473-64 65.829zM0 448c0 36.356 28.654 65.829 64 65.829h896c35.348 0 64-29.472 64-65.829s-28.651-65.828-64-65.828h-896c-35.347 0-64 29.471-64 65.828zM0 53.028c0 36.357 28.654 65.828 64 65.828h576c35.348 0 64-29.47 64-65.828s-28.651-65.828-64-65.828h-576c-35.347 0-64 29.47-64 65.828z" />
<glyph unicode="&#xe934;" glyph-name="arrow-up-curv" d="M148.016 190.738c-17.824-15.546-41.108-23.391-64.73-21.809s-45.644 12.462-61.227 30.246c-15.581 17.784-23.444 41.015-21.859 64.583s12.49 45.542 30.315 61.088l431.726 374.796c19.784 17.788 45.47 27.63 72.103 27.63s52.319-9.843 72.103-27.63l391.664-372.131c16.58-16.641 25.888-39.15 25.888-62.615s-9.309-45.973-25.888-62.614c-8.276-8.324-18.116-14.932-28.96-19.441-10.855-4.509-22.481-6.83-34.239-6.83-11.749 0-23.384 2.321-34.232 6.83s-20.692 11.116-28.968 19.441l-330.248 313.514c-4.061 3.56-9.282 5.523-14.688 5.523s-10.627-1.963-14.688-5.523l-364.074-325.060z" />
<glyph unicode="&#xe935;" glyph-name="withdrawal" horiz-adv-x="981" d="M305.757 611.16c0 34.122 16.056 64.525 38.053 84.998 16.645 14.888 36.864 24.818 58.861 29.162v12.409c0 25.433 19.621 46.532 44.593 46.532 24.372 0 44.593-21.099 44.593-46.532v-9.93h19.621c24.969 0 44.589-20.473 44.589-46.531 0-25.433-19.621-46.531-44.589-46.531h-83.833c-10.704 0-19.622-3.72-24.973-8.69-5.941-5.584-7.14-9.93-7.728-14.888 0.6-4.345 1.787-9.304 7.728-14.274 5.352-4.959 14.268-9.304 24.973-9.304h38.639c32.1 0 61.838-11.784 84.422-32.257 21.996-19.847 38.051-50.251 37.454-84.373 0.597-34.122-15.457-64.525-37.454-84.998-16.644-14.89-36.865-24.82-58.861-29.161v-12.408c0-26.060-20.221-46.534-44.593-46.534-24.971 0-44.591 20.473-44.591 46.534v9.926h-19.621c-24.972 0-44.592 20.477-44.592 46.534 0 25.434 19.621 46.53 44.592 46.53h83.235c11.29 0 20.217 3.72 25.558 8.688 5.941 5.587 7.14 9.934 7.14 14.89 0 4.347-1.186 9.303-7.14 14.276-5.348 4.956-14.267 9.303-25.558 9.303h-38.643c-31.512 0-61.236 11.785-83.831 32.258-21.986 19.858-38.042 50.249-38.042 84.372zM729.675 817.759c73.725-5.585 133.174-62.046 147.446-135.863 9.516 12.409 14.864 28.538 14.864 45.291v62.034c0 21.099-8.326 40.321-21.996 54.595-13.679 14.274-32.1 22.952-52.318 22.952h-87.997v-49.011zM479.373 29.232h237.823c41.028 0 74.314 34.745 74.314 77.547v540.994c0 38.467-26.76 69.484-61.834 75.694v-446.078c0-94.301-73.132-170.611-163.504-170.611h-161.124c0-42.811 33.298-77.547 74.327-77.547zM164.851 649.628v217.142h-1.189c-41.616 0-74.317-34.748-74.317-77.549v-62.046c0-42.812 32.7-77.549 74.317-77.549h1.189zM328.353 199.843h237.818c41.028 0 74.318 34.745 74.318 77.547v589.38h-386.452v-589.38c0-42.811 33.289-77.547 74.317-77.547zM479.373-63.832c-90.371 0-163.5 76.31-163.5 170.611v0.627c-84.421 6.825-151.021 80.025-151.021 169.983v279.175h-1.189c-90.961 0-163.501 76.935-163.501 170.611v62.046c0 93.677 72.54 170.611 163.501 170.611h654.009c90.372 0 163.5-76.309 163.5-170.611v-62.046c0-70.724-41.028-130.904-100.477-156.961v-463.435c0-94.301-73.128-170.611-163.5-170.611h-237.823z" />
<glyph unicode="&#xe936;" glyph-name="smile" d="M632.831 333.824c-34.226-27.595-76.866-42.644-120.832-42.644s-86.606 15.049-120.832 42.644c-10.456 8.691-23.936 12.872-37.474 11.623s-26.026-7.824-34.717-18.279c-8.691-10.456-12.872-23.936-11.623-37.474s7.824-26.027 18.279-34.717c52.293-43.655 118.25-67.562 186.368-67.562s134.075 23.907 186.368 67.562c10.456 8.69 17.031 21.178 18.279 34.717s-2.933 27.019-11.623 37.474c-4.303 5.178-9.583 9.455-15.54 12.593s-12.473 5.068-19.177 5.687c-13.539 1.248-27.019-2.933-37.474-11.623v0zM358.399 499.201c10.126 0 20.026 3.002 28.445 8.629s14.982 13.622 18.857 22.978c3.876 9.355 4.889 19.65 2.914 29.582s-6.852 19.054-14.013 26.215c-7.16 7.16-16.283 12.037-26.215 14.012s-20.226 0.962-29.582-2.914c-9.355-3.876-17.352-10.437-22.978-18.857s-8.629-18.318-8.629-28.445c0-13.579 5.395-26.602 14.997-36.204s22.624-14.996 36.204-14.996zM665.599 601.6c-10.126 0-20.026-3.003-28.445-8.629s-14.982-13.623-18.857-22.978c-3.876-9.355-4.889-19.65-2.914-29.582s6.852-19.054 14.013-26.215c7.16-7.161 16.283-12.037 26.215-14.012s20.227-0.962 29.582 2.913c9.355 3.876 17.352 10.438 22.978 18.857s8.629 18.319 8.629 28.445c0 13.579-5.395 26.602-14.997 36.204s-22.624 14.996-36.204 14.996zM511.999 959.999c-101.264 0-200.253-30.028-284.452-86.288s-149.822-136.222-188.574-229.778c-38.752-93.555-48.891-196.502-29.135-295.819s68.519-190.544 140.123-262.152c71.605-71.6 162.834-120.369 262.152-140.121 99.318-19.761 202.264-9.615 295.819 29.137 93.556 38.746 173.52 104.371 229.776 188.567 56.263 84.201 86.292 183.191 86.292 284.455 0 67.237-13.248 133.815-38.976 195.934s-63.444 118.561-110.991 166.104c-47.539 47.544-103.979 85.257-166.101 110.988-62.118 25.73-128.696 38.974-195.934 38.974v0zM511.999 38.4c-81.010 0-160.203 24.023-227.561 69.028-67.358 45.012-119.857 108.979-150.859 183.826-31.001 74.845-39.112 157.2-23.308 236.656s54.814 152.438 112.098 209.721c57.284 57.285 130.267 96.294 209.722 112.099s161.811 7.693 236.656-23.308c74.843-31.002 138.817-83.501 183.822-150.859s69.028-146.55 69.028-227.561c0-108.633-43.154-212.816-119.968-289.631s-180.995-119.968-289.627-119.968v0z" />
<glyph unicode="&#xe937;" glyph-name="trash-loose" d="M921.594 755.2h-204.797v51.2c0 40.737-16.184 79.806-44.988 108.612s-67.874 44.988-108.611 44.988h-102.4c-40.737 0-79.806-16.183-108.611-44.988s-44.988-67.874-44.988-108.612v-51.2h-204.799c-13.578 0-26.601-5.395-36.204-14.996s-14.996-22.624-14.996-36.204c0-13.578 5.394-26.601 14.996-36.204s22.624-14.996 36.204-14.996h51.2v-563.2c0-40.735 16.184-79.803 44.988-108.611s67.874-44.989 108.611-44.989h409.6c40.737 0 79.806 16.181 108.613 44.989s44.989 67.876 44.989 108.611v563.2h51.195c13.578 0 26.603 5.395 36.204 14.996 9.607 9.601 15 22.624 15 36.204s-5.392 26.601-15 36.204c-9.6 9.601-22.625 14.996-36.204 14.996zM409.598 806.4c0 13.578 5.394 26.601 14.996 36.204s22.624 14.996 36.204 14.996h102.4c13.578 0 26.601-5.394 36.204-14.996s14.996-22.624 14.996-36.204v-51.2h-204.799v51.2zM767.996 89.601c0-13.578-5.394-26.603-14.996-36.204s-22.624-15-36.204-15h-409.6c-13.578 0-26.601 5.399-36.204 15s-14.996 22.625-14.996 36.204v563.2h511.999v-563.2z" />
<glyph unicode="&#xe938;" glyph-name="logout" horiz-adv-x="768" d="M0 448c0-12.73 5.057-24.94 14.059-33.941s21.211-14.059 33.941-14.059h364.32l-110.4-109.92c-4.499-4.461-8.070-9.773-10.507-15.622s-3.692-12.122-3.692-18.458c0-6.336 1.254-12.608 3.692-18.458s6.008-11.162 10.507-15.622c4.462-4.499 9.771-8.070 15.62-10.509 5.849-2.432 12.123-3.686 18.46-3.686s12.611 1.254 18.46 3.686c5.85 2.438 11.158 6.010 15.62 10.509l192 192c4.37 4.565 7.795 9.948 10.080 15.84 4.801 11.686 4.801 24.794 0 36.48-2.285 5.892-5.71 11.275-10.080 15.84l-192 192c-4.476 4.476-9.789 8.026-15.636 10.447s-12.115 3.669-18.444 3.669c-6.329 0-12.596-1.247-18.444-3.669s-11.16-5.972-15.636-10.447c-4.476-4.476-8.026-9.789-10.447-15.636s-3.669-12.115-3.669-18.444c0-6.329 1.247-12.596 3.669-18.444s5.972-11.16 10.447-15.636l110.4-109.92h-364.32c-12.73 0-24.939-5.057-33.941-14.059s-14.059-21.211-14.059-33.941zM624 928h-480c-38.191 0-74.818-15.171-101.823-42.177s-42.177-63.632-42.177-101.823v-144c0-12.73 5.057-24.94 14.059-33.941s21.211-14.059 33.941-14.059c12.73 0 24.94 5.057 33.941 14.059s14.059 21.211 14.059 33.941v144c0 12.73 5.057 24.94 14.059 33.941s21.211 14.059 33.941 14.059h480c12.73 0 24.941-5.057 33.939-14.059 9.005-9.002 14.061-21.211 14.061-33.941v-672c0-12.73-5.056-24.941-14.061-33.939-8.998-9.005-21.209-14.061-33.939-14.061h-480c-12.73 0-24.94 5.056-33.941 14.061-9.002 8.998-14.059 21.21-14.059 33.939v144c0 12.73-5.057 24.941-14.059 33.939-9.002 9.005-21.211 14.061-33.941 14.061s-24.939-5.056-33.941-14.061c-9.002-8.998-14.059-21.21-14.059-33.939v-144c0-38.189 15.171-74.816 42.177-101.824 27.005-27.002 63.632-42.176 101.823-42.176h480c38.189 0 74.816 15.174 101.824 42.176 27.002 27.008 42.176 63.635 42.176 101.824v672c0 38.191-15.174 74.818-42.176 101.823-27.008 27.005-63.635 42.177-101.824 42.177z" />
<glyph unicode="&#xe939;" glyph-name="notification" horiz-adv-x="768" d="M672 391.36v152.64c-0.070 68.010-24.205 133.802-68.131 185.723s-104.81 86.622-171.869 97.957v52.32c0 12.73-5.057 24.939-14.059 33.941s-21.211 14.059-33.941 14.059c-12.73 0-24.94-5.057-33.941-14.059s-14.059-21.211-14.059-33.941v-52.32c-67.059-11.335-127.943-46.036-171.869-97.957s-68.061-117.713-68.131-185.723v-152.64c-28.010-9.903-52.272-28.227-69.459-52.461-17.187-24.23-26.458-53.19-26.541-82.899v-96c0-12.73 5.057-24.941 14.059-33.939 9.002-9.005 21.211-14.061 33.941-14.061h150.72c11.053-40.672 35.184-76.582 68.669-102.176 33.484-25.6 74.462-39.469 116.611-39.469s83.127 13.869 116.611 39.469c33.485 25.594 57.615 61.504 68.669 102.176h150.72c12.73 0 24.941 5.056 33.939 14.061 9.005 8.998 14.061 21.21 14.061 33.939v96c-0.083 29.709-9.357 58.669-26.541 82.899-17.184 24.234-41.446 42.558-69.459 52.461zM192 544c0 50.922 20.228 99.757 56.236 135.764s84.843 56.236 135.764 56.236c50.922 0 99.757-20.228 135.764-56.236s56.236-84.843 56.236-135.764v-144h-384v144zM384 64c-16.753 0.102-33.188 4.582-47.672 13.005s-26.511 20.486-34.888 34.995h165.12c-8.376-14.509-20.404-26.573-34.888-34.995s-30.919-12.902-47.672-13.005zM672 208h-576v48c0 12.73 5.057 24.941 14.059 33.939 9.002 9.005 21.211 14.061 33.941 14.061h480c12.73 0 24.941-5.056 33.939-14.061 9.005-8.998 14.061-21.21 14.061-33.939v-48z" />
<glyph unicode="&#xe93a;" glyph-name="select-arrow-down" horiz-adv-x="1707" d="M32.393 897.809c43.477 43.477 113.965 43.477 157.442 0l663.464-663.467 663.467 663.467c43.476 43.477 113.964 43.477 157.442 0 43.476-43.477 43.476-113.964 0-157.442l-820.908-820.907-820.907 820.907c-43.477 43.478-43.477 113.965 0 157.442z" />
<glyph unicode="&#xe93b;" glyph-name="buy" horiz-adv-x="1126" d="M563.2 448c-30.377 0-60.076-9.006-85.336-25.887-25.26-16.876-44.947-40.868-56.572-68.931-11.625-28.068-14.667-58.952-8.741-88.75 5.927-29.793 20.556-57.165 42.037-78.643 21.481-21.484 48.85-36.111 78.644-42.040 29.798-5.924 60.682-2.883 88.75 8.745 28.063 11.622 52.055 31.309 68.931 56.571 16.881 25.257 25.887 54.958 25.887 85.335 0 40.735-16.184 79.805-44.989 108.611s-67.876 44.989-108.611 44.989zM563.2 243.2c-10.127 0-20.024 3-28.447 8.627-8.417 5.627-14.981 13.624-18.857 22.979s-4.888 19.651-2.913 29.583c1.976 9.933 6.851 19.057 14.013 26.214 7.158 7.163 16.282 12.037 26.214 14.013s20.229 0.963 29.583-2.913c9.354-3.876 17.352-10.44 22.979-18.857 5.627-8.422 8.627-18.319 8.627-28.447 0-13.578-5.396-26.604-14.996-36.204s-22.625-14.996-36.204-14.996zM526.848 565.248c4.869-4.661 10.609-8.315 16.896-10.752 6.129-2.709 12.754-4.108 19.456-4.108s13.327 1.399 19.456 4.108c6.287 2.437 12.027 6.091 16.896 10.752l117.248 115.2c9.912 9.913 15.483 23.357 15.483 37.376s-5.571 27.463-15.483 37.376c-9.912 9.913-23.357 15.482-37.376 15.482s-27.464-5.569-37.376-15.482l-27.648-30.208v183.808c0 13.579-5.396 26.602-14.996 36.204s-22.625 14.996-36.204 14.996c-13.578 0-26.604-5.394-36.204-14.996s-14.996-22.625-14.996-36.204v-183.808l-27.648 30.208c-9.913 9.913-23.357 15.482-37.376 15.482s-27.463-5.569-37.376-15.482c-9.913-9.913-15.482-23.357-15.482-37.376s5.569-27.463 15.482-37.376l117.248-115.2zM921.6 294.4c0 10.127-3 20.024-8.627 28.447-5.627 8.417-13.624 14.981-22.979 18.857s-19.651 4.89-29.583 2.913c-9.933-1.976-19.057-6.851-26.214-14.013-7.163-7.158-12.037-16.282-14.013-26.214s-0.963-20.229 2.913-29.583c3.876-9.354 10.44-17.352 18.857-22.979 8.422-5.627 18.319-8.627 28.447-8.627 13.578 0 26.604 5.396 36.204 14.996s14.996 22.625 14.996 36.204zM972.8 652.8h-153.6c-13.578 0-26.604-5.394-36.204-14.996s-14.996-22.625-14.996-36.204c0-13.579 5.396-26.602 14.996-36.204s22.625-14.996 36.204-14.996h153.6c13.578 0 26.604-5.394 36.204-14.996s14.996-22.625 14.996-36.204v-409.6c0-13.578-5.396-26.604-14.996-36.204s-22.625-14.996-36.204-14.996h-819.2c-13.579 0-26.602 5.396-36.204 14.996s-14.996 22.625-14.996 36.204v409.6c0 13.579 5.394 26.602 14.996 36.204s22.625 14.996 36.204 14.996h153.6c13.579 0 26.602 5.394 36.204 14.996s14.996 22.625 14.996 36.204c0 13.579-5.394 26.602-14.996 36.204s-22.625 14.996-36.204 14.996h-153.6c-40.737 0-79.806-16.183-108.612-44.988s-44.988-67.874-44.988-108.612v-409.6c0-40.735 16.183-79.805 44.988-108.611s67.874-44.989 108.612-44.989h819.2c40.735 0 79.805 16.184 108.611 44.989s44.989 67.876 44.989 108.611v409.6c0 40.737-16.184 79.806-44.989 108.612s-67.876 44.988-108.611 44.988zM204.8 294.4c0-10.127 3.003-20.024 8.629-28.447 5.626-8.417 13.622-14.981 22.978-18.857s19.65-4.89 29.582-2.913c9.932 1.976 19.055 6.851 26.215 14.013 7.16 7.158 12.037 16.282 14.012 26.214s0.962 20.229-2.914 29.583c-3.875 9.354-10.438 17.352-18.857 22.979s-18.319 8.627-28.445 8.627c-13.579 0-26.602-5.396-36.204-14.996s-14.996-22.625-14.996-36.204z" />
<glyph unicode="&#xe93c;" glyph-name="card" horiz-adv-x="1365" d="M341.333 277.333h204.8c18.106 0 35.469 7.193 48.272 19.995s19.995 30.166 19.995 48.272c0 18.106-7.193 35.469-19.995 48.272s-30.166 19.995-48.272 19.995h-204.8c-18.106 0-35.469-7.193-48.272-19.995s-19.995-30.166-19.995-48.272c0-18.106 7.193-35.469 19.995-48.272s30.166-19.995 48.272-19.995zM1160.533 960h-955.733c-54.316 0-106.408-21.577-144.815-59.985s-59.985-90.499-59.985-144.815v-614.4c0-54.313 21.577-106.407 59.985-144.814s90.499-59.986 144.815-59.986h955.733c54.313 0 106.407 21.579 144.814 59.986s59.986 90.501 59.986 144.814v614.4c0 54.316-21.579 106.408-59.986 144.815s-90.501 59.985-144.814 59.985zM1228.8 140.8c0-18.104-7.195-35.471-19.995-48.271s-30.167-19.995-48.271-19.995h-955.733c-18.106 0-35.469 7.195-48.272 19.995s-19.995 30.167-19.995 48.271v409.6h1092.267v-409.6zM1228.8 686.933h-1092.267v68.267c0 18.106 7.193 35.469 19.995 48.272s30.166 19.995 48.272 19.995h955.733c18.104 0 35.471-7.193 48.271-19.995s19.995-30.166 19.995-48.272v-68.267z" />
<glyph unicode="&#xe93d;" glyph-name="mobile" horiz-adv-x="717" d="M563.2 960h-409.6c-40.737 0-79.806-16.183-108.612-44.988s-44.988-67.874-44.988-108.612v-716.8c0-40.735 16.183-79.805 44.988-108.611s67.874-44.989 108.612-44.989h409.6c40.735 0 79.805 16.184 108.611 44.989s44.989 67.876 44.989 108.611v716.8c0 40.737-16.184 79.806-44.989 108.612s-67.876 44.988-108.611 44.988zM614.4 89.6c0-13.578-5.396-26.604-14.996-36.204s-22.625-14.996-36.204-14.996h-409.6c-13.579 0-26.602 5.396-36.204 14.996s-14.996 22.625-14.996 36.204v51.2h512v-51.2zM614.4 243.2h-512v563.2c0 13.579 5.394 26.602 14.996 36.204s22.625 14.996 36.204 14.996h409.6c13.578 0 26.604-5.394 36.204-14.996s14.996-22.625 14.996-36.204v-563.2z" />
<glyph unicode="&#xe93e;" glyph-name="sell" horiz-adv-x="1126" d="M484.352 755.199l27.648 30.208v-183.808c0-13.579 5.396-26.602 14.996-36.204s22.625-14.996 36.204-14.996c13.578 0 26.604 5.394 36.204 14.996s14.996 22.625 14.996 36.204v183.808l27.648-28.16c4.649-5.249 10.322-9.488 16.676-12.453s13.245-4.595 20.255-4.787c7.009-0.192 13.983 1.058 20.49 3.671 6.502 2.613 12.406 6.535 17.331 11.522 4.797 4.76 8.607 10.423 11.208 16.662s3.937 12.932 3.937 19.69c0 6.759-1.336 13.451-3.937 19.69s-6.41 11.902-11.208 16.662l-117.248 117.248c-4.869 4.661-10.609 8.315-16.896 10.752-12.467 5.121-26.445 5.121-38.912 0-6.287-2.437-12.027-6.091-16.896-10.752l-117.248-115.2c-9.913-9.913-15.482-23.357-15.482-37.376s5.569-27.463 15.482-37.376c9.913-9.913 23.357-15.481 37.376-15.481s27.463 5.569 37.376 15.481zM563.2 448c-30.377 0-60.076-9.011-85.336-25.887-25.26-16.881-44.947-40.868-56.572-68.936-11.625-28.063-14.667-58.947-8.741-88.745 5.927-29.793 20.556-57.165 42.037-78.643 21.481-21.484 48.85-36.111 78.644-42.040 29.798-5.924 60.682-2.883 88.75 8.74 28.063 11.628 52.055 31.314 68.931 56.576 16.881 25.257 25.887 54.953 25.887 85.335 0 40.735-16.184 79.805-44.989 108.611s-67.876 44.989-108.611 44.989zM563.2 243.2c-10.127 0-20.024 3-28.447 8.627-8.417 5.627-14.981 13.624-18.857 22.979s-4.888 19.651-2.913 29.583c1.976 9.933 6.851 19.052 14.013 26.214 7.158 7.158 16.282 12.037 26.214 14.013s20.229 0.957 29.583-2.913c9.354-3.876 17.352-10.44 22.979-18.857 5.627-8.422 8.627-18.319 8.627-28.447 0-13.578-5.396-26.604-14.996-36.204-9.6-9.605-22.625-14.996-36.204-14.996zM204.8 294.4c0-10.127 3.003-20.024 8.629-28.447 5.626-8.417 13.622-14.981 22.978-18.857s19.65-4.89 29.582-2.913c9.932 1.976 19.055 6.851 26.215 14.013 7.16 7.158 12.037 16.282 14.012 26.214s0.962 20.224-2.914 29.583c-3.875 9.354-10.438 17.352-18.857 22.979-8.42 5.622-18.319 8.627-28.445 8.627-13.579 0-26.602-5.396-36.204-14.996s-14.996-22.625-14.996-36.204zM921.6 294.4c0 10.127-3 20.024-8.627 28.447-5.627 8.417-13.624 14.981-22.979 18.857-9.354 3.871-19.651 4.89-29.583 2.913s-19.057-6.856-26.214-14.013c-7.163-7.163-12.037-16.282-14.013-26.214s-0.963-20.229 2.913-29.583c3.876-9.354 10.44-17.352 18.857-22.979 8.422-5.627 18.319-8.627 28.447-8.627 13.578 0 26.604 5.391 36.204 14.996 9.6 9.6 14.996 22.625 14.996 36.204zM972.8 652.799h-204.8c-13.578 0-26.604-5.394-36.204-14.996s-14.996-22.625-14.996-36.204c0-13.579 5.396-26.602 14.996-36.204s22.625-14.996 36.204-14.996h204.8c13.578 0 26.604-5.394 36.204-14.996s14.996-22.625 14.996-36.204v-409.599c0-13.578-5.396-26.604-14.996-36.204-9.6-9.605-22.625-14.996-36.204-14.996h-819.2c-13.579 0-26.602 5.391-36.204 14.996-9.602 9.6-14.996 22.625-14.996 36.204v409.599c0 13.579 5.394 26.602 14.996 36.204s22.625 14.996 36.204 14.996h204.8c13.579 0 26.602 5.394 36.204 14.996s14.996 22.625 14.996 36.204c0 13.579-5.394 26.602-14.996 36.204s-22.625 14.996-36.204 14.996h-204.8c-40.737 0-79.806-16.183-108.612-44.988s-44.988-67.874-44.988-108.612v-409.599c0-40.74 16.183-79.805 44.988-108.611s67.874-44.989 108.612-44.989h819.2c40.735 0 79.805 16.184 108.611 44.989s44.989 67.871 44.989 108.611v409.599c0 40.737-16.184 79.806-44.989 108.612s-67.876 44.988-108.611 44.988z" />
<glyph unicode="&#xe93f;" glyph-name="bank" horiz-adv-x="975" d="M491.374 955.377l415.881-184.835c52.941-23.53 36.147-102.654-21.787-102.654h-831.758c-57.935 0-74.723 79.125-21.785 102.654l415.879 184.835c13.868 6.164 29.7 6.164 43.569 0zM225.779 570.365c26.931 0 48.762-21.831 48.762-48.762v-292.573c0-26.931-21.831-48.762-48.762-48.762s-48.762 21.831-48.762 48.762v292.573c0 26.931 21.832 48.762 48.762 48.762zM469.589 570.365c26.929 0 48.76-21.831 48.76-48.762v-292.573c0-26.931-21.831-48.762-48.76-48.762s-48.762 21.831-48.762 48.762v292.573c0 26.931 21.832 48.762 48.762 48.762zM713.396 570.365c26.931 0 48.762-21.831 48.762-48.762v-292.573c0-26.931-21.831-48.762-48.762-48.762-26.926 0-48.762 21.831-48.762 48.762v292.573c0 26.931 21.836 48.762 48.762 48.762zM30.732 9.601c0 40.399 32.747 73.143 73.143 73.143h780.189c40.399 0 73.143-32.744 73.143-73.143 0-40.394-32.744-73.143-73.143-73.143h-780.189c-40.396 0-73.143 32.748-73.143 73.143z" />
<glyph unicode="&#xe940;" glyph-name="select-arrow-up" horiz-adv-x="1707" d="M32.393-1.815c43.477-43.476 113.965-43.476 157.442 0l663.464 663.467 663.467-663.467c43.476-43.476 113.964-43.476 157.442 0 43.476 43.476 43.476 113.964 0 157.442l-820.908 820.907-820.907-820.907c-43.477-43.478-43.477-113.967 0-157.442z" />
<glyph unicode="&#xe941;" glyph-name="currency" d="M179.222 166.447h-76.795v563.161h399.333l-40.957-40.445c-9.641-9.573-15.083-22.582-15.132-36.168s5.303-26.634 14.876-36.275c9.573-9.641 22.583-15.083 36.168-15.131s26.634 5.303 36.275 14.875l127.991 127.991c4.799 4.759 8.607 10.423 11.209 16.66 2.594 6.239 3.931 12.93 3.931 19.689s-1.338 13.451-3.931 19.689c-2.6 6.24-6.41 11.901-11.209 16.66l-127.991 127.991c-9.592 9.535-22.568 14.888-36.094 14.888s-26.502-5.352-36.094-14.888c-4.799-4.759-8.607-10.422-11.207-16.66s-3.938-12.93-3.938-19.689c0-6.759 1.339-13.451 3.938-19.689s6.408-11.901 11.207-16.66l40.445-40.445h-450.018c-13.578 0-26.6-5.394-36.201-14.995s-14.995-22.624-14.995-36.201v-665.554c0-13.578 5.394-26.602 14.995-36.199 9.601-9.605 22.624-14.997 36.201-14.997h127.991c13.578 0 26.601 5.393 36.201 14.997 9.601 9.597 14.995 22.622 14.995 36.199s-5.394 26.602-14.995 36.199c-9.601 9.605-22.624 14.997-36.201 14.997zM972.769 832h-127.991c-13.578 0-26.602-5.394-36.199-14.995-9.605-9.601-14.997-22.624-14.997-36.201s5.393-26.601 14.997-36.201c9.597-9.601 22.622-14.995 36.199-14.995h76.795v-563.161h-428.515l40.445 40.445c4.799 4.758 8.607 10.424 11.207 16.662 2.598 6.232 3.938 12.929 3.938 19.687s-1.339 13.448-3.938 19.687c-2.599 6.24-6.408 11.905-11.207 16.662-9.592 9.536-22.568 14.888-36.094 14.888s-26.502-5.352-36.094-14.888l-127.991-127.991c-4.799-4.758-8.607-10.424-11.207-16.662s-3.938-12.929-3.938-19.687c0-6.758 1.338-13.454 3.938-19.694 2.599-6.232 6.408-11.898 11.207-16.656l127.991-127.991c9.641-9.571 22.689-14.922 36.275-14.875s26.597 5.489 36.168 15.126c9.573 9.645 14.924 22.691 14.876 36.275-0.048 13.591-5.491 26.594-15.132 36.173l-40.445 40.445h479.712c13.578 0 26.602 5.393 36.199 14.997 9.605 9.597 14.997 22.622 14.997 36.199v665.554c0 13.578-5.393 26.601-14.997 36.201-9.597 9.601-22.622 14.995-36.199 14.995z" />
<glyph unicode="&#xe942;" glyph-name="make-payment" d="M512 872c-26.018 0-47.11-21.093-47.11-47.11v-329.779h-329.779c-26.018 0-47.11-21.093-47.11-47.11s21.093-47.11 47.11-47.11h329.779v-329.777c0-26.019 21.093-47.113 47.11-47.113s47.11 21.094 47.11 47.113v329.777h329.777c26.019 0 47.113 21.093 47.113 47.11s-21.094 47.11-47.113 47.11h-329.777v329.779c0 26.018-21.093 47.11-47.11 47.11z" />
<glyph unicode="&#xe943;" glyph-name="settings" d="M916.303 414.209c-8.205 9.342-12.73 21.352-12.73 33.787s4.525 24.445 12.73 33.787l65.527 73.718c7.221 8.054 11.706 18.188 12.812 28.95 1.099 10.76-1.235 21.594-6.669 30.946l-102.386 177.128c-5.378 9.342-13.569 16.747-23.406 21.159s-20.819 5.608-31.371 3.414l-96.243-19.453c-12.246-2.53-24.996-0.491-35.842 5.734s-19.037 16.203-23.030 28.054l-31.227 93.683c-3.434 10.168-9.977 18.999-18.705 25.246s-19.196 9.592-29.929 9.565h-204.772c-11.163 0.582-22.211-2.504-31.454-8.79s-16.176-15.425-19.739-26.021l-28.668-93.683c-3.993-11.851-12.185-21.83-23.030-28.054s-23.595-8.263-35.842-5.734l-98.803 19.453c-10.005 1.413-20.205-0.165-29.316-4.538s-16.722-11.344-21.878-20.035l-102.386-177.128c-5.572-9.248-8.077-20.021-7.157-30.779s5.216-20.949 12.277-29.117l65.015-73.718c8.207-9.343 12.733-21.352 12.733-33.787s-4.526-24.446-12.733-33.787l-65.015-73.718c-7.060-8.168-11.357-18.36-12.277-29.116s1.586-21.535 7.157-30.778l102.386-177.128c5.381-9.345 13.573-16.751 23.408-21.16 9.835-4.416 20.814-5.611 31.369-3.413l96.243 19.453c12.247 2.526 24.995 0.484 35.842-5.734 10.845-6.225 19.037-16.205 23.030-28.054l31.228-93.683c3.562-10.6 10.495-19.74 19.739-26.026 9.245-6.28 20.291-9.372 31.454-8.785h204.772c10.732-0.028 21.202 3.317 29.929 9.562s15.27 15.079 18.705 25.249l31.227 93.683c3.993 11.849 12.184 21.829 23.030 28.054 10.847 6.218 23.597 8.259 35.842 5.734l96.243-19.453c10.552-2.198 21.535-1.004 31.371 3.413 9.835 4.409 18.026 11.815 23.406 21.16l102.386 177.128c5.433 9.351 7.767 20.184 6.669 30.944-1.106 10.76-5.591 20.895-12.812 28.95l-69.111 73.718zM840.025 345.611l40.954-46.071-65.527-113.649-60.408 12.286c-36.873 7.536-75.226 1.269-107.782-17.604-32.558-18.873-57.053-49.043-68.834-84.782l-19.453-57.336h-131.054l-18.43 58.36c-11.782 35.739-36.276 65.909-68.833 84.782s-70.912 25.139-107.783 17.604l-60.408-12.286-66.551 113.137 40.954 46.071c25.185 28.157 39.108 64.609 39.108 102.386s-13.923 74.229-39.108 102.386l-40.954 46.074 65.527 112.625 60.408-12.286c36.871-7.537 75.224-1.273 107.783 17.6s57.052 49.045 68.833 84.786l19.453 57.848h131.054l19.453-58.36c11.782-35.741 36.277-65.912 68.834-84.786 32.555-18.874 70.909-25.137 107.782-17.6l60.408 12.286 65.527-113.649-40.954-46.074c-24.9-28.092-38.654-64.334-38.654-101.874s13.754-73.782 38.654-101.874zM493.448 652.769c-40.5 0-80.091-12.010-113.765-34.511s-59.92-54.482-75.42-91.899c-15.499-37.418-19.554-78.59-11.652-118.312s27.404-76.209 56.042-104.85c28.638-28.634 65.125-48.135 104.847-56.039s80.895-3.843 118.312 11.652c37.418 15.501 69.399 41.746 91.898 75.421 22.505 33.674 34.511 73.265 34.511 113.765 0 54.309-21.576 106.393-59.976 144.795-38.402 38.402-90.487 59.977-144.795 59.977zM493.448 345.611c-20.25 0-40.046 6.005-56.882 17.255s-29.961 27.241-37.71 45.95c-7.749 18.709-9.777 39.295-5.825 59.156s13.702 38.105 28.021 52.424c14.319 14.319 32.563 24.070 52.424 28.021s40.447 1.923 59.156-5.826c18.709-7.75 34.699-20.873 45.95-37.71s17.255-36.633 17.255-56.882c0-27.155-10.787-53.197-29.988-72.398s-45.243-29.988-72.398-29.988z" />
<glyph unicode="&#xe944;" glyph-name="percent" d="M870 865.11l-796.444-796.444c-22.244-22.244-22.244-58.255 0-80.441s58.255-22.244 80.441 0l796.444 796.444c22.244 22.244 22.244 58.255 0 80.441s-58.255 22.244-80.441 0zM398.222 739.556c0 54.955-22.357 104.847-58.311 140.8s-85.845 58.311-140.8 58.311-104.847-22.357-140.8-58.311-58.311-85.845-58.311-140.8 22.357-104.847 58.311-140.8 85.845-58.311 140.8-58.311 104.847 22.357 140.8 58.311 58.311 85.845 58.311 140.8zM284.443 739.556c0-23.552-9.5-44.828-24.975-60.359s-36.807-24.975-60.359-24.975-44.828 9.5-60.359 24.975-24.975 36.807-24.975 60.359 9.5 44.828 24.975 60.359 36.807 24.975 60.359 24.975 44.828-9.5 60.359-24.975 24.975-36.807 24.975-60.359zM1023.999 113.778c0 54.955-22.357 104.847-58.311 140.8s-85.845 58.311-140.8 58.311-104.847-22.357-140.8-58.311-58.311-85.845-58.311-140.8 22.357-104.847 58.311-140.8 85.845-58.311 140.8-58.311 104.847 22.357 140.8 58.311 58.311 85.845 58.311 140.8zM910.222 113.778c0-23.552-9.5-44.828-24.975-60.359s-36.807-24.975-60.359-24.975-44.828 9.5-60.359 24.975-24.975 36.807-24.975 60.359 9.5 44.828 24.975 60.359 36.807 24.975 60.359 24.975 44.828-9.5 60.359-24.975 24.975-36.807 24.975-60.359z" />
<glyph unicode="&#xe945;" glyph-name="transactions" horiz-adv-x="1170" d="M1039.609 131.582c28.146 46.121 40.204 100.267 34.297 153.972s-29.456 103.934-66.965 142.827c-37.501 38.894-86.832 64.257-140.285 72.122-53.46 7.864-108.011-2.215-155.123-28.661-47.114-26.445-84.132-67.764-105.258-117.491s-25.172-105.054-11.502-157.326c13.67-52.271 44.283-98.535 87.051-131.552s95.273-50.922 149.301-50.915c44.871 0.212 88.848 12.581 127.249 35.789l97.709-98.277c5.279-5.325 11.566-9.551 18.489-12.437 6.923-2.878 14.346-4.363 21.844-4.363s14.921 1.485 21.844 4.363c6.923 2.886 13.21 7.112 18.489 12.437 5.325 5.279 9.551 11.566 12.437 18.489 2.878 6.923 4.363 14.346 4.363 21.844s-1.485 14.921-4.363 21.844c-2.886 6.923-7.112 13.21-12.437 18.489l-97.141 98.845zM925.994 163.962c-25.041-23.859-58.292-37.167-92.877-37.167-34.592 0-67.851 13.308-92.884 37.167-24.526 24.693-38.291 58.079-38.291 92.88s13.765 68.19 38.291 92.88c12.187 12.212 26.67 21.901 42.606 28.512s33.024 10.013 50.278 10.013c17.247 0 34.335-3.403 50.271-10.013s30.418-16.3 42.606-28.512c24.526-24.69 38.289-58.079 38.289-92.88s-13.763-68.188-38.289-92.88zM982.801 959.268h-795.307c-45.199 0-88.546-17.955-120.508-49.916s-49.916-75.308-49.916-120.508v-511.268c0-45.199 17.955-88.544 49.916-120.508 31.96-31.956 75.308-49.915 120.508-49.915h227.231c15.066 0 29.515 5.983 40.169 16.64 10.654 10.65 16.638 25.102 16.638 40.167s-5.986 29.517-16.638 40.167c-10.654 10.657-25.103 16.64-40.169 16.64h-227.231c-15.066 0-29.515 5.986-40.169 16.638s-16.638 25.103-16.638 40.169v340.846h908.922v-56.807c0-15.066 5.983-29.515 16.64-40.169 10.65-10.654 25.102-16.638 40.167-16.638s29.517 5.986 40.167 16.638c10.657 10.654 16.64 25.103 16.64 40.169v227.231c0 45.199-17.959 88.546-49.915 120.508-31.963 31.96-75.312 49.916-120.508 49.916zM1039.609 732.038h-908.922v56.807c0 15.066 5.986 29.515 16.638 40.169s25.103 16.638 40.169 16.638h795.307c15.065 0 29.517-5.986 40.167-16.638 10.657-10.654 16.64-25.103 16.64-40.169v-56.807zM471.533 504.807h-170.422c-15.066 0-29.515-5.986-40.169-16.638s-16.638-25.103-16.638-40.169c0-15.066 5.986-29.515 16.638-40.169s25.103-16.638 40.169-16.638h170.422c15.066 0 29.515 5.986 40.169 16.638s16.638 25.103 16.638 40.169c0 15.066-5.986 29.515-16.638 40.169s-25.103 16.638-40.169 16.638z" />
<glyph unicode="&#xe946;" glyph-name="exchange-alt" d="M1009.235 586.82l-204.834 204.834c-4.771 4.771-10.443 8.562-16.679 11.149s-12.924 3.912-19.68 3.912c-13.636 0-26.717-5.419-36.359-15.061s-15.061-22.723-15.061-36.359c0-13.636 5.419-26.717 15.061-36.359l117.782-117.267h-593.507c-13.582 0-26.604-5.393-36.213-15.002s-15.002-22.631-15.002-36.213c0-13.582 5.393-26.606 15.002-36.213s22.631-15.002 36.213-15.002h716.925c10.117 0.050 19.985 3.093 28.367 8.741 8.384 5.653 14.904 13.66 18.746 23.007 3.919 9.326 4.99 19.604 3.085 29.54-1.917 9.937-6.728 19.075-13.84 26.279v0zM768.042 396.835h-716.925c-10.107-0.050-19.981-3.093-28.365-8.741s-14.905-13.66-18.749-23.007c-3.919-9.326-4.99-19.602-3.082-29.539s6.727-19.084 13.836-26.28l204.834-204.834c4.759-4.798 10.421-8.608 16.667-11.21 6.239-2.597 12.931-3.939 19.693-3.939s13.453 1.342 19.693 3.939c6.239 2.601 11.9 6.412 16.667 11.21 4.8 4.761 8.609 10.429 11.209 16.666 2.6 6.241 3.939 12.932 3.939 19.694s-1.339 13.453-3.939 19.694c-2.6 6.241-6.409 11.909-11.209 16.666l-117.782 117.267h593.507c13.585 0 26.606 5.395 36.213 15.002 9.605 9.601 15.002 22.631 15.002 36.213s-5.391 26.606-15.002 36.213c-9.601 9.605-22.627 15.002-36.213 15.002z" />
<glyph unicode="&#xe947;" glyph-name="wallet-topup" d="M784.11 920.746c25.031-25.030 39.092-58.977 39.092-94.375v-44.706h66.733c35.396 0 69.349-14.061 94.374-39.092 25.031-25.029 39.092-58.977 39.092-94.374v-422.64c0-35.402-14.061-69.349-39.092-94.374-25.025-25.031-58.978-39.092-94.374-39.092h-77.858c-24.564 0-44.484 19.914-44.484 44.484s19.92 44.491 44.484 44.491h77.858c11.798 0 23.117 4.685 31.458 13.033 8.342 8.342 13.033 19.659 13.033 31.458v77.63h-111.224c-35.396 0-69.342 14.343-94.374 39.372s-39.092 58.696-39.092 94.094c0 35.398 14.061 69.732 39.092 94.761s58.978 38.705 94.374 38.705h111.224v78.078c0 11.799-4.691 23.115-13.033 31.458s-19.659 13.031-31.458 13.031h-754.082c-25.799 0-46.713-20.915-46.713-46.713v-420.416c0-11.798 4.687-23.117 13.031-31.458 8.344-8.348 19.659-13.033 31.458-13.033h77.855c24.57 0 44.489-19.92 44.489-44.491s-19.919-44.484-44.488-44.484h-77.856c-35.398 0-69.345 14.061-94.375 39.092-25.030 25.025-39.091 58.972-39.091 94.374v620.832c0 62.655 50.791 113.446 113.446 113.446h576.127c35.396 0 69.349-14.062 94.374-39.091zM734.227 826.371v-44.706h-43.096c-1.181 0.015-2.369 0.022-3.564 0.022h-553.887c-11.799 0-23.115 4.687-31.458 13.031s-13.031 19.659-13.031 31.458c1.063 24.858 21.541 44.684 46.66 44.684h553.883c11.798 0 23.117-4.687 31.458-13.031s13.033-19.659 13.033-31.458zM823.203 392.612h111.224v88.755h-111.224c-11.798 0-23.117-5.004-31.458-13.347s-13.033-19.565-13.033-31.365c0-11.799 4.691-23.022 13.033-31.365s19.659-12.679 31.458-12.679zM557.097 291.191c0 24.878-20.167 45.045-45.045 45.045s-45.045-20.167-45.045-45.045v-110.123h-110.162c-24.878 0-45.045-20.167-45.045-45.045s20.167-45.045 45.045-45.045h110.162v-110.096c0-24.878 20.167-45.045 45.045-45.045s45.045 20.167 45.045 45.045v110.096h110.057c24.878 0 45.045 20.167 45.045 45.045s-20.167 45.045-45.045 45.045h-110.057v110.123z" />
<glyph unicode="&#xe948;" glyph-name="info" d="M512 590.226c31.413 0 56.882 25.469 56.882 56.882s-25.469 56.882-56.882 56.882c-31.414 0-56.882-25.468-56.882-56.882s25.468-56.882 56.882-56.882zM568.882 476.451c0 31.413-25.469 56.882-56.882 56.882s-56.882-25.469-56.882-56.882v-227.56c0-31.413 25.468-56.882 56.882-56.882s56.882 25.469 56.882 56.882v227.56z" />
<glyph unicode="&#xe949;" glyph-name="table-sort-desc" d="M281.889-6.793l-36.611-36.406c14.808-14.721 37.077-19.13 56.424-11.159s31.962 26.742 31.962 47.565h-51.775zM51.777 222.034v51.486c-20.941 0-39.82-12.544-47.834-31.783s-3.584-41.38 11.223-56.109l36.611 36.406zM333.664 908.514c0 28.435-23.181 51.486-51.775 51.486s-51.775-23.051-51.775-51.486h103.55zM205.185 222.034h51.775v51.486h-51.775v-51.486zM153.41 107.62c0-28.436 23.181-51.486 51.775-51.486s51.775 23.050 51.775 51.486h-103.55zM318.5 29.613l-230.112 228.827-73.221-72.813 230.112-228.827 73.222 72.813zM333.664-6.793v915.307h-103.55v-915.307h103.55zM51.777 170.547h153.408v102.972h-153.408v-102.972zM153.41 222.034v-114.413h103.55v114.413h-103.55zM972.225 960c28.595 0 51.775-23.051 51.775-51.486s-23.181-51.486-51.775-51.486h-460.224c-28.595 0-51.775 23.051-51.775 51.486s23.181 51.486 51.775 51.486h460.224zM818.817 654.898c28.595 0 51.775-23.051 51.775-51.486s-23.181-51.486-51.775-51.486h-306.816c-28.595 0-51.775 23.051-51.775 51.486s23.181 51.486 51.775 51.486h306.816zM742.113 349.795c28.595 0 51.775-23.051 51.775-51.486s-23.181-51.486-51.775-51.486h-230.112c-28.595 0-51.775 23.051-51.775 51.486s23.181 51.486 51.775 51.486h230.112zM588.705 50.413c31.772 0 57.528-25.612 57.528-57.207s-25.756-57.207-57.528-57.207h-76.704c-31.772 0-57.528 25.612-57.528 57.207s25.756 57.207 57.528 57.207h76.704z" />
<glyph unicode="&#xe94a;" glyph-name="table-sort-alphabet-desc" d="M360.932-7.111l-46.877-36.203c18.961-14.638 47.474-19.025 72.246-11.098s40.925 26.589 40.925 47.301h-66.293zM66.295 220.445v51.2c-26.813 0-50.985-12.475-61.247-31.607s-4.588-41.15 14.365-55.797l46.877 36.203zM427.227 903.111c0 28.277-29.68 51.2-66.293 51.2s-66.293-22.923-66.293-51.2h132.586zM262.72 220.445h66.293v51.2h-66.293v-51.2zM196.428 106.667c0-28.278 29.68-51.2 66.293-51.2s66.293 22.922 66.293 51.2h-132.586zM407.809 29.088l-294.636 227.555-93.753-72.409 294.636-227.555 93.754 72.409zM427.227-7.111v910.222h-132.586v-910.222h132.586zM66.295 169.245h196.425v102.4h-196.425v-102.4zM196.428 220.445v-113.777h132.586v113.777h-132.586zM950.207 353.182c40.68 0 73.659-25.47 73.659-56.889s-32.979-56.889-73.659-56.889h-147.418l206.344-212.385c34.276-35.293 5.597-84.78-48.495-90.48l-10.432-0.541h-294.636c-40.68 0-73.659 25.47-73.659 56.889s32.979 56.889 73.659 56.889h147.319l-206.245 212.385c-34.276 35.293-5.597 84.78 48.495 90.48l10.432 0.541h294.636zM732.335 919.457c20.997 54.055 120.107 54.055 141.105 0l147.319-379.259c11.689-30.094-10.422-61.807-49.386-70.837s-80.034 8.049-91.719 38.143l-76.77 197.633-76.77-197.633c-10.716-27.586-46.109-44.234-81.954-39.864l-9.766 1.721c-38.965 9.028-61.078 40.742-49.386 70.837l147.319 379.259zM901.1 599.705c27.121 0 49.107-16.981 49.107-37.925s-21.981-37.925-49.107-37.925h-196.425c-27.121 0-49.107 16.981-49.107 37.925s21.981 37.925 49.107 37.925h196.425z" />
<glyph unicode="&#xe94b;" glyph-name="table-sort-alphabet-asc" d="M360.933 903.111l-46.877 36.204c18.96 14.639 47.474 19.024 72.246 11.097s40.924-26.594 40.924-47.301h-66.293zM66.295 675.556v-51.2c-26.813 0-50.986 12.475-61.247 31.607s-4.589 41.15 14.371 55.797l46.876-36.204zM427.226-7.111c0-28.277-29.681-51.2-66.293-51.2s-66.293 22.923-66.293 51.2h132.587zM262.72 675.556h66.293v-51.2h-66.293v51.2zM196.427 789.333c0 28.278 29.681 51.2 66.293 51.2s66.293-22.922 66.293-51.2h-132.587zM407.809 866.907l-294.637-227.556-93.753 72.408 294.637 227.556 93.754-72.408zM427.226 903.111v-910.222h-132.587v910.222h132.587zM66.295 726.756h196.425v-102.4h-196.425v102.4zM196.427 675.556v113.778h132.587v-113.778h-132.587zM950.207 353.185c40.681 0 73.659-25.47 73.659-56.889s-32.978-56.889-73.659-56.889h-147.417l206.344-212.385c34.277-35.297 5.601-84.781-48.496-90.481l-10.432-0.541h-294.637c-40.681 0-73.659 25.47-73.659 56.889s32.978 56.889 73.659 56.889h147.319l-206.246 212.385c-34.277 35.297-5.601 84.781 48.496 90.481l10.432 0.541h294.637zM732.336 919.458c20.997 54.056 120.108 54.056 141.106 0l147.319-379.259c11.69-30.094-10.422-61.808-49.387-70.837s-80.029 8.049-91.719 38.143l-76.766 197.633-76.766-197.633c-10.715-27.586-46.113-44.234-81.952-39.864l-9.767 1.721c-38.965 9.028-61.077 40.743-49.387 70.837l147.319 379.259zM901.101 599.704c27.121 0 49.106-16.98 49.106-37.926s-21.986-37.926-49.106-37.926h-196.425c-27.121 0-49.106 16.98-49.106 37.926s21.986 37.926 49.106 37.926h196.425z" />
<glyph unicode="&#xe94c;" glyph-name="table-sort-asc" d="M281.889 908.513l-36.611 36.406c14.808 14.721 37.077 19.13 56.424 11.159s31.962-26.742 31.962-47.565h-51.775zM51.777 679.686v-51.486c-20.941 0-39.82 12.544-47.834 31.783s-3.584 41.38 11.223 56.109l36.611-36.406zM333.664-6.794c0-28.435-23.181-51.486-51.775-51.486s-51.775 23.051-51.775 51.486h103.55zM205.185 679.686h51.775v-51.486h-51.775v51.486zM153.41 794.1c0 28.436 23.181 51.486 51.775 51.486s51.775-23.050 51.775-51.486h-103.55zM318.5 872.107l-230.112-228.827-73.221 72.813 230.112 228.827 73.222-72.813zM333.664 908.513v-915.307h-103.55v915.307h103.55zM51.777 731.172h153.408v-102.972h-153.408v102.972zM153.41 679.686v114.413h103.55v-114.413h-103.55zM972.225 960c28.595 0 51.775-23.051 51.775-51.486s-23.181-51.486-51.775-51.486h-460.224c-28.595 0-51.775 23.051-51.775 51.486s23.181 51.486 51.775 51.486h460.224zM818.817 654.898c28.595 0 51.775-23.051 51.775-51.486s-23.181-51.486-51.775-51.486h-306.816c-28.595 0-51.775 23.051-51.775 51.486s23.181 51.486 51.775 51.486h306.816zM742.113 349.795c28.595 0 51.775-23.051 51.775-51.486s-23.181-51.486-51.775-51.486h-230.112c-28.595 0-51.775 23.051-51.775 51.486s23.181 51.486 51.775 51.486h230.112zM588.705 50.413c31.772 0 57.528-25.612 57.528-57.207s-25.756-57.207-57.528-57.207h-76.704c-31.772 0-57.528 25.612-57.528 57.207s25.756 57.207 57.528 57.207h76.704z" />
<glyph unicode="&#xe94d;" glyph-name="menu-closed" horiz-adv-x="1008" d="M333.328 49.771h511.99v796.443h-511.99v-796.443zM887.998-64h-597.329c-18.853 0-36.954 5.986-50.277 16.67s-20.832 25.134-20.832 40.224v910.21c0 15.081 7.493 29.557 20.832 40.224 13.344 10.67 31.422 16.672 50.277 16.672h597.329c18.851 0 36.956-5.984 50.28-16.672 13.344-10.659 20.832-25.134 20.832-40.224v-910.21c0-15.082-7.493-29.553-20.832-40.224s-31.429-16.67-50.28-16.67zM105.784-64h170.657c15.082 0 29.553 5.986 40.224 16.67s16.67 25.134 16.67 40.224v910.21c0 15.081-5.986 29.557-16.67 40.224-10.661 10.67-25.134 16.672-40.224 16.672h-170.657c-15.082 0-29.553-5.984-40.224-16.672-10.661-10.659-16.67-25.134-16.67-40.224v-910.21c0-15.082 5.986-29.553 16.67-40.224s25.134-16.67 40.224-16.67z" />
<glyph unicode="&#xe94e;" glyph-name="menu-opened" d="M213.354 832h85.333c11.316 0 22.168-4.495 30.17-12.497s12.497-18.854 12.497-30.17v-682.664c0-11.315-4.495-22.17-12.497-30.17-8.002-8.006-18.854-12.499-30.17-12.499h-85.333c-11.316 0-22.168 4.493-30.17 12.499-8.001 8-12.497 18.854-12.497 30.17v682.664c0 11.316 4.495 22.168 12.497 30.17s18.854 12.497 30.17 12.497zM469.354 832h341.334c11.315 0 22.17-4.495 30.17-12.497s12.499-18.854 12.499-30.17v-682.664c0-11.315-4.499-22.17-12.499-30.17-8-8.006-18.854-12.499-30.17-12.499h-341.334c-11.316 0-22.168 4.493-30.17 12.499-8.001 8-12.497 18.854-12.497 30.17v682.664c0 11.316 4.495 22.168 12.497 30.17s18.854 12.497 30.17 12.497z" />
</font>
</defs>
</svg>
