<svg width="552" height="92" viewBox="0 0 552 92" fill="none" xmlns="http://www.w3.org/2000/svg">
<path d="M126.205 80.0647H101.645C104.739 77.3314 105.559 66.6913 106.921 47.9502L107.193 43.5845C107.924 32.9418 108.47 24.7538 108.377 19.0287C108.286 14.1136 107.741 10.9273 106.374 9.83658H133.846C140.394 9.83658 153.497 10.2016 153.497 23.8444C153.497 32.9418 145.034 38.5819 137.303 40.5871C148.219 41.6792 156.407 46.9527 156.407 58.2325C156.403 70.4194 144.943 80.0647 126.205 80.0647ZM125.114 46.1339H120.112L119.384 56.5033C119.023 61.0538 118.837 64.8715 118.747 69.4178C118.747 70.0595 120.747 71.423 125.474 71.423C135.299 71.423 141.761 66.5126 141.761 58.4126C141.761 49.4074 134.39 46.1339 125.114 46.1339M127.385 18.2991C126.018 18.2991 124.202 18.2991 122.473 18.4835C121.745 23.3954 121.289 28.123 120.929 33.3074C120.929 33.3074 120.655 37.7631 120.655 37.5803H122.473C131.389 37.5803 139.579 34.4897 139.579 26.3074C139.579 21.5715 135.665 18.2991 127.385 18.2991M213.985 80.698C207.986 80.698 207.53 80.5204 202.709 63.9647L200.981 57.8683C198.065 59.2325 192.881 59.8683 184.603 59.8683H176.235L174.781 62.9621C173.325 66.2418 169.777 72.9726 169.867 76.8845C169.867 77.7929 169.958 78.7033 170.323 80.0673H153.497C158.315 75.2459 164.413 64.0595 172.871 45.9554L177.785 35.4954C182.239 26.0366 186.973 15.3006 186.973 13.7527C186.973 12.3844 186.614 11.1153 186.062 9.83925H201.349C201.349 9.83925 205.345 25.0325 208.895 37.6751L211.897 48.7751C217.083 67.4246 220.357 76.5194 224.723 80.0673C220.811 80.5204 215.899 80.698 213.985 80.698M191.887 26.3074L180.509 50.7715H198.974L191.887 26.3074M280.478 83.0684C275.295 83.0684 274.022 82.2444 272.295 79.8793L252.643 52.5887C251.097 50.4981 249.917 48.7699 247.462 48.7699H247.006L246.645 54.0445C246.187 61.2325 245.915 66.9699 245.915 71.2418C246.005 75.9715 246.553 78.8777 247.826 80.0647H228.814C231.539 77.6074 232.538 69.4178 234.087 47.9502L234.363 43.4939C235.09 32.9445 235.639 24.7538 235.543 19.0287C235.451 14.0246 234.911 10.9273 233.542 9.83658C244.367 9.83658 259.466 9.83658 259.466 9.83658C267.925 9.83658 279.57 11.2964 279.57 25.0298C279.57 36.3059 272.017 42.4954 262.651 45.4017C263.561 46.2246 265.195 48.3153 266.198 49.5897L280.478 68.5137C289.395 80.2486 290.121 80.7928 293.307 82.4298C289.303 82.8835 283.939 83.0684 280.478 83.0684M255.105 18.3912C253.374 18.3912 251.277 18.3913 249.646 18.5715C249.101 21.5715 248.642 26.7579 248.007 35.1246L247.639 40.0407C248.555 40.2246 249.734 40.3194 250.827 40.3194C259.557 40.3194 265.566 35.035 265.566 27.035C265.566 21.5715 261.745 18.3912 255.105 18.3912ZM317.87 81.4288C299.766 81.4288 289.303 66.5126 289.303 49.7751C289.303 26.4887 301.945 8.47046 326.053 8.47046C333.603 8.47046 337.153 9.83658 343.245 9.83658L341.426 27.7579C337.971 21.4803 332.327 17.2049 324.782 17.2049C309.774 17.2049 303.678 33.4017 303.678 47.3178C303.678 62.4169 312.139 70.6929 323.417 70.6929C329.513 70.6929 334.874 69.0527 343.885 62.7793C340.246 74.4257 331.785 81.4288 317.87 81.4288M441.669 80.698C435.662 80.698 435.213 80.5204 430.387 63.9647L428.663 57.8683C425.755 59.2325 420.565 59.8683 412.289 59.8683H403.919L402.463 62.9621C400.37 67.6059 397.553 73.0554 397.553 76.8845C397.553 77.7929 397.642 78.7913 398.009 80.0673H348.339C351.162 76.8845 352.071 66.6059 353.434 47.9527L353.707 43.4981C354.435 32.8538 354.986 24.6673 354.891 18.9393C354.802 14.2085 354.343 11.2059 353.073 9.84339H372.27C369.535 11.9366 368.531 23.2126 367.263 41.8647L366.899 46.3194C366.441 53.235 365.534 60.3287 365.534 67.2434C365.534 70.4221 366.807 71.1502 370.087 71.1502C381.723 71.1502 384.641 70.8778 389.913 67.3314C393.186 61.3262 396.919 53.774 400.554 45.9527L405.473 35.4929C410.109 25.6683 414.653 15.6563 414.653 13.7502C414.653 12.3803 414.291 11.1126 413.751 9.83658H429.031C429.031 9.83658 435.215 32.7631 436.579 37.6699L439.578 48.7726C444.762 67.422 448.041 76.5169 452.409 80.0647C448.763 80.5204 443.579 80.698 441.669 80.698M419.563 26.3074L408.287 50.7715H426.658L419.563 26.3074ZM485.697 42.2204C484.053 44.9511 481.97 48.6751 480.69 51.4101C479.601 56.5923 479.053 63.5111 479.053 71.147C479.053 74.3339 479.601 78.6074 481.055 80.0647H462.045C465.406 76.8819 466.775 57.3262 466.595 51.1382C464.047 42.3153 460.586 33.8554 455.31 23.5741C451.953 17.1169 448.038 11.0169 445.581 9.83658C449.853 9.47512 455.31 9.20219 457.954 9.20219C462.681 9.20219 463.958 9.83658 466.87 16.2085C471.41 26.4887 474.778 34.2137 476.781 39.9511C481.603 32.3981 484.97 27.2152 489.337 20.1194C490.427 18.3912 491.337 16.2085 491.337 14.1137C491.337 12.4726 491.061 10.6554 490.335 9.83658H509.167C505.529 10.6554 489.151 36.4016 485.697 42.2204M549.282 26.486C546.365 21.2059 540.086 17.2006 533.267 17.2006C527.266 17.2006 521.99 19.6595 521.99 26.0287C521.99 31.3939 528.633 35.0325 535.547 39.4939C543.095 44.2221 550.921 50.0407 550.921 60.1434C550.921 73.335 538.095 81.4288 523.265 81.4288C517.171 81.4288 510.805 80.2486 503.619 77.5194L504.798 59.9606C508.255 66.9699 514.718 72.5153 524.262 72.5153C531.634 72.5153 537.089 68.9699 537.089 62.7793C537.089 57.5049 532.629 54.2314 527.177 50.9579C515.711 44.0445 508.439 38.4912 508.439 28.486C508.439 13.4726 520.989 8.47046 533.998 8.47046C541.543 8.47046 546.278 9.83658 551.095 9.83658L549.282 26.486" fill="#2C9DEA"/>
<path d="M39.6936 0.00539886C37.2603 0.00539886 36.7578 0.4282 35.9682 1.30847C35.6578 1.2902 35.3332 1.28247 34.9931 1.28247C33.1218 1.28247 30.7176 1.5574 28.6671 2.9298C26.6868 4.23713 25.7452 6.55219 26.801 8.24486C26.801 8.24486 27.5083 7.2058 29.8363 7.2058C30.1644 7.2058 30.527 7.24233 30.9135 7.27353C34.1306 7.6538 36.5119 9.34807 36.2228 13.8199C35.9644 18.2891 34.289 23.2721 27.4327 23.3309C27.4327 23.3309 26.5494 23.3309 25.6072 23.2439C22.4166 22.8959 21.413 20.8923 21.413 20.8923C21.413 20.8923 24.1712 20.1439 24.1947 16.6413C24.1712 14.2601 22.0972 12.083 19.1051 11.2011C18.125 10.9163 17.0488 10.7746 15.9286 10.7746C12.401 10.7746 8.44054 12.2522 5.77022 15.7387C-0.28446 23.7319 -0.776127 35.3855 0.700955 46.2225C2.18689 57.083 9.07543 67.1429 9.27751 67.4163C9.42387 67.6095 9.55513 67.7163 9.70355 67.7163C9.78065 67.7163 9.85929 67.6814 9.94106 67.6121C12.9161 64.7267 15.753 60.7798 16.9676 58.1413C18.2655 59.1787 17.5868 61.3787 16.8728 63.7309C16.1947 66.1377 14.5447 69.3282 13.9483 70.3574C13.3723 71.3626 12.6004 72.5334 13.6384 73.1439C13.7431 73.2095 13.878 73.2439 14.039 73.2439C15.3728 73.2439 18.5108 70.9173 22.013 66.2506C25.9322 60.9975 27.9212 56.3345 27.9212 56.3345C28.2078 56.3986 28.6874 56.8839 28.6087 58.2069C28.5562 59.5497 27.175 64.5454 24.4868 69.1949C21.7702 73.8429 19.2598 76.7497 18.7535 77.4121C18.4406 77.7959 18.7078 78.0345 18.9092 78.1907C19.1083 78.3241 23.9139 82.8105 30.8958 86.6027C39.1682 91.0105 42.8359 91.8027 42.8359 91.8027C42.8359 91.8027 46.4952 91.0293 54.7671 86.6257C61.7463 82.8293 66.5723 78.3215 66.7504 78.1694C66.9526 78.0319 67.2092 77.8147 66.9056 77.3949C66.4291 76.7626 63.9108 73.8402 61.1988 69.1923C58.5202 64.5746 57.0863 59.5465 57.0655 58.2215C57.0098 56.8839 57.4608 56.4429 57.7359 56.3319C57.7359 56.3319 59.7452 61.0225 63.665 66.2481C67.1827 70.9199 70.2926 73.2413 71.6322 73.2413C71.802 73.2413 71.9368 73.2054 72.0478 73.1413C73.054 72.5293 72.3051 71.3429 71.7144 70.3497C71.1639 69.3257 69.4916 66.1533 68.7806 63.7282C68.0988 61.3506 67.3911 59.1506 68.7135 58.1387C69.9302 60.7762 72.7472 64.7429 75.7306 67.5907C75.8098 67.6721 75.8994 67.7131 75.9874 67.7131C76.1192 67.7131 76.2598 67.6095 76.3827 67.4319C76.602 67.1387 83.502 57.0959 84.9759 46.2199C86.4572 35.3601 85.9687 23.7319 79.9078 15.7361C77.2535 12.2402 73.265 10.7549 69.7139 10.7549C68.6046 10.7549 67.5463 10.8975 66.578 11.1746C63.5619 12.083 61.4972 14.283 61.515 16.6387C61.515 20.1402 64.2874 20.8882 64.2874 20.8882C64.2874 20.8882 63.3598 22.8439 60.0551 23.2402C59.4379 23.3163 58.8384 23.3522 58.2655 23.3522C55.7791 23.3522 53.6848 22.5626 51.7546 19.8361C49.8822 17.2121 49.9436 11.8106 49.8354 10.0079C49.7504 8.1798 49.3587 4.08086 47.4368 2.40486C45.5207 0.690195 43.1868 0.113127 40.2764 6.03163e-05C40.063 0.00539365 39.8728 0.00539886 39.6936 0.00539886Z" fill="#2C9DEA"/>
</svg>
