<svg width="24" height="24" viewBox="0 0 24 24" fill="none" xmlns="http://www.w3.org/2000/svg">
<path d="M0 12C0 5.37258 5.37258 0 12 0C18.6274 0 24 5.37258 24 12C24 18.6274 18.6274 24 12 24H0V12Z" fill="#1B55E9"/>
<path d="M7.73202 9.75383C7.61426 9.75383 7.42781 9.68678 7.28061 9.591C6.83903 9.3228 6.48575 9.22701 5.96566 9.22701C5.08248 9.22701 4.61145 9.69636 4.61145 10.3764C4.61145 10.6446 4.68014 10.8937 4.88622 11.0565C5.07267 11.2193 5.29837 11.3247 5.7007 11.3918L6.5937 11.5259C7.2708 11.6312 7.65351 11.7845 7.97734 12.0718C8.37968 12.4358 8.58576 12.9435 8.58576 13.5852C8.58576 14.9454 7.47688 15.75 5.90678 15.75C5.01379 15.75 4.45444 15.5776 3.90491 15.2519C3.5222 15.022 3.375 14.8688 3.375 14.6006C3.375 14.4761 3.43388 14.3324 3.53201 14.2366C3.63014 14.1408 3.73808 14.1025 3.86566 14.1025C4.01285 14.1025 4.14042 14.1504 4.3465 14.2845C4.84696 14.6293 5.28855 14.7538 5.93622 14.7538C6.91753 14.7538 7.47688 14.342 7.47688 13.614C7.47688 13.2787 7.38856 13.0201 7.18248 12.8477C6.99603 12.6849 6.74089 12.5891 6.368 12.5412L5.48482 12.4167C4.88622 12.3305 4.425 12.1389 4.08154 11.8228C3.70865 11.4875 3.53201 11.0086 3.53201 10.4052C3.53201 9.12165 4.47407 8.25 6.02454 8.25C6.73108 8.25 7.16286 8.36494 7.78108 8.68103C8.04604 8.81513 8.23249 9.00671 8.23249 9.24617C8.23249 9.36111 8.19323 9.48563 8.10491 9.591C7.98716 9.68678 7.87921 9.75383 7.73202 9.75383ZM14.0811 14.7634C13.5806 15.3956 12.9035 15.6925 11.9713 15.6925H10.0381C9.87127 15.6925 9.67501 15.6925 9.50819 15.5297C9.34137 15.3669 9.34137 15.1753 9.34137 15.0029V8.98755C9.34137 8.82471 9.34137 8.62356 9.50819 8.46073C9.67501 8.29789 9.87127 8.29789 10.0381 8.29789H11.9713C12.9035 8.29789 13.5904 8.60441 14.1007 9.23659C14.6208 9.89751 14.6503 10.6734 14.6503 11.9856C14.6404 13.317 14.6012 14.1025 14.0811 14.7634ZM13.1194 9.8113C12.8054 9.4569 12.3736 9.30364 11.8339 9.30364H10.4699V14.6964H11.8339C12.3736 14.6964 12.8054 14.5527 13.1194 14.1887C13.4923 13.7768 13.5119 13.0872 13.5119 11.9952C13.5119 10.9033 13.4923 10.2232 13.1194 9.8113ZM20.9993 15.1944C21.0091 15.3764 20.911 15.5393 20.7246 15.6542C20.6264 15.7117 20.5185 15.7308 20.4204 15.7308C20.1358 15.7308 20.0082 15.5297 19.861 15.2711L17.9965 12.0239L16.7208 13.5374V14.9646C16.7208 15.2423 16.711 15.3285 16.6325 15.4722C16.5442 15.6255 16.3774 15.7308 16.1517 15.7308C15.926 15.7308 15.7493 15.6255 15.6708 15.4722C15.5923 15.3285 15.5825 15.2423 15.5825 14.9646V9.02586C15.5825 8.74808 15.5923 8.66188 15.6708 8.5182C15.7591 8.36494 15.926 8.25958 16.1517 8.25958C16.3774 8.25958 16.554 8.36494 16.6325 8.5182C16.711 8.66188 16.7208 8.74808 16.7208 9.02586V11.9952L19.5372 8.60441C19.7236 8.3841 19.8414 8.26916 20.0573 8.26916C20.1848 8.26916 20.3124 8.31705 20.4105 8.40326C20.5381 8.50862 20.6166 8.66188 20.6166 8.80556C20.6166 8.95881 20.5479 9.07376 20.3615 9.28448L18.7718 11.181L20.8129 14.7347C20.9503 14.9646 20.9993 15.0508 20.9993 15.1944Z" fill="white"/>
</svg>
