<svg width="28" height="28" viewBox="0 0 28 28" fill="none" xmlns="http://www.w3.org/2000/svg">
    <path
        d="M0 14C0 6.26801 6.26801 0 14 0C21.732 0 28 6.26801 28 14C28 21.732 21.732 28 14 28H1.64706C0.737413 28 0 27.2626 0 26.3529V14Z"
        fill="#10233A" />
    <path
        d="M9.02069 11.3795C8.8833 11.3795 8.66578 11.3012 8.49405 11.1895C7.97886 10.8766 7.56671 10.7648 6.95993 10.7648C5.92956 10.7648 5.38002 11.3124 5.38002 12.1058C5.38002 12.4187 5.46017 12.7093 5.70059 12.8993C5.91811 13.0892 6.18143 13.2122 6.65082 13.2904L7.69265 13.4468C8.4826 13.5698 8.9291 13.7486 9.3069 14.0838C9.77629 14.5085 10.0167 15.1007 10.0167 15.8495C10.0167 17.4363 8.72302 18.375 6.89124 18.375C5.84942 18.375 5.19685 18.1738 4.55572 17.7939C4.10923 17.5257 3.9375 17.3469 3.9375 17.034C3.9375 16.8887 4.00619 16.7211 4.12068 16.6094C4.23516 16.4976 4.3611 16.4529 4.50993 16.4529C4.68166 16.4529 4.83049 16.5088 5.07091 16.6652C5.65479 17.0675 6.16998 17.2128 6.92559 17.2128C8.07045 17.2128 8.72302 16.7323 8.72302 15.883C8.72302 15.4919 8.61999 15.1901 8.37956 14.989C8.16204 14.799 7.86438 14.6873 7.42933 14.6314L6.39895 14.4861C5.70059 14.3855 5.1625 14.162 4.7618 13.7933C4.32675 13.4021 4.12068 12.8434 4.12068 12.1394C4.12068 10.6419 5.21975 9.625 7.02863 9.625C7.85293 9.625 8.35667 9.7591 9.07793 10.1279C9.38704 10.2843 9.60457 10.5078 9.60457 10.7872C9.60457 10.9213 9.55877 11.0666 9.45573 11.1895C9.31835 11.3012 9.19241 11.3795 9.02069 11.3795ZM16.4279 17.224C15.8441 17.9615 15.0541 18.308 13.9665 18.308H11.7111C11.5165 18.308 11.2875 18.3079 11.0929 18.118C10.8983 17.928 10.8983 17.7045 10.8983 17.5034V10.4855C10.8983 10.2955 10.8983 10.0608 11.0929 9.87085C11.2875 9.68088 11.5165 9.68087 11.7111 9.68087H13.9665C15.0541 9.68087 15.8555 10.0385 16.4508 10.776C17.0576 11.5471 17.092 12.4523 17.092 13.9832C17.0805 15.5366 17.0347 16.4529 16.4279 17.224ZM15.306 11.4465C14.9396 11.033 14.4359 10.8542 13.8062 10.8542H12.2149V17.1458H13.8062C14.4359 17.1458 14.9396 16.9781 15.306 16.5535C15.741 16.073 15.7639 15.2684 15.7639 13.9944C15.7639 12.7205 15.741 11.927 15.306 11.4465ZM24.4992 17.7269C24.5107 17.9392 24.3962 18.1292 24.1787 18.2633C24.0642 18.3303 23.9382 18.3526 23.8237 18.3526C23.4917 18.3526 23.3429 18.118 23.1712 17.8163L20.9959 14.0279L19.5076 15.7936V17.4587C19.5076 17.7827 19.4962 17.8833 19.4046 18.0509C19.3015 18.2297 19.1069 18.3526 18.8436 18.3526C18.5803 18.3526 18.3742 18.2297 18.2826 18.0509C18.191 17.8833 18.1796 17.7827 18.1796 17.4587V10.5302C18.1796 10.2061 18.191 10.1055 18.2826 9.9379C18.3857 9.7591 18.5803 9.63618 18.8436 9.63618C19.1069 9.63618 19.313 9.7591 19.4046 9.9379C19.4962 10.1055 19.5076 10.2061 19.5076 10.5302V13.9944L22.7934 10.0385C23.0109 9.78145 23.1483 9.64735 23.4001 9.64735C23.549 9.64735 23.6978 9.70323 23.8123 9.8038C23.9611 9.92672 24.0527 10.1055 24.0527 10.2732C24.0527 10.4519 23.9726 10.586 23.7551 10.8319L21.9004 13.0445L24.2817 17.1905C24.442 17.4587 24.4992 17.5592 24.4992 17.7269Z"
        fill="white" />
</svg>
