<svg width="82" height="12" viewBox="0 0 82 12" fill="none" xmlns="http://www.w3.org/2000/svg">
    <path d="M6.87684 2.40613C6.69098 2.40613 6.3967 2.29885 6.16437 2.14559C5.4674 1.71647 4.90981 1.56322 4.08893 1.56322C2.69498 1.56322 1.95153 2.31418 1.95153 3.4023C1.95153 3.83142 2.05995 4.22989 2.38521 4.49042C2.67949 4.75096 3.03572 4.91954 3.67074 5.02682L5.08019 5.24138C6.14889 5.40996 6.75293 5.65517 7.26405 6.11494C7.89907 6.69732 8.22433 7.50958 8.22433 8.5364C8.22433 10.7126 6.47414 12 3.996 12C2.58656 12 1.70372 11.7241 0.836371 11.2031C0.232325 10.8352 0 10.59 0 10.1609C0 9.96169 0.0929288 9.7318 0.247813 9.57854C0.402696 9.42529 0.57307 9.36398 0.774419 9.36398C1.00674 9.36398 1.20809 9.44061 1.53335 9.65517C2.32326 10.2069 3.02023 10.4061 4.04247 10.4061C5.5913 10.4061 6.47414 9.74712 6.47414 8.58237C6.47414 8.04597 6.33475 7.63218 6.00949 7.35632C5.71521 7.09578 5.31251 6.94253 4.72396 6.8659L3.33 6.66667C2.38521 6.52873 1.65726 6.22222 1.11516 5.71648C0.526604 5.18008 0.247813 4.41379 0.247813 3.44828C0.247813 1.39464 1.7347 0 4.18186 0C5.29703 0 5.97851 0.183908 6.95428 0.689655C7.37247 0.904214 7.66675 1.21073 7.66675 1.59387C7.66675 1.77778 7.60479 1.97701 7.4654 2.14559C7.27954 2.29885 7.10916 2.40613 6.87684 2.40613ZM16.8978 10.4215C16.1079 11.4329 15.0392 11.908 13.5678 11.908H10.5166C10.2533 11.908 9.94354 11.908 9.68024 11.6475C9.41693 11.387 9.41693 11.0805 9.41693 10.8046V1.18008C9.41693 0.919542 9.41693 0.597703 9.68024 0.337167C9.94354 0.0766302 10.2533 0.0766283 10.5166 0.0766283H13.5678C15.0392 0.0766283 16.1234 0.567052 16.9288 1.57855C17.7497 2.63602 17.7961 3.87739 17.7961 5.97701C17.7807 8.10728 17.7187 9.36398 16.8978 10.4215ZM15.38 2.49809C14.8843 1.93104 14.2028 1.68582 13.351 1.68582H11.1981V10.3142H13.351C14.2028 10.3142 14.8843 10.0843 15.38 9.50191C15.9685 8.84291 15.9995 7.73946 15.9995 5.99234C15.9995 4.24521 15.9685 3.15709 15.38 2.49809ZM27.8171 11.1111C27.8326 11.4023 27.6777 11.6628 27.3835 11.8467C27.2286 11.9387 27.0582 11.9693 26.9033 11.9693C26.4541 11.9693 26.2528 11.6475 26.0205 11.2337L23.0777 6.03832L21.0642 8.45977V10.7433C21.0642 11.1877 21.0487 11.3257 20.9248 11.5556C20.7854 11.8008 20.5221 11.9693 20.1659 11.9693C19.8096 11.9693 19.5308 11.8008 19.4069 11.5556C19.283 11.3257 19.2675 11.1877 19.2675 10.7433V1.24138C19.2675 0.796936 19.283 0.659006 19.4069 0.429121C19.5463 0.183911 19.8096 0.0153266 20.1659 0.0153266C20.5221 0.0153266 20.8009 0.183911 20.9248 0.429121C21.0487 0.659006 21.0642 0.796936 21.0642 1.24138V5.99234L25.5094 0.567052C25.8036 0.214561 25.9895 0.0306532 26.3302 0.0306532C26.5316 0.0306532 26.7329 0.107281 26.8878 0.245212C27.0892 0.413794 27.2131 0.659006 27.2131 0.888892C27.2131 1.1341 27.1047 1.31801 26.8104 1.65517L24.3013 4.68965L27.5228 10.3755C27.7397 10.7433 27.8171 10.8812 27.8171 11.1111Z" fill="white"/>
    <path d="M30.6559 11.9254C29.9934 11.9254 29.4541 11.3881 29.4541 10.7463C29.4541 10.1045 29.9934 9.58209 30.6559 9.58209C31.3185 9.58209 31.8578 10.1045 31.8578 10.7463C31.8578 11.3881 31.3185 11.9254 30.6559 11.9254ZM36.8809 1.58209C36.7268 1.65672 36.5419 1.68657 36.28 1.70149C35.6637 1.71642 35.4325 2.07463 35.4325 2.64179V3.68657H36.3416C36.6498 3.68657 36.7731 3.70149 36.9271 3.79104C37.112 3.89552 37.2199 4.07463 37.2199 4.32836C37.2199 4.56716 37.112 4.7612 36.9271 4.86567C36.7731 4.9403 36.6498 4.97015 36.3416 4.97015H35.4325V10.8507C35.4325 11.2537 35.4017 11.3881 35.3093 11.5821C35.2014 11.806 34.9549 11.9702 34.6005 11.9702C34.2461 11.9702 33.9996 11.806 33.8917 11.5821C33.7992 11.3881 33.7684 11.2388 33.7684 10.8507V4.97015H33.3832C33.0751 4.97015 32.9518 4.95522 32.7977 4.86567C32.6128 4.7612 32.5049 4.58209 32.5049 4.32836C32.5049 4.08955 32.6128 3.89552 32.7977 3.79104C32.9518 3.71642 33.0751 3.68657 33.3832 3.68657H33.7684V2.56717C33.7684 1.35821 34.4618 0.298507 36.0335 0.298507H36.2029C36.5419 0.298507 36.7576 0.343283 36.9117 0.432835C37.112 0.537313 37.2507 0.731345 37.2507 1C37.2199 1.26866 37.0812 1.47761 36.8809 1.58209ZM39.2846 2C38.7299 2 38.2677 1.55224 38.2677 1C38.2677 0.447763 38.7145 0 39.2846 0C39.8547 0 40.3016 0.447763 40.3016 1C40.3016 1.55224 39.8393 2 39.2846 2ZM39.2846 3.62687C39.639 3.62687 39.8855 3.79104 39.9934 4.01492C40.0858 4.20895 40.1167 4.35821 40.1167 4.74627V10.8209C40.1167 11.2239 40.0858 11.3582 39.9934 11.5522C39.8855 11.7761 39.639 11.9403 39.2846 11.9403C38.9302 11.9403 38.6837 11.7761 38.5758 11.5522C38.4834 11.3582 38.4526 11.209 38.4526 10.8209V4.74627C38.4526 4.34329 38.4834 4.20895 38.5758 4.01492C38.6837 3.79104 38.9302 3.62687 39.2846 3.62687ZM48.6529 11.5522C48.545 11.7761 48.2985 11.9403 47.9441 11.9403C47.5897 11.9403 47.3432 11.7761 47.2353 11.5522C47.1429 11.3582 47.112 11.209 47.112 10.8209V6.8806C47.112 5.59702 46.3724 5.07463 45.4325 5.07463C44.4926 5.07463 43.7068 5.62687 43.7068 6.8806V10.8209C43.7068 11.2239 43.676 11.3582 43.5835 11.5522C43.4757 11.7761 43.2291 11.9403 42.8747 11.9403C42.5204 11.9403 42.2738 11.7761 42.166 11.5522C42.0735 11.3582 42.0427 11.209 42.0427 10.8209V4.74627C42.0427 4.29851 42.0735 4.14925 42.1968 3.97015C42.3355 3.74627 42.6128 3.62687 42.8902 3.62687C43.1675 3.62687 43.414 3.73134 43.5681 3.95522C43.6452 4.07463 43.7068 4.19403 43.7222 4.49254C44.2923 3.89552 45.0935 3.59702 45.9102 3.59702C46.7576 3.59702 47.4664 3.86567 47.9595 4.34328C48.6066 4.95522 48.7915 5.73134 48.7915 6.65672V10.8358C48.7761 11.2239 48.7607 11.3582 48.6529 11.5522ZM56.7114 11.5672C56.5882 11.791 56.3108 11.9403 56.0026 11.9403C55.7253 11.9403 55.525 11.8358 55.4017 11.7015C55.3093 11.5821 55.2322 11.4627 55.2168 11.1045C54.5543 11.7313 53.9996 11.9552 52.9826 11.9552C51.9348 11.9552 51.2415 11.7164 50.733 11.209C50.3016 10.7761 50.0704 10.1493 50.0704 9.46269C50.0704 8.08955 51.072 7.08955 52.9518 7.08955H55.1552V6.58209C55.1552 5.50746 54.6313 4.98507 53.414 4.98507C52.7515 4.98507 52.3046 5.16418 51.827 5.53731C51.6113 5.70149 51.3801 5.7612 51.2261 5.7612C51.0566 5.7612 50.8717 5.68657 50.7484 5.53731C50.6097 5.38806 50.5481 5.25373 50.5481 5.02985C50.5481 4.65672 50.9025 4.32836 51.3339 4.08955C51.9194 3.76119 52.5974 3.59702 53.4603 3.59702C55.6945 3.59702 56.8655 4.55224 56.8655 6.41791V10.8358C56.8347 11.2239 56.8193 11.3731 56.7114 11.5672ZM55.1552 8.26866H53.1829C52.1968 8.26866 51.6883 8.68657 51.6883 9.44776C51.6883 10.194 52.1968 10.597 53.26 10.597C53.8609 10.597 54.3539 10.5373 54.7854 10.1343C55.0473 9.89552 55.1552 9.52239 55.1552 8.91045V8.26866ZM65.3401 11.5522C65.2322 11.7761 64.9857 11.9403 64.6313 11.9403C64.2769 11.9403 64.0304 11.7761 63.9225 11.5522C63.8301 11.3582 63.7992 11.209 63.7992 10.8209V6.8806C63.7992 5.59702 63.0597 5.07463 62.1197 5.07463C61.1798 5.07463 60.394 5.62687 60.394 6.8806V10.8209C60.394 11.2239 60.3632 11.3582 60.2707 11.5522C60.1629 11.7761 59.9163 11.9403 59.562 11.9403C59.2076 11.9403 58.961 11.7761 58.8532 11.5522C58.7607 11.3582 58.7299 11.209 58.7299 10.8209V4.74627C58.7299 4.29851 58.7607 4.14925 58.884 3.97015C59.0227 3.74627 59.3 3.62687 59.5774 3.62687C59.8547 3.62687 60.1012 3.73134 60.2553 3.95522C60.3324 4.07463 60.394 4.19403 60.4094 4.49254C60.9795 3.89552 61.7808 3.59702 62.5974 3.59702C63.4449 3.59702 64.1536 3.86567 64.6467 4.34328C65.2939 4.95522 65.4788 5.73134 65.4788 6.65672V10.8358C65.4633 11.2239 65.4479 11.3582 65.3401 11.5522ZM72.5204 5.85075C72.3046 5.85075 72.1352 5.7612 71.8578 5.53731C71.4418 5.20896 71.1028 5.08955 70.6405 5.08955C69.978 5.08955 69.4849 5.32836 69.1151 5.79105C68.7607 6.25373 68.6066 6.83582 68.6066 7.79105C68.6066 8.73135 68.7453 9.32836 69.1151 9.79105C69.4695 10.2687 69.978 10.5075 70.6405 10.5075C71.1028 10.5075 71.4418 10.3731 71.8578 10.0448C72.1352 9.8209 72.3046 9.73135 72.5204 9.73135C72.7207 9.73135 72.921 9.83582 73.0442 9.95523C73.1983 10.1045 73.2754 10.2836 73.2754 10.4925C73.2754 10.9105 72.8747 11.209 72.4587 11.4776C71.9348 11.806 71.3956 12 70.6405 12C68.7453 12 66.9425 10.8806 66.9425 7.80597C66.9425 4.73135 68.7453 3.61194 70.6405 3.61194C71.3956 3.61194 71.904 3.77612 72.4587 4.13433C72.8902 4.40299 73.2754 4.7015 73.2754 5.11941C73.2754 5.32836 73.1829 5.50746 73.0442 5.65672C72.921 5.76119 72.7207 5.85075 72.5204 5.85075ZM81.0258 8.04478C80.81 8.25373 80.5327 8.25373 80.2862 8.25373H75.864C75.864 9.65672 76.619 10.5672 78.0057 10.5672C78.5912 10.5672 79.1614 10.403 79.6082 10.0448C79.8701 9.83582 80.0704 9.74627 80.2862 9.74627C80.6251 9.74627 80.9795 10.0746 80.9795 10.4478C80.9795 10.8209 80.5481 11.1791 80.1475 11.4478C79.6236 11.791 78.8686 11.9702 77.9749 11.9702C75.8948 11.9702 74.2153 10.8955 74.2153 7.77612C74.2153 5.07463 75.6174 3.58209 77.7438 3.58209C79.9164 3.58209 81.2261 5.13433 81.2723 7.31343C81.2569 7.55224 81.2261 7.85075 81.0258 8.04478ZM79.3617 6C79.0843 5.38806 78.5142 4.97015 77.713 4.97015C76.9117 4.97015 76.3262 5.38806 76.0489 6C75.8794 6.35821 75.8486 6.61194 75.8332 7.11941H79.5774C79.562 6.61194 79.5311 6.35821 79.3617 6Z" fill="white"/>
    <path d="M30.6559 11.9254C29.9934 11.9254 29.4541 11.3881 29.4541 10.7463C29.4541 10.1045 29.9934 9.58209 30.6559 9.58209C31.3185 9.58209 31.8578 10.1045 31.8578 10.7463C31.8578 11.3881 31.3185 11.9254 30.6559 11.9254ZM36.8809 1.58209C36.7268 1.65672 36.5419 1.68657 36.28 1.70149C35.6637 1.71642 35.4325 2.07463 35.4325 2.64179V3.68657H36.3416C36.6498 3.68657 36.7731 3.70149 36.9271 3.79104C37.112 3.89552 37.2199 4.07463 37.2199 4.32836C37.2199 4.56716 37.112 4.7612 36.9271 4.86567C36.7731 4.9403 36.6498 4.97015 36.3416 4.97015H35.4325V10.8507C35.4325 11.2537 35.4017 11.3881 35.3093 11.5821C35.2014 11.806 34.9549 11.9702 34.6005 11.9702C34.2461 11.9702 33.9996 11.806 33.8917 11.5821C33.7992 11.3881 33.7684 11.2388 33.7684 10.8507V4.97015H33.3832C33.0751 4.97015 32.9518 4.95522 32.7977 4.86567C32.6128 4.7612 32.5049 4.58209 32.5049 4.32836C32.5049 4.08955 32.6128 3.89552 32.7977 3.79104C32.9518 3.71642 33.0751 3.68657 33.3832 3.68657H33.7684V2.56717C33.7684 1.35821 34.4618 0.298507 36.0335 0.298507H36.2029C36.5419 0.298507 36.7576 0.343283 36.9117 0.432835C37.112 0.537313 37.2507 0.731345 37.2507 1C37.2199 1.26866 37.0812 1.47761 36.8809 1.58209ZM39.2846 2C38.7299 2 38.2677 1.55224 38.2677 1C38.2677 0.447763 38.7145 0 39.2846 0C39.8547 0 40.3016 0.447763 40.3016 1C40.3016 1.55224 39.8393 2 39.2846 2ZM39.2846 3.62687C39.639 3.62687 39.8855 3.79104 39.9934 4.01492C40.0858 4.20895 40.1167 4.35821 40.1167 4.74627V10.8209C40.1167 11.2239 40.0858 11.3582 39.9934 11.5522C39.8855 11.7761 39.639 11.9403 39.2846 11.9403C38.9302 11.9403 38.6837 11.7761 38.5758 11.5522C38.4834 11.3582 38.4526 11.209 38.4526 10.8209V4.74627C38.4526 4.34329 38.4834 4.20895 38.5758 4.01492C38.6837 3.79104 38.9302 3.62687 39.2846 3.62687ZM48.6529 11.5522C48.545 11.7761 48.2985 11.9403 47.9441 11.9403C47.5897 11.9403 47.3432 11.7761 47.2353 11.5522C47.1429 11.3582 47.112 11.209 47.112 10.8209V6.8806C47.112 5.59702 46.3724 5.07463 45.4325 5.07463C44.4926 5.07463 43.7068 5.62687 43.7068 6.8806V10.8209C43.7068 11.2239 43.676 11.3582 43.5835 11.5522C43.4757 11.7761 43.2291 11.9403 42.8747 11.9403C42.5204 11.9403 42.2738 11.7761 42.166 11.5522C42.0735 11.3582 42.0427 11.209 42.0427 10.8209V4.74627C42.0427 4.29851 42.0735 4.14925 42.1968 3.97015C42.3355 3.74627 42.6128 3.62687 42.8902 3.62687C43.1675 3.62687 43.414 3.73134 43.5681 3.95522C43.6452 4.07463 43.7068 4.19403 43.7222 4.49254C44.2923 3.89552 45.0935 3.59702 45.9102 3.59702C46.7576 3.59702 47.4664 3.86567 47.9595 4.34328C48.6066 4.95522 48.7915 5.73134 48.7915 6.65672V10.8358C48.7761 11.2239 48.7607 11.3582 48.6529 11.5522ZM56.7114 11.5672C56.5882 11.791 56.3108 11.9403 56.0026 11.9403C55.7253 11.9403 55.525 11.8358 55.4017 11.7015C55.3093 11.5821 55.2322 11.4627 55.2168 11.1045C54.5543 11.7313 53.9996 11.9552 52.9826 11.9552C51.9348 11.9552 51.2415 11.7164 50.733 11.209C50.3016 10.7761 50.0704 10.1493 50.0704 9.46269C50.0704 8.08955 51.072 7.08955 52.9518 7.08955H55.1552V6.58209C55.1552 5.50746 54.6313 4.98507 53.414 4.98507C52.7515 4.98507 52.3046 5.16418 51.827 5.53731C51.6113 5.70149 51.3801 5.7612 51.2261 5.7612C51.0566 5.7612 50.8717 5.68657 50.7484 5.53731C50.6097 5.38806 50.5481 5.25373 50.5481 5.02985C50.5481 4.65672 50.9025 4.32836 51.3339 4.08955C51.9194 3.76119 52.5974 3.59702 53.4603 3.59702C55.6945 3.59702 56.8655 4.55224 56.8655 6.41791V10.8358C56.8347 11.2239 56.8193 11.3731 56.7114 11.5672ZM55.1552 8.26866H53.1829C52.1968 8.26866 51.6883 8.68657 51.6883 9.44776C51.6883 10.194 52.1968 10.597 53.26 10.597C53.8609 10.597 54.3539 10.5373 54.7854 10.1343C55.0473 9.89552 55.1552 9.52239 55.1552 8.91045V8.26866ZM65.3401 11.5522C65.2322 11.7761 64.9857 11.9403 64.6313 11.9403C64.2769 11.9403 64.0304 11.7761 63.9225 11.5522C63.8301 11.3582 63.7992 11.209 63.7992 10.8209V6.8806C63.7992 5.59702 63.0597 5.07463 62.1197 5.07463C61.1798 5.07463 60.394 5.62687 60.394 6.8806V10.8209C60.394 11.2239 60.3632 11.3582 60.2707 11.5522C60.1629 11.7761 59.9163 11.9403 59.562 11.9403C59.2076 11.9403 58.961 11.7761 58.8532 11.5522C58.7607 11.3582 58.7299 11.209 58.7299 10.8209V4.74627C58.7299 4.29851 58.7607 4.14925 58.884 3.97015C59.0227 3.74627 59.3 3.62687 59.5774 3.62687C59.8547 3.62687 60.1012 3.73134 60.2553 3.95522C60.3324 4.07463 60.394 4.19403 60.4094 4.49254C60.9795 3.89552 61.7808 3.59702 62.5974 3.59702C63.4449 3.59702 64.1536 3.86567 64.6467 4.34328C65.2939 4.95522 65.4788 5.73134 65.4788 6.65672V10.8358C65.4633 11.2239 65.4479 11.3582 65.3401 11.5522ZM72.5204 5.85075C72.3046 5.85075 72.1352 5.7612 71.8578 5.53731C71.4418 5.20896 71.1028 5.08955 70.6405 5.08955C69.978 5.08955 69.4849 5.32836 69.1151 5.79105C68.7607 6.25373 68.6066 6.83582 68.6066 7.79105C68.6066 8.73135 68.7453 9.32836 69.1151 9.79105C69.4695 10.2687 69.978 10.5075 70.6405 10.5075C71.1028 10.5075 71.4418 10.3731 71.8578 10.0448C72.1352 9.8209 72.3046 9.73135 72.5204 9.73135C72.7207 9.73135 72.921 9.83582 73.0442 9.95523C73.1983 10.1045 73.2754 10.2836 73.2754 10.4925C73.2754 10.9105 72.8747 11.209 72.4587 11.4776C71.9348 11.806 71.3956 12 70.6405 12C68.7453 12 66.9425 10.8806 66.9425 7.80597C66.9425 4.73135 68.7453 3.61194 70.6405 3.61194C71.3956 3.61194 71.904 3.77612 72.4587 4.13433C72.8902 4.40299 73.2754 4.7015 73.2754 5.11941C73.2754 5.32836 73.1829 5.50746 73.0442 5.65672C72.921 5.76119 72.7207 5.85075 72.5204 5.85075ZM81.0258 8.04478C80.81 8.25373 80.5327 8.25373 80.2862 8.25373H75.864C75.864 9.65672 76.619 10.5672 78.0057 10.5672C78.5912 10.5672 79.1614 10.403 79.6082 10.0448C79.8701 9.83582 80.0704 9.74627 80.2862 9.74627C80.6251 9.74627 80.9795 10.0746 80.9795 10.4478C80.9795 10.8209 80.5481 11.1791 80.1475 11.4478C79.6236 11.791 78.8686 11.9702 77.9749 11.9702C75.8948 11.9702 74.2153 10.8955 74.2153 7.77612C74.2153 5.07463 75.6174 3.58209 77.7438 3.58209C79.9164 3.58209 81.2261 5.13433 81.2723 7.31343C81.2569 7.55224 81.2261 7.85075 81.0258 8.04478ZM79.3617 6C79.0843 5.38806 78.5142 4.97015 77.713 4.97015C76.9117 4.97015 76.3262 5.38806 76.0489 6C75.8794 6.35821 75.8486 6.61194 75.8332 7.11941H79.5774C79.562 6.61194 79.5311 6.35821 79.3617 6Z" fill="white"/>
    <path d="M30.6559 11.9254C29.9934 11.9254 29.4541 11.3881 29.4541 10.7463C29.4541 10.1045 29.9934 9.58209 30.6559 9.58209C31.3185 9.58209 31.8578 10.1045 31.8578 10.7463C31.8578 11.3881 31.3185 11.9254 30.6559 11.9254ZM36.8809 1.58209C36.7268 1.65672 36.5419 1.68657 36.28 1.70149C35.6637 1.71642 35.4325 2.07463 35.4325 2.64179V3.68657H36.3416C36.6498 3.68657 36.7731 3.70149 36.9271 3.79104C37.112 3.89552 37.2199 4.07463 37.2199 4.32836C37.2199 4.56716 37.112 4.7612 36.9271 4.86567C36.7731 4.9403 36.6498 4.97015 36.3416 4.97015H35.4325V10.8507C35.4325 11.2537 35.4017 11.3881 35.3093 11.5821C35.2014 11.806 34.9549 11.9702 34.6005 11.9702C34.2461 11.9702 33.9996 11.806 33.8917 11.5821C33.7992 11.3881 33.7684 11.2388 33.7684 10.8507V4.97015H33.3832C33.0751 4.97015 32.9518 4.95522 32.7977 4.86567C32.6128 4.7612 32.5049 4.58209 32.5049 4.32836C32.5049 4.08955 32.6128 3.89552 32.7977 3.79104C32.9518 3.71642 33.0751 3.68657 33.3832 3.68657H33.7684V2.56717C33.7684 1.35821 34.4618 0.298507 36.0335 0.298507H36.2029C36.5419 0.298507 36.7576 0.343283 36.9117 0.432835C37.112 0.537313 37.2507 0.731345 37.2507 1C37.2199 1.26866 37.0812 1.47761 36.8809 1.58209ZM39.2846 2C38.7299 2 38.2677 1.55224 38.2677 1C38.2677 0.447763 38.7145 0 39.2846 0C39.8547 0 40.3016 0.447763 40.3016 1C40.3016 1.55224 39.8393 2 39.2846 2ZM39.2846 3.62687C39.639 3.62687 39.8855 3.79104 39.9934 4.01492C40.0858 4.20895 40.1167 4.35821 40.1167 4.74627V10.8209C40.1167 11.2239 40.0858 11.3582 39.9934 11.5522C39.8855 11.7761 39.639 11.9403 39.2846 11.9403C38.9302 11.9403 38.6837 11.7761 38.5758 11.5522C38.4834 11.3582 38.4526 11.209 38.4526 10.8209V4.74627C38.4526 4.34329 38.4834 4.20895 38.5758 4.01492C38.6837 3.79104 38.9302 3.62687 39.2846 3.62687ZM48.6529 11.5522C48.545 11.7761 48.2985 11.9403 47.9441 11.9403C47.5897 11.9403 47.3432 11.7761 47.2353 11.5522C47.1429 11.3582 47.112 11.209 47.112 10.8209V6.8806C47.112 5.59702 46.3724 5.07463 45.4325 5.07463C44.4926 5.07463 43.7068 5.62687 43.7068 6.8806V10.8209C43.7068 11.2239 43.676 11.3582 43.5835 11.5522C43.4757 11.7761 43.2291 11.9403 42.8747 11.9403C42.5204 11.9403 42.2738 11.7761 42.166 11.5522C42.0735 11.3582 42.0427 11.209 42.0427 10.8209V4.74627C42.0427 4.29851 42.0735 4.14925 42.1968 3.97015C42.3355 3.74627 42.6128 3.62687 42.8902 3.62687C43.1675 3.62687 43.414 3.73134 43.5681 3.95522C43.6452 4.07463 43.7068 4.19403 43.7222 4.49254C44.2923 3.89552 45.0935 3.59702 45.9102 3.59702C46.7576 3.59702 47.4664 3.86567 47.9595 4.34328C48.6066 4.95522 48.7915 5.73134 48.7915 6.65672V10.8358C48.7761 11.2239 48.7607 11.3582 48.6529 11.5522ZM56.7114 11.5672C56.5882 11.791 56.3108 11.9403 56.0026 11.9403C55.7253 11.9403 55.525 11.8358 55.4017 11.7015C55.3093 11.5821 55.2322 11.4627 55.2168 11.1045C54.5543 11.7313 53.9996 11.9552 52.9826 11.9552C51.9348 11.9552 51.2415 11.7164 50.733 11.209C50.3016 10.7761 50.0704 10.1493 50.0704 9.46269C50.0704 8.08955 51.072 7.08955 52.9518 7.08955H55.1552V6.58209C55.1552 5.50746 54.6313 4.98507 53.414 4.98507C52.7515 4.98507 52.3046 5.16418 51.827 5.53731C51.6113 5.70149 51.3801 5.7612 51.2261 5.7612C51.0566 5.7612 50.8717 5.68657 50.7484 5.53731C50.6097 5.38806 50.5481 5.25373 50.5481 5.02985C50.5481 4.65672 50.9025 4.32836 51.3339 4.08955C51.9194 3.76119 52.5974 3.59702 53.4603 3.59702C55.6945 3.59702 56.8655 4.55224 56.8655 6.41791V10.8358C56.8347 11.2239 56.8193 11.3731 56.7114 11.5672ZM55.1552 8.26866H53.1829C52.1968 8.26866 51.6883 8.68657 51.6883 9.44776C51.6883 10.194 52.1968 10.597 53.26 10.597C53.8609 10.597 54.3539 10.5373 54.7854 10.1343C55.0473 9.89552 55.1552 9.52239 55.1552 8.91045V8.26866ZM65.3401 11.5522C65.2322 11.7761 64.9857 11.9403 64.6313 11.9403C64.2769 11.9403 64.0304 11.7761 63.9225 11.5522C63.8301 11.3582 63.7992 11.209 63.7992 10.8209V6.8806C63.7992 5.59702 63.0597 5.07463 62.1197 5.07463C61.1798 5.07463 60.394 5.62687 60.394 6.8806V10.8209C60.394 11.2239 60.3632 11.3582 60.2707 11.5522C60.1629 11.7761 59.9163 11.9403 59.562 11.9403C59.2076 11.9403 58.961 11.7761 58.8532 11.5522C58.7607 11.3582 58.7299 11.209 58.7299 10.8209V4.74627C58.7299 4.29851 58.7607 4.14925 58.884 3.97015C59.0227 3.74627 59.3 3.62687 59.5774 3.62687C59.8547 3.62687 60.1012 3.73134 60.2553 3.95522C60.3324 4.07463 60.394 4.19403 60.4094 4.49254C60.9795 3.89552 61.7808 3.59702 62.5974 3.59702C63.4449 3.59702 64.1536 3.86567 64.6467 4.34328C65.2939 4.95522 65.4788 5.73134 65.4788 6.65672V10.8358C65.4633 11.2239 65.4479 11.3582 65.3401 11.5522ZM72.5204 5.85075C72.3046 5.85075 72.1352 5.7612 71.8578 5.53731C71.4418 5.20896 71.1028 5.08955 70.6405 5.08955C69.978 5.08955 69.4849 5.32836 69.1151 5.79105C68.7607 6.25373 68.6066 6.83582 68.6066 7.79105C68.6066 8.73135 68.7453 9.32836 69.1151 9.79105C69.4695 10.2687 69.978 10.5075 70.6405 10.5075C71.1028 10.5075 71.4418 10.3731 71.8578 10.0448C72.1352 9.8209 72.3046 9.73135 72.5204 9.73135C72.7207 9.73135 72.921 9.83582 73.0442 9.95523C73.1983 10.1045 73.2754 10.2836 73.2754 10.4925C73.2754 10.9105 72.8747 11.209 72.4587 11.4776C71.9348 11.806 71.3956 12 70.6405 12C68.7453 12 66.9425 10.8806 66.9425 7.80597C66.9425 4.73135 68.7453 3.61194 70.6405 3.61194C71.3956 3.61194 71.904 3.77612 72.4587 4.13433C72.8902 4.40299 73.2754 4.7015 73.2754 5.11941C73.2754 5.32836 73.1829 5.50746 73.0442 5.65672C72.921 5.76119 72.7207 5.85075 72.5204 5.85075ZM81.0258 8.04478C80.81 8.25373 80.5327 8.25373 80.2862 8.25373H75.864C75.864 9.65672 76.619 10.5672 78.0057 10.5672C78.5912 10.5672 79.1614 10.403 79.6082 10.0448C79.8701 9.83582 80.0704 9.74627 80.2862 9.74627C80.6251 9.74627 80.9795 10.0746 80.9795 10.4478C80.9795 10.8209 80.5481 11.1791 80.1475 11.4478C79.6236 11.791 78.8686 11.9702 77.9749 11.9702C75.8948 11.9702 74.2153 10.8955 74.2153 7.77612C74.2153 5.07463 75.6174 3.58209 77.7438 3.58209C79.9164 3.58209 81.2261 5.13433 81.2723 7.31343C81.2569 7.55224 81.2261 7.85075 81.0258 8.04478ZM79.3617 6C79.0843 5.38806 78.5142 4.97015 77.713 4.97015C76.9117 4.97015 76.3262 5.38806 76.0489 6C75.8794 6.35821 75.8486 6.61194 75.8332 7.11941H79.5774C79.562 6.61194 79.5311 6.35821 79.3617 6Z" fill="white"/>
    <path d="M30.6559 11.9254C29.9934 11.9254 29.4541 11.3881 29.4541 10.7463C29.4541 10.1045 29.9934 9.58209 30.6559 9.58209C31.3185 9.58209 31.8578 10.1045 31.8578 10.7463C31.8578 11.3881 31.3185 11.9254 30.6559 11.9254ZM36.8809 1.58209C36.7268 1.65672 36.5419 1.68657 36.28 1.70149C35.6637 1.71642 35.4325 2.07463 35.4325 2.64179V3.68657H36.3416C36.6498 3.68657 36.7731 3.70149 36.9271 3.79104C37.112 3.89552 37.2199 4.07463 37.2199 4.32836C37.2199 4.56716 37.112 4.7612 36.9271 4.86567C36.7731 4.9403 36.6498 4.97015 36.3416 4.97015H35.4325V10.8507C35.4325 11.2537 35.4017 11.3881 35.3093 11.5821C35.2014 11.806 34.9549 11.9702 34.6005 11.9702C34.2461 11.9702 33.9996 11.806 33.8917 11.5821C33.7992 11.3881 33.7684 11.2388 33.7684 10.8507V4.97015H33.3832C33.0751 4.97015 32.9518 4.95522 32.7977 4.86567C32.6128 4.7612 32.5049 4.58209 32.5049 4.32836C32.5049 4.08955 32.6128 3.89552 32.7977 3.79104C32.9518 3.71642 33.0751 3.68657 33.3832 3.68657H33.7684V2.56717C33.7684 1.35821 34.4618 0.298507 36.0335 0.298507H36.2029C36.5419 0.298507 36.7576 0.343283 36.9117 0.432835C37.112 0.537313 37.2507 0.731345 37.2507 1C37.2199 1.26866 37.0812 1.47761 36.8809 1.58209ZM39.2846 2C38.7299 2 38.2677 1.55224 38.2677 1C38.2677 0.447763 38.7145 0 39.2846 0C39.8547 0 40.3016 0.447763 40.3016 1C40.3016 1.55224 39.8393 2 39.2846 2ZM39.2846 3.62687C39.639 3.62687 39.8855 3.79104 39.9934 4.01492C40.0858 4.20895 40.1167 4.35821 40.1167 4.74627V10.8209C40.1167 11.2239 40.0858 11.3582 39.9934 11.5522C39.8855 11.7761 39.639 11.9403 39.2846 11.9403C38.9302 11.9403 38.6837 11.7761 38.5758 11.5522C38.4834 11.3582 38.4526 11.209 38.4526 10.8209V4.74627C38.4526 4.34329 38.4834 4.20895 38.5758 4.01492C38.6837 3.79104 38.9302 3.62687 39.2846 3.62687ZM48.6529 11.5522C48.545 11.7761 48.2985 11.9403 47.9441 11.9403C47.5897 11.9403 47.3432 11.7761 47.2353 11.5522C47.1429 11.3582 47.112 11.209 47.112 10.8209V6.8806C47.112 5.59702 46.3724 5.07463 45.4325 5.07463C44.4926 5.07463 43.7068 5.62687 43.7068 6.8806V10.8209C43.7068 11.2239 43.676 11.3582 43.5835 11.5522C43.4757 11.7761 43.2291 11.9403 42.8747 11.9403C42.5204 11.9403 42.2738 11.7761 42.166 11.5522C42.0735 11.3582 42.0427 11.209 42.0427 10.8209V4.74627C42.0427 4.29851 42.0735 4.14925 42.1968 3.97015C42.3355 3.74627 42.6128 3.62687 42.8902 3.62687C43.1675 3.62687 43.414 3.73134 43.5681 3.95522C43.6452 4.07463 43.7068 4.19403 43.7222 4.49254C44.2923 3.89552 45.0935 3.59702 45.9102 3.59702C46.7576 3.59702 47.4664 3.86567 47.9595 4.34328C48.6066 4.95522 48.7915 5.73134 48.7915 6.65672V10.8358C48.7761 11.2239 48.7607 11.3582 48.6529 11.5522ZM56.7114 11.5672C56.5882 11.791 56.3108 11.9403 56.0026 11.9403C55.7253 11.9403 55.525 11.8358 55.4017 11.7015C55.3093 11.5821 55.2322 11.4627 55.2168 11.1045C54.5543 11.7313 53.9996 11.9552 52.9826 11.9552C51.9348 11.9552 51.2415 11.7164 50.733 11.209C50.3016 10.7761 50.0704 10.1493 50.0704 9.46269C50.0704 8.08955 51.072 7.08955 52.9518 7.08955H55.1552V6.58209C55.1552 5.50746 54.6313 4.98507 53.414 4.98507C52.7515 4.98507 52.3046 5.16418 51.827 5.53731C51.6113 5.70149 51.3801 5.7612 51.2261 5.7612C51.0566 5.7612 50.8717 5.68657 50.7484 5.53731C50.6097 5.38806 50.5481 5.25373 50.5481 5.02985C50.5481 4.65672 50.9025 4.32836 51.3339 4.08955C51.9194 3.76119 52.5974 3.59702 53.4603 3.59702C55.6945 3.59702 56.8655 4.55224 56.8655 6.41791V10.8358C56.8347 11.2239 56.8193 11.3731 56.7114 11.5672ZM55.1552 8.26866H53.1829C52.1968 8.26866 51.6883 8.68657 51.6883 9.44776C51.6883 10.194 52.1968 10.597 53.26 10.597C53.8609 10.597 54.3539 10.5373 54.7854 10.1343C55.0473 9.89552 55.1552 9.52239 55.1552 8.91045V8.26866ZM65.3401 11.5522C65.2322 11.7761 64.9857 11.9403 64.6313 11.9403C64.2769 11.9403 64.0304 11.7761 63.9225 11.5522C63.8301 11.3582 63.7992 11.209 63.7992 10.8209V6.8806C63.7992 5.59702 63.0597 5.07463 62.1197 5.07463C61.1798 5.07463 60.394 5.62687 60.394 6.8806V10.8209C60.394 11.2239 60.3632 11.3582 60.2707 11.5522C60.1629 11.7761 59.9163 11.9403 59.562 11.9403C59.2076 11.9403 58.961 11.7761 58.8532 11.5522C58.7607 11.3582 58.7299 11.209 58.7299 10.8209V4.74627C58.7299 4.29851 58.7607 4.14925 58.884 3.97015C59.0227 3.74627 59.3 3.62687 59.5774 3.62687C59.8547 3.62687 60.1012 3.73134 60.2553 3.95522C60.3324 4.07463 60.394 4.19403 60.4094 4.49254C60.9795 3.89552 61.7808 3.59702 62.5974 3.59702C63.4449 3.59702 64.1536 3.86567 64.6467 4.34328C65.2939 4.95522 65.4788 5.73134 65.4788 6.65672V10.8358C65.4633 11.2239 65.4479 11.3582 65.3401 11.5522ZM72.5204 5.85075C72.3046 5.85075 72.1352 5.7612 71.8578 5.53731C71.4418 5.20896 71.1028 5.08955 70.6405 5.08955C69.978 5.08955 69.4849 5.32836 69.1151 5.79105C68.7607 6.25373 68.6066 6.83582 68.6066 7.79105C68.6066 8.73135 68.7453 9.32836 69.1151 9.79105C69.4695 10.2687 69.978 10.5075 70.6405 10.5075C71.1028 10.5075 71.4418 10.3731 71.8578 10.0448C72.1352 9.8209 72.3046 9.73135 72.5204 9.73135C72.7207 9.73135 72.921 9.83582 73.0442 9.95523C73.1983 10.1045 73.2754 10.2836 73.2754 10.4925C73.2754 10.9105 72.8747 11.209 72.4587 11.4776C71.9348 11.806 71.3956 12 70.6405 12C68.7453 12 66.9425 10.8806 66.9425 7.80597C66.9425 4.73135 68.7453 3.61194 70.6405 3.61194C71.3956 3.61194 71.904 3.77612 72.4587 4.13433C72.8902 4.40299 73.2754 4.7015 73.2754 5.11941C73.2754 5.32836 73.1829 5.50746 73.0442 5.65672C72.921 5.76119 72.7207 5.85075 72.5204 5.85075ZM81.0258 8.04478C80.81 8.25373 80.5327 8.25373 80.2862 8.25373H75.864C75.864 9.65672 76.619 10.5672 78.0057 10.5672C78.5912 10.5672 79.1614 10.403 79.6082 10.0448C79.8701 9.83582 80.0704 9.74627 80.2862 9.74627C80.6251 9.74627 80.9795 10.0746 80.9795 10.4478C80.9795 10.8209 80.5481 11.1791 80.1475 11.4478C79.6236 11.791 78.8686 11.9702 77.9749 11.9702C75.8948 11.9702 74.2153 10.8955 74.2153 7.77612C74.2153 5.07463 75.6174 3.58209 77.7438 3.58209C79.9164 3.58209 81.2261 5.13433 81.2723 7.31343C81.2569 7.55224 81.2261 7.85075 81.0258 8.04478ZM79.3617 6C79.0843 5.38806 78.5142 4.97015 77.713 4.97015C76.9117 4.97015 76.3262 5.38806 76.0489 6C75.8794 6.35821 75.8486 6.61194 75.8332 7.11941H79.5774C79.562 6.61194 79.5311 6.35821 79.3617 6Z" fill="white"/>
    <path d="M30.6559 11.9254C29.9934 11.9254 29.4541 11.3881 29.4541 10.7463C29.4541 10.1045 29.9934 9.58209 30.6559 9.58209C31.3185 9.58209 31.8578 10.1045 31.8578 10.7463C31.8578 11.3881 31.3185 11.9254 30.6559 11.9254ZM36.8809 1.58209C36.7268 1.65672 36.5419 1.68657 36.28 1.70149C35.6637 1.71642 35.4325 2.07463 35.4325 2.64179V3.68657H36.3416C36.6498 3.68657 36.7731 3.70149 36.9271 3.79104C37.112 3.89552 37.2199 4.07463 37.2199 4.32836C37.2199 4.56716 37.112 4.7612 36.9271 4.86567C36.7731 4.9403 36.6498 4.97015 36.3416 4.97015H35.4325V10.8507C35.4325 11.2537 35.4017 11.3881 35.3093 11.5821C35.2014 11.806 34.9549 11.9702 34.6005 11.9702C34.2461 11.9702 33.9996 11.806 33.8917 11.5821C33.7992 11.3881 33.7684 11.2388 33.7684 10.8507V4.97015H33.3832C33.0751 4.97015 32.9518 4.95522 32.7977 4.86567C32.6128 4.7612 32.5049 4.58209 32.5049 4.32836C32.5049 4.08955 32.6128 3.89552 32.7977 3.79104C32.9518 3.71642 33.0751 3.68657 33.3832 3.68657H33.7684V2.56717C33.7684 1.35821 34.4618 0.298507 36.0335 0.298507H36.2029C36.5419 0.298507 36.7576 0.343283 36.9117 0.432835C37.112 0.537313 37.2507 0.731345 37.2507 1C37.2199 1.26866 37.0812 1.47761 36.8809 1.58209ZM39.2846 2C38.7299 2 38.2677 1.55224 38.2677 1C38.2677 0.447763 38.7145 0 39.2846 0C39.8547 0 40.3016 0.447763 40.3016 1C40.3016 1.55224 39.8393 2 39.2846 2ZM39.2846 3.62687C39.639 3.62687 39.8855 3.79104 39.9934 4.01492C40.0858 4.20895 40.1167 4.35821 40.1167 4.74627V10.8209C40.1167 11.2239 40.0858 11.3582 39.9934 11.5522C39.8855 11.7761 39.639 11.9403 39.2846 11.9403C38.9302 11.9403 38.6837 11.7761 38.5758 11.5522C38.4834 11.3582 38.4526 11.209 38.4526 10.8209V4.74627C38.4526 4.34329 38.4834 4.20895 38.5758 4.01492C38.6837 3.79104 38.9302 3.62687 39.2846 3.62687ZM48.6529 11.5522C48.545 11.7761 48.2985 11.9403 47.9441 11.9403C47.5897 11.9403 47.3432 11.7761 47.2353 11.5522C47.1429 11.3582 47.112 11.209 47.112 10.8209V6.8806C47.112 5.59702 46.3724 5.07463 45.4325 5.07463C44.4926 5.07463 43.7068 5.62687 43.7068 6.8806V10.8209C43.7068 11.2239 43.676 11.3582 43.5835 11.5522C43.4757 11.7761 43.2291 11.9403 42.8747 11.9403C42.5204 11.9403 42.2738 11.7761 42.166 11.5522C42.0735 11.3582 42.0427 11.209 42.0427 10.8209V4.74627C42.0427 4.29851 42.0735 4.14925 42.1968 3.97015C42.3355 3.74627 42.6128 3.62687 42.8902 3.62687C43.1675 3.62687 43.414 3.73134 43.5681 3.95522C43.6452 4.07463 43.7068 4.19403 43.7222 4.49254C44.2923 3.89552 45.0935 3.59702 45.9102 3.59702C46.7576 3.59702 47.4664 3.86567 47.9595 4.34328C48.6066 4.95522 48.7915 5.73134 48.7915 6.65672V10.8358C48.7761 11.2239 48.7607 11.3582 48.6529 11.5522ZM56.7114 11.5672C56.5882 11.791 56.3108 11.9403 56.0026 11.9403C55.7253 11.9403 55.525 11.8358 55.4017 11.7015C55.3093 11.5821 55.2322 11.4627 55.2168 11.1045C54.5543 11.7313 53.9996 11.9552 52.9826 11.9552C51.9348 11.9552 51.2415 11.7164 50.733 11.209C50.3016 10.7761 50.0704 10.1493 50.0704 9.46269C50.0704 8.08955 51.072 7.08955 52.9518 7.08955H55.1552V6.58209C55.1552 5.50746 54.6313 4.98507 53.414 4.98507C52.7515 4.98507 52.3046 5.16418 51.827 5.53731C51.6113 5.70149 51.3801 5.7612 51.2261 5.7612C51.0566 5.7612 50.8717 5.68657 50.7484 5.53731C50.6097 5.38806 50.5481 5.25373 50.5481 5.02985C50.5481 4.65672 50.9025 4.32836 51.3339 4.08955C51.9194 3.76119 52.5974 3.59702 53.4603 3.59702C55.6945 3.59702 56.8655 4.55224 56.8655 6.41791V10.8358C56.8347 11.2239 56.8193 11.3731 56.7114 11.5672ZM55.1552 8.26866H53.1829C52.1968 8.26866 51.6883 8.68657 51.6883 9.44776C51.6883 10.194 52.1968 10.597 53.26 10.597C53.8609 10.597 54.3539 10.5373 54.7854 10.1343C55.0473 9.89552 55.1552 9.52239 55.1552 8.91045V8.26866ZM65.3401 11.5522C65.2322 11.7761 64.9857 11.9403 64.6313 11.9403C64.2769 11.9403 64.0304 11.7761 63.9225 11.5522C63.8301 11.3582 63.7992 11.209 63.7992 10.8209V6.8806C63.7992 5.59702 63.0597 5.07463 62.1197 5.07463C61.1798 5.07463 60.394 5.62687 60.394 6.8806V10.8209C60.394 11.2239 60.3632 11.3582 60.2707 11.5522C60.1629 11.7761 59.9163 11.9403 59.562 11.9403C59.2076 11.9403 58.961 11.7761 58.8532 11.5522C58.7607 11.3582 58.7299 11.209 58.7299 10.8209V4.74627C58.7299 4.29851 58.7607 4.14925 58.884 3.97015C59.0227 3.74627 59.3 3.62687 59.5774 3.62687C59.8547 3.62687 60.1012 3.73134 60.2553 3.95522C60.3324 4.07463 60.394 4.19403 60.4094 4.49254C60.9795 3.89552 61.7808 3.59702 62.5974 3.59702C63.4449 3.59702 64.1536 3.86567 64.6467 4.34328C65.2939 4.95522 65.4788 5.73134 65.4788 6.65672V10.8358C65.4633 11.2239 65.4479 11.3582 65.3401 11.5522ZM72.5204 5.85075C72.3046 5.85075 72.1352 5.7612 71.8578 5.53731C71.4418 5.20896 71.1028 5.08955 70.6405 5.08955C69.978 5.08955 69.4849 5.32836 69.1151 5.79105C68.7607 6.25373 68.6066 6.83582 68.6066 7.79105C68.6066 8.73135 68.7453 9.32836 69.1151 9.79105C69.4695 10.2687 69.978 10.5075 70.6405 10.5075C71.1028 10.5075 71.4418 10.3731 71.8578 10.0448C72.1352 9.8209 72.3046 9.73135 72.5204 9.73135C72.7207 9.73135 72.921 9.83582 73.0442 9.95523C73.1983 10.1045 73.2754 10.2836 73.2754 10.4925C73.2754 10.9105 72.8747 11.209 72.4587 11.4776C71.9348 11.806 71.3956 12 70.6405 12C68.7453 12 66.9425 10.8806 66.9425 7.80597C66.9425 4.73135 68.7453 3.61194 70.6405 3.61194C71.3956 3.61194 71.904 3.77612 72.4587 4.13433C72.8902 4.40299 73.2754 4.7015 73.2754 5.11941C73.2754 5.32836 73.1829 5.50746 73.0442 5.65672C72.921 5.76119 72.7207 5.85075 72.5204 5.85075ZM81.0258 8.04478C80.81 8.25373 80.5327 8.25373 80.2862 8.25373H75.864C75.864 9.65672 76.619 10.5672 78.0057 10.5672C78.5912 10.5672 79.1614 10.403 79.6082 10.0448C79.8701 9.83582 80.0704 9.74627 80.2862 9.74627C80.6251 9.74627 80.9795 10.0746 80.9795 10.4478C80.9795 10.8209 80.5481 11.1791 80.1475 11.4478C79.6236 11.791 78.8686 11.9702 77.9749 11.9702C75.8948 11.9702 74.2153 10.8955 74.2153 7.77612C74.2153 5.07463 75.6174 3.58209 77.7438 3.58209C79.9164 3.58209 81.2261 5.13433 81.2723 7.31343C81.2569 7.55224 81.2261 7.85075 81.0258 8.04478ZM79.3617 6C79.0843 5.38806 78.5142 4.97015 77.713 4.97015C76.9117 4.97015 76.3262 5.38806 76.0489 6C75.8794 6.35821 75.8486 6.61194 75.8332 7.11941H79.5774C79.562 6.61194 79.5311 6.35821 79.3617 6Z" fill="white"/>
</svg>
