<svg width="40" height="24" viewBox="0 0 40 24" fill="none" xmlns="http://www.w3.org/2000/svg">
    <path d="M25.4072 2.56665H14.5918V21.4333H25.4072V2.56665Z" fill="#FF5F00"/>
    <path d="M15.279 12C15.279 8.16667 17.133 4.76667 19.9828 2.56667C17.8884 0.966667 15.2446 0 12.3605 0C5.5279 0 0 5.36667 0 12C0 18.6333 5.5279 24 12.3605 24C15.2446 24 17.8884 23.0333 19.9828 21.4333C17.133 19.2667 15.279 15.8333 15.279 12Z" fill="#EB001B"/>
    <path d="M40.0004 12C40.0004 18.6333 34.4725 24 27.6399 24C24.7558 24 22.112 23.0333 20.0176 21.4333C22.9017 19.2333 24.7214 15.8333 24.7214 12C24.7214 8.16667 22.8674 4.76667 20.0176 2.56667C22.112 0.966667 24.7558 0 27.6399 0C34.4725 0 40.0004 5.4 40.0004 12Z" fill="#F79E1B"/>
</svg>
