<svg width="220" height="32" viewBox="0 0 384 56" fill="none" xmlns="http://www.w3.org/2000/svg">
    <path d="M32.6313 11.2286C31.7493 11.2286 30.353 10.728 29.2506 10.0128C25.9433 8.01022 23.2976 7.29503 19.4024 7.29503C12.7879 7.29503 9.26022 10.7995 9.26022 15.8774C9.26022 17.88 9.77468 19.7395 11.3181 20.9553C12.7144 22.1711 14.4048 22.9579 17.418 23.4585L24.106 24.4598C29.1771 25.2465 32.0433 26.3908 34.4686 28.5364C37.4819 31.2542 39.0252 35.0447 39.0252 39.8365C39.0252 49.9923 30.7204 56 18.9614 56C12.2735 56 8.08432 54.7126 3.96866 52.281C1.1024 50.5645 0 49.4202 0 47.4176C0 46.4879 0.440956 45.4151 1.1759 44.6999C1.91083 43.9847 2.71927 43.6986 3.67469 43.6986C4.7771 43.6986 5.73252 44.0562 7.27589 45.0575C11.0241 47.6322 14.3313 48.5619 19.1819 48.5619C26.5313 48.5619 30.7204 45.4866 30.7204 40.0511C30.7204 37.5479 30.059 35.6169 28.5156 34.3295C27.1192 33.1137 25.2084 32.3985 22.4156 32.0409L15.8012 31.1111C11.3181 30.4674 7.86384 29.037 5.29156 26.6769C2.49879 24.1737 1.1759 20.5977 1.1759 16.092C1.1759 6.5083 8.23131 0 19.8433 0C25.1349 0 28.3686 0.858237 32.9987 3.21839C34.9831 4.21967 36.3795 5.65008 36.3795 7.43807C36.3795 8.29631 36.0855 9.22605 35.424 10.0128C34.5421 10.728 33.7337 11.2286 32.6313 11.2286ZM80.1818 48.6334C76.4336 53.3538 71.3625 55.5709 64.3806 55.5709H49.9023C48.6529 55.5709 47.1831 55.5709 45.9337 54.355C44.6843 53.1392 44.6843 51.7088 44.6843 50.4214V5.50703C44.6843 4.2912 44.6843 2.78928 45.9337 1.57344C47.1831 0.357608 48.6529 0.357599 49.9023 0.357599H64.3806C71.3625 0.357599 76.5071 2.64625 80.3288 7.36655C84.224 12.3014 84.4445 18.0945 84.4445 27.8927C84.371 37.834 84.077 43.6986 80.1818 48.6334ZM72.9794 11.6577C70.6276 9.01151 67.3939 7.86718 63.3517 7.86718H53.1361V48.1328H63.3517C67.3939 48.1328 70.6276 47.06 72.9794 44.3423C75.7722 41.2669 75.9192 36.1175 75.9192 27.9642C75.9192 19.811 75.7722 14.7331 72.9794 11.6577ZM131.995 51.8518C132.068 53.2107 131.334 54.4266 129.937 55.2848C129.202 55.7139 128.394 55.857 127.659 55.857C125.528 55.857 124.572 54.355 123.47 52.424L109.506 28.1788L99.9517 39.4789V50.1354C99.9517 52.2094 99.8782 52.8531 99.2902 53.9259C98.6288 55.0702 97.3794 55.857 95.689 55.857C93.9987 55.857 92.6758 55.0702 92.0878 53.9259C91.4999 52.8531 91.4264 52.2094 91.4264 50.1354V5.79311C91.4264 3.71903 91.4999 3.07536 92.0878 2.00257C92.7493 0.85825 93.9987 0.0715241 95.689 0.0715241C97.3794 0.0715241 98.7023 0.85825 99.2902 2.00257C99.8782 3.07536 99.9517 3.71903 99.9517 5.79311V27.9642L121.044 2.64624C122.441 1.00129 123.323 0.143048 124.94 0.143048C125.895 0.143048 126.85 0.500643 127.585 1.14432C128.541 1.93104 129.129 3.07536 129.129 4.14816C129.129 5.29248 128.614 6.15071 127.218 7.72415L115.312 21.8851L130.599 48.4189C131.628 50.1354 131.995 50.779 131.995 51.8518Z"
          fill="#1B55E9"/>
    <path d="M145.659 55.6517C142.539 55.6517 140 53.1443 140 50.1493C140 47.1542 142.539 44.7164 145.659 44.7164C148.779 44.7164 151.318 47.1542 151.318 50.1493C151.318 53.1443 148.779 55.6517 145.659 55.6517ZM174.971 7.38309C174.246 7.73135 173.375 7.87064 172.142 7.94029C169.239 8.00995 168.151 9.6816 168.151 12.3284V17.204H172.432C173.883 17.204 174.463 17.2736 175.189 17.6915C176.059 18.1791 176.567 19.0149 176.567 20.199C176.567 21.3134 176.059 22.2189 175.189 22.7065C174.463 23.0547 173.883 23.194 172.432 23.194H168.151V50.6368C168.151 52.5174 168.006 53.1443 167.571 54.0498C167.063 55.0945 165.902 55.8607 164.233 55.8607C162.564 55.8607 161.404 55.0945 160.896 54.0498C160.46 53.1443 160.315 52.4478 160.315 50.6368V23.194H158.501C157.05 23.194 156.47 23.1244 155.744 22.7065C154.874 22.2189 154.366 21.3831 154.366 20.199C154.366 19.0846 154.874 18.1791 155.744 17.6915C156.47 17.3433 157.05 17.204 158.501 17.204H160.315V11.9801C160.315 6.33832 163.58 1.39303 170.981 1.39303H171.779C173.375 1.39303 174.391 1.60199 175.116 2.0199C176.059 2.50746 176.712 3.41294 176.712 4.66668C176.567 5.92041 175.914 6.89553 174.971 7.38309ZM186.29 9.33333C183.678 9.33333 181.501 7.24379 181.501 4.66668C181.501 2.08956 183.605 0 186.29 0C188.974 0 191.078 2.08956 191.078 4.66668C191.078 7.24379 188.902 9.33333 186.29 9.33333ZM186.29 16.9254C187.958 16.9254 189.119 17.6915 189.627 18.7363C190.062 19.6418 190.208 20.3383 190.208 22.1493V50.4975C190.208 52.3781 190.062 53.005 189.627 53.9104C189.119 54.9552 187.958 55.7214 186.29 55.7214C184.621 55.7214 183.46 54.9552 182.952 53.9104C182.517 53.005 182.372 52.3085 182.372 50.4975V22.1493C182.372 20.2687 182.517 19.6418 182.952 18.7363C183.46 17.6915 184.621 16.9254 186.29 16.9254ZM230.403 53.9104C229.895 54.9552 228.734 55.7214 227.065 55.7214C225.396 55.7214 224.236 54.9552 223.728 53.9104C223.292 53.005 223.147 52.3085 223.147 50.4975V32.1095C223.147 26.1194 219.665 23.6816 215.239 23.6816C210.813 23.6816 207.113 26.2587 207.113 32.1095V50.4975C207.113 52.3781 206.968 53.005 206.532 53.9104C206.024 54.9552 204.864 55.7214 203.195 55.7214C201.526 55.7214 200.365 54.9552 199.857 53.9104C199.422 53.005 199.277 52.3085 199.277 50.4975V22.1493C199.277 20.0597 199.422 19.3632 200.002 18.5274C200.655 17.4826 201.961 16.9254 203.267 16.9254C204.573 16.9254 205.734 17.4129 206.46 18.4577C206.822 19.0149 207.113 19.5721 207.185 20.9652C209.87 18.1791 213.643 16.7861 217.488 16.7861C221.478 16.7861 224.816 18.0398 227.138 20.2687C230.185 23.1244 231.056 26.7463 231.056 31.0647V50.5672C230.983 52.3781 230.91 53.005 230.403 53.9104ZM268.348 53.9801C267.768 55.0249 266.462 55.7214 265.011 55.7214C263.705 55.7214 262.762 55.2338 262.181 54.607C261.746 54.0498 261.383 53.4925 261.311 51.8209C258.191 54.7463 255.579 55.7911 250.79 55.7911C245.857 55.7911 242.592 54.6766 240.197 52.3085C238.166 50.2886 237.078 47.3632 237.078 44.1592C237.078 37.7512 241.794 33.0846 250.645 33.0846H261.021V30.7164C261.021 25.7015 258.554 23.2637 252.822 23.2637C249.702 23.2637 247.598 24.0995 245.349 25.8408C244.333 26.607 243.245 26.8856 242.519 26.8856C241.721 26.8856 240.85 26.5373 240.27 25.8408C239.617 25.1443 239.327 24.5174 239.327 23.4726C239.327 21.7314 240.996 20.199 243.027 19.0846C245.784 17.5522 248.977 16.7861 253.04 16.7861C263.56 16.7861 269.074 21.2438 269.074 29.9503V50.5672C268.929 52.3781 268.856 53.0746 268.348 53.9801ZM261.021 38.5871H251.734C247.09 38.5871 244.696 40.5373 244.696 44.0896C244.696 47.5722 247.09 49.4527 252.096 49.4527C254.926 49.4527 257.248 49.1741 259.279 47.2935C260.513 46.1791 261.021 44.4378 261.021 41.5821V38.5871ZM308.979 53.9104C308.471 54.9552 307.31 55.7214 305.641 55.7214C303.973 55.7214 302.812 54.9552 302.304 53.9104C301.869 53.005 301.723 52.3085 301.723 50.4975V32.1095C301.723 26.1194 298.241 23.6816 293.815 23.6816C289.389 23.6816 285.689 26.2587 285.689 32.1095V50.4975C285.689 52.3781 285.544 53.005 285.109 53.9104C284.601 54.9552 283.44 55.7214 281.771 55.7214C280.102 55.7214 278.941 54.9552 278.434 53.9104C277.998 53.005 277.853 52.3085 277.853 50.4975V22.1493C277.853 20.0597 277.998 19.3632 278.579 18.5274C279.232 17.4826 280.538 16.9254 281.844 16.9254C283.15 16.9254 284.31 17.4129 285.036 18.4577C285.399 19.0149 285.689 19.5721 285.762 20.9652C288.446 18.1791 292.219 16.7861 296.064 16.7861C300.055 16.7861 303.392 18.0398 305.714 20.2687C308.761 23.1244 309.632 26.7463 309.632 31.0647V50.5672C309.559 52.3781 309.487 53.005 308.979 53.9104ZM342.789 27.3035C341.773 27.3035 340.975 26.8856 339.669 25.8408C337.71 24.3085 336.114 23.7512 333.938 23.7512C330.818 23.7512 328.496 24.8657 326.755 27.0249C325.086 29.1841 324.36 31.9005 324.36 36.3582C324.36 40.7463 325.013 43.5323 326.755 45.6916C328.423 47.9204 330.818 49.0348 333.938 49.0348C336.114 49.0348 337.71 48.408 339.669 46.8756C340.975 45.8309 341.773 45.4129 342.789 45.4129C343.732 45.4129 344.676 45.9005 345.256 46.4577C345.982 47.1542 346.344 47.9901 346.344 48.9652C346.344 50.9154 344.458 52.3085 342.499 53.5622C340.032 55.0945 337.493 56 333.938 56C325.013 56 316.525 50.7761 316.525 36.4279C316.525 22.0796 325.013 16.8557 333.938 16.8557C337.493 16.8557 339.887 17.6219 342.499 19.2935C344.53 20.5473 346.344 21.9403 346.344 23.8906C346.344 24.8657 345.909 25.7015 345.256 26.398C344.676 26.8856 343.732 27.3035 342.789 27.3035ZM382.839 37.5423C381.823 38.5174 380.517 38.5174 379.357 38.5174H358.533C358.533 45.0647 362.089 49.3134 368.618 49.3134C371.376 49.3134 374.06 48.5473 376.164 46.8756C377.398 45.9005 378.341 45.4826 379.357 45.4826C380.953 45.4826 382.621 47.0149 382.621 48.7562C382.621 50.4975 380.59 52.1692 378.704 53.4229C376.237 55.0249 372.682 55.8607 368.473 55.8607C358.679 55.8607 350.77 50.8458 350.77 36.2886C350.77 23.6816 357.373 16.7164 367.385 16.7164C377.615 16.7164 383.782 23.9602 384 34.1294C383.927 35.2438 383.782 36.6368 382.839 37.5423ZM375.003 28C373.697 25.1443 371.013 23.194 367.24 23.194C363.467 23.194 360.71 25.1443 359.404 28C358.606 29.6717 358.461 30.8557 358.388 33.2239H376.019C375.946 30.8557 375.801 29.6717 375.003 28Z"
          fill="#1B55E9"/>
</svg>
