<svg width="109" height="16" viewBox="0 0 109 16" fill="none" xmlns="http://www.w3.org/2000/svg">
    <path
        d="M9.16912 3.20818C8.9213 3.20818 8.52893 3.06513 8.21917 2.86079C7.28986 2.28863 6.54642 2.08429 5.45191 2.08429C3.5933 2.08429 2.60205 3.08557 2.60205 4.5364C2.60205 5.10856 2.7466 5.63985 3.18028 5.98723C3.57265 6.33461 4.04763 6.55939 4.89433 6.70243L6.77358 6.98851C8.19852 7.21328 9.00391 7.54023 9.6854 8.15326C10.5321 8.92976 10.9658 10.0128 10.9658 11.3819C10.9658 14.2835 8.63219 16 5.328 16C3.44875 16 2.27163 15.6322 1.11516 14.9374C0.309766 14.447 0 14.1201 0 13.5479C0 13.2822 0.123905 12.9757 0.330417 12.7714C0.536929 12.567 0.764093 12.4853 1.03256 12.4853C1.34233 12.4853 1.61079 12.5875 2.04446 12.8736C3.09767 13.6092 4.02698 13.8748 5.38995 13.8748C7.45507 13.8748 8.63219 12.9962 8.63219 11.4432C8.63219 10.728 8.44633 10.1762 8.01266 9.80843C7.62028 9.46105 7.08335 9.25671 6.29861 9.15454L4.44 8.88889C3.18028 8.70498 2.20967 8.2963 1.48688 7.62197C0.702139 6.90677 0.330417 5.88506 0.330417 4.5977C0.330417 1.85951 2.31293 0 5.57582 0C7.0627 0 7.97135 0.245211 9.27238 0.91954C9.82996 1.20562 10.2223 1.61431 10.2223 2.12516C10.2223 2.37037 10.1397 2.63601 9.95386 2.86079C9.70605 3.06513 9.47889 3.20818 9.16912 3.20818ZM22.5304 13.8953C21.4772 15.2439 20.0523 15.8774 18.0904 15.8774H14.0221C13.6711 15.8774 13.2581 15.8774 12.907 15.53C12.5559 15.1826 12.5559 14.7739 12.5559 14.4061V1.57344C12.5559 1.22606 12.5559 0.796937 12.907 0.449555C13.2581 0.102174 13.6711 0.102171 14.0221 0.102171H18.0904C20.0523 0.102171 21.4979 0.75607 22.5717 2.10473C23.6662 3.51469 23.7282 5.16986 23.7282 7.96935C23.7075 10.8097 23.6249 12.4853 22.5304 13.8953ZM20.5066 3.33078C19.8458 2.57472 18.9371 2.24776 17.8013 2.24776H14.9308V13.7522H17.8013C18.9371 13.7522 19.8458 13.4457 20.5066 12.6692C21.2914 11.7905 21.3327 10.3193 21.3327 7.98978C21.3327 5.66028 21.2914 4.20945 20.5066 3.33078ZM37.0895 14.8148C37.1101 15.2031 36.9036 15.5504 36.5113 15.7957C36.3048 15.9183 36.0776 15.9591 35.8711 15.9591C35.2722 15.9591 35.0037 15.53 34.694 14.9783L30.7702 8.05109L28.0856 11.2797V14.3244C28.0856 14.917 28.0649 15.1009 27.8997 15.4074C27.7139 15.7344 27.3628 15.9591 26.8878 15.9591C26.4128 15.9591 26.0411 15.7344 25.8759 15.4074C25.7107 15.1009 25.6901 14.917 25.6901 14.3244V1.65517C25.6901 1.06258 25.7107 0.878675 25.8759 0.572162C26.0618 0.245214 26.4128 0.0204355 26.8878 0.0204355C27.3628 0.0204355 27.7345 0.245214 27.8997 0.572162C28.0649 0.878675 28.0856 1.06258 28.0856 1.65517V7.98978L34.0125 0.756069C34.4049 0.286082 34.6527 0.0408709 35.107 0.0408709C35.3755 0.0408709 35.6439 0.143041 35.8504 0.326949C36.1189 0.551725 36.2841 0.878675 36.2841 1.18519C36.2841 1.51214 36.1395 1.75735 35.7472 2.2069L32.4017 6.25287L36.6971 13.834C36.9862 14.3244 37.0895 14.5083 37.0895 14.8148Z"
        fill="#10233A" />
    <path
        d="M40.8753 15.9005C39.9919 15.9005 39.2729 15.1841 39.2729 14.3284C39.2729 13.4726 39.9919 12.7761 40.8753 12.7761C41.7587 12.7761 42.4778 13.4726 42.4778 14.3284C42.4778 15.1841 41.7587 15.9005 40.8753 15.9005ZM49.1753 2.10945C48.9698 2.20896 48.7233 2.24875 48.374 2.26866C47.5523 2.28856 47.2441 2.76617 47.2441 3.52239V4.91543H48.4562C48.8671 4.91543 49.0315 4.93532 49.2369 5.05473C49.4834 5.19403 49.6273 5.43284 49.6273 5.77114C49.6273 6.08955 49.4834 6.34826 49.2369 6.48756C49.0315 6.58707 48.8671 6.62687 48.4562 6.62687H47.2441V14.4677C47.2441 15.005 47.203 15.1841 47.0797 15.4428C46.9359 15.7413 46.6072 15.9602 46.1347 15.9602C45.6622 15.9602 45.3335 15.7413 45.1897 15.4428C45.0664 15.1841 45.0253 14.9851 45.0253 14.4677V6.62687H44.5117C44.1008 6.62687 43.9364 6.60697 43.731 6.48756C43.4845 6.34826 43.3407 6.10945 43.3407 5.77114C43.3407 5.45274 43.4845 5.19403 43.731 5.05473C43.9364 4.95522 44.1008 4.91543 44.5117 4.91543H45.0253V3.42289C45.0253 1.81095 45.9498 0.39801 48.0453 0.39801H48.2713C48.7233 0.39801 49.0109 0.45771 49.2164 0.577113C49.4834 0.716417 49.6683 0.975127 49.6683 1.33334C49.6272 1.69154 49.4423 1.97015 49.1753 2.10945ZM52.3802 2.66667C51.6406 2.66667 51.0243 2.06965 51.0243 1.33334C51.0243 0.597017 51.6201 0 52.3802 0C53.1403 0 53.7361 0.597017 53.7361 1.33334C53.7361 2.06965 53.1198 2.66667 52.3802 2.66667ZM52.3802 4.83582C52.8527 4.83582 53.1814 5.05473 53.3252 5.35323C53.4485 5.61194 53.4896 5.81095 53.4896 6.32836V14.4279C53.4896 14.9652 53.4485 15.1443 53.3252 15.403C53.1814 15.7015 52.8527 15.9204 52.3802 15.9204C51.9077 15.9204 51.579 15.7015 51.4352 15.403C51.3119 15.1443 51.2708 14.9453 51.2708 14.4279V6.32836C51.2708 5.79105 51.3119 5.61194 51.4352 5.35323C51.579 5.05473 51.9077 4.83582 52.3802 4.83582ZM64.8712 15.403C64.7274 15.7015 64.3987 15.9204 63.9262 15.9204C63.4537 15.9204 63.1249 15.7015 62.9811 15.403C62.8579 15.1443 62.8168 14.9453 62.8168 14.4279V9.17413C62.8168 7.46269 61.8306 6.76617 60.5774 6.76617C59.3242 6.76617 58.2765 7.50249 58.2765 9.17413V14.4279C58.2765 14.9652 58.2354 15.1443 58.1121 15.403C57.9683 15.7015 57.6396 15.9204 57.1671 15.9204C56.6945 15.9204 56.3658 15.7015 56.222 15.403C56.0987 15.1443 56.0577 14.9453 56.0577 14.4279V6.32836C56.0577 5.73135 56.0987 5.53234 56.2631 5.29353C56.448 4.99503 56.8178 4.83582 57.1876 4.83582C57.5574 4.83582 57.8861 4.97512 58.0915 5.27363C58.1943 5.43284 58.2765 5.59204 58.297 5.99005C59.0571 5.19403 60.1255 4.79602 61.2143 4.79602C62.3443 4.79602 63.2893 5.15423 63.9467 5.79105C64.8096 6.60697 65.0561 7.64179 65.0561 8.87562V14.4478C65.0356 14.9652 65.015 15.1443 64.8712 15.403ZM75.616 15.4229C75.4516 15.7214 75.0818 15.9204 74.6709 15.9204C74.3011 15.9204 74.034 15.7811 73.8697 15.602C73.7464 15.4428 73.6437 15.2836 73.6231 14.806C72.7397 15.6418 72.0001 15.9403 70.6442 15.9403C69.2472 15.9403 68.3227 15.6219 67.6447 14.9453C67.0695 14.3682 66.7613 13.5323 66.7613 12.6169C66.7613 10.7861 68.0967 9.45274 70.6031 9.45274H73.541V8.77612C73.541 7.34328 72.8425 6.64677 71.2194 6.64677C70.336 6.64677 69.7402 6.88557 69.1034 7.38309C68.8158 7.60199 68.5076 7.68159 68.3021 7.68159C68.0761 7.68159 67.8296 7.58209 67.6653 7.38309C67.4804 7.18408 67.3982 7.00498 67.3982 6.70647C67.3982 6.20896 67.8707 5.77114 68.4459 5.45274C69.2266 5.01492 70.1306 4.79602 71.2811 4.79602C74.26 4.79602 75.8214 6.06965 75.8214 8.55721V14.4478C75.7803 14.9652 75.7598 15.1642 75.616 15.4229ZM73.541 11.0249H70.9113C69.5964 11.0249 68.9185 11.5821 68.9185 12.597C68.9185 13.592 69.5964 14.1294 71.014 14.1294C71.8152 14.1294 72.4726 14.0498 73.0479 13.5124C73.3971 13.194 73.541 12.6965 73.541 11.8806V11.0249ZM87.1208 15.403C86.977 15.7015 86.6483 15.9204 86.1758 15.9204C85.7033 15.9204 85.3746 15.7015 85.2308 15.403C85.1075 15.1443 85.0664 14.9453 85.0664 14.4279V9.17413C85.0664 7.46269 84.0803 6.76617 82.827 6.76617C81.5738 6.76617 80.5261 7.50249 80.5261 9.17413V14.4279C80.5261 14.9652 80.485 15.1443 80.3617 15.403C80.2179 15.7015 79.8892 15.9204 79.4167 15.9204C78.9441 15.9204 78.6154 15.7015 78.4716 15.403C78.3484 15.1443 78.3073 14.9453 78.3073 14.4279V6.32836C78.3073 5.73135 78.3484 5.53234 78.5127 5.29353C78.6976 4.99503 79.0674 4.83582 79.4372 4.83582C79.807 4.83582 80.1357 4.97512 80.3412 5.27363C80.4439 5.43284 80.5261 5.59204 80.5466 5.99005C81.3067 5.19403 82.3751 4.79602 83.4639 4.79602C84.5939 4.79602 85.5389 5.15423 86.1963 5.79105C87.0592 6.60697 87.3057 7.64179 87.3057 8.87562V14.4478C87.2852 14.9652 87.2646 15.1443 87.1208 15.403ZM96.6945 7.801C96.4069 7.801 96.1809 7.68159 95.8111 7.38309C95.2564 6.94527 94.8044 6.78607 94.1881 6.78607C93.3047 6.78607 92.6473 7.10448 92.1542 7.7214C91.6817 8.33831 91.4762 9.11443 91.4762 10.3881C91.4762 11.6418 91.6611 12.4378 92.1542 13.0547C92.6267 13.6915 93.3047 14.0099 94.1881 14.0099C94.8044 14.0099 95.2564 13.8309 95.8111 13.393C96.1809 13.0945 96.4069 12.9751 96.6945 12.9751C96.9616 12.9751 97.2287 13.1144 97.393 13.2736C97.5985 13.4726 97.7012 13.7114 97.7012 13.9901C97.7012 14.5473 97.1671 14.9453 96.6124 15.3035C95.9138 15.7413 95.1948 16 94.1881 16C91.6611 16 89.2574 14.5075 89.2574 10.408C89.2574 6.30846 91.6611 4.81592 94.1881 4.81592C95.1948 4.81592 95.8728 5.03483 96.6124 5.51244C97.1876 5.87065 97.7012 6.26866 97.7012 6.82587C97.7012 7.10448 97.5779 7.34328 97.393 7.54229C97.2287 7.68159 96.9616 7.801 96.6945 7.801ZM108.035 10.7264C107.747 11.005 107.378 11.005 107.049 11.005H101.153C101.153 12.8756 102.159 14.0896 104.008 14.0896C104.789 14.0896 105.549 13.8707 106.145 13.393C106.494 13.1144 106.761 12.995 107.049 12.995C107.501 12.995 107.973 13.4328 107.973 13.9303C107.973 14.4279 107.398 14.9055 106.864 15.2637C106.166 15.7214 105.159 15.9602 103.967 15.9602C101.194 15.9602 98.9544 14.5274 98.9544 10.3682C98.9544 6.76617 100.824 4.77612 103.659 4.77612C106.556 4.77612 108.302 6.84577 108.364 9.75124C108.343 10.0697 108.302 10.4677 108.035 10.7264ZM105.816 8C105.446 7.18408 104.686 6.62687 103.618 6.62687C102.55 6.62687 101.769 7.18408 101.399 8C101.173 8.47761 101.132 8.81592 101.112 9.49254H106.104C106.083 8.81592 106.042 8.47761 105.816 8Z"
        fill="#10233A" />
</svg>
