<svg width="57" height="48" viewBox="0 0 57 48" fill="none" xmlns="http://www.w3.org/2000/svg">
<path d="M6.10714 0C2.75139 0 0 2.70312 0 6V42C0 45.2969 2.75139 48 6.10714 48H50.8929C54.2486 48 57 45.2969 57 42V6C57 2.70312 54.2486 0 50.8929 0H6.10714ZM6.10714 4H50.8929C52.0379 4 52.9286 4.875 52.9286 6V33.1719L38.6786 19.1719L30.5357 27.1719L18.3214 15.1719L4.07143 29.1719V6C4.07143 4.875 4.96205 4 6.10714 4ZM44.7857 8C42.5433 8 40.7143 9.79688 40.7143 12C40.7143 14.2031 42.5433 16 44.7857 16C47.0282 16 48.8571 14.2031 48.8571 12C48.8571 9.79688 47.0282 8 44.7857 8ZM18.3214 20.8281L33.1758 35.4219L36.0385 32.5781L33.4143 30L38.6786 24.8281L52.9286 38.8281V42C52.9286 43.125 52.0379 44 50.8929 44H6.10714C4.96205 44 4.07143 43.125 4.07143 42V34.8281L18.3214 20.8281Z" fill="#D3E1EC"/>
</svg>
