<svg width="24" height="36" viewBox="0 0 24 36" fill="none" xmlns="http://www.w3.org/2000/svg">
<path fill-rule="evenodd" clip-rule="evenodd" d="M17.7136 25.7144C20.7061 21.4305 24 16.7153 24 12C24 5.37258 18.6274 0 12 0C5.37258 0 0 5.37258 0 12C0 16.7153 3.29389 21.4305 6.28639 25.7144C8.69794 29.1665 10.9138 32.3386 11.0523 35.0046C11.0795 35.5274 11.4765 36 12 36C12.5235 36 12.9205 35.5274 12.9477 35.0046C13.0862 32.3386 15.3021 29.1665 17.7136 25.7144ZM12 17C14.7614 17 17 14.7614 17 12C17 9.23858 14.7614 7 12 7C9.23858 7 7 9.23858 7 12C7 14.7614 9.23858 17 12 17Z" fill="#1B55E9"/>
</svg>
