<svg width="24" height="24" viewBox="0 0 24 24" fill="none" xmlns="http://www.w3.org/2000/svg">
<path d="M12 11.6698C9.87176 11.6698 8 9.94286 8 7.83492C8 5.72698 9.87176 4 12 4C14.1282 4 16 5.72698 16 7.83492C16 9.94286 14.1282 11.6698 12 11.6698ZM12 5.5C10.5641 5.5 9.5 6.4127 9.5 7.83492C9.5 9.25715 10.5641 10.5 12 10.5C13.4359 10.5 14.5 9.25715 14.5 7.83492C14.5 6.4127 13.4359 5.5 12 5.5Z" fill="black"/>
<path d="M12 20.5C9.05131 20.5 5.79303 20 5.79303 16.7238C5.79303 13.2952 8.74362 10.5 12 10.5C15.2564 10.5 18.1752 13.2952 18.1752 16.7238C18.1752 20 14.9487 20.5 12 20.5ZM12 12C9.48721 12 7.50003 14.0317 7.50003 16.7238C7.50003 18.3492 8.15388 19 12 19C15.8462 19 16.5 18.3492 16.5 16.7238C16.5 14.0317 14.5129 12 12 12Z" fill="black"/>
</svg>
