<svg width="24" height="24" viewBox="0 0 24 24" fill="none" xmlns="http://www.w3.org/2000/svg">
<path fill-rule="evenodd" clip-rule="evenodd" d="M10.5 5C10.5 4.44772 10.9477 4 11.5 4H12.5C13.0523 4 13.5 4.44772 13.5 5L13.62 5.84033C13.7275 6.59275 14.602 6.95495 15.21 6.49891L15.8891 5.9896C16.2796 5.59907 16.9128 5.59907 17.3033 5.9896L18.0104 6.6967C18.4009 7.08723 18.4009 7.72039 18.0104 8.11092L17.5011 8.79C17.0451 9.39805 17.4073 10.2725 18.1597 10.38L19 10.5C19.5523 10.5 20 10.9477 20 11.5V12.5C20 13.0523 19.5523 13.5 19 13.5L18.1597 13.62C17.4073 13.7275 17.0451 14.602 17.5011 15.21L18.0104 15.8891C18.4009 16.2796 18.4009 16.9128 18.0104 17.3033L17.3033 18.0104C16.9128 18.4009 16.2796 18.4009 15.8891 18.0104L15.21 17.5011C14.602 17.0451 13.7275 17.4073 13.62 18.1597L13.5 19C13.5 19.5523 13.0523 20 12.5 20H11.5C10.9477 20 10.5 19.5523 10.5 19L10.38 18.1597C10.2725 17.4073 9.39805 17.0451 8.79 17.5011L8.11091 18.0104C7.72039 18.4009 7.08722 18.4009 6.6967 18.0104L5.98959 17.3033C5.59907 16.9128 5.59907 16.2796 5.98959 15.8891L6.49891 15.21C6.95495 14.602 6.59275 13.7275 5.84033 13.62L5 13.5C4.44772 13.5 4 13.0523 4 12.5V11.5C4 10.9477 4.44772 10.5 5 10.5L5.84033 10.38C6.59275 10.2725 6.95494 9.39805 6.49891 8.79L5.98959 8.11092C5.59907 7.72039 5.59907 7.08723 5.98959 6.6967L6.6967 5.9896C7.08722 5.59907 7.72039 5.59907 8.11091 5.9896L8.79 6.49891C9.39805 6.95495 10.2725 6.59275 10.38 5.84033L10.5 5ZM12 16C14.2091 16 16 14.2091 16 12C16 9.79086 14.2091 8 12 8C9.79086 8 8 9.79086 8 12C8 14.2091 9.79086 16 12 16Z" fill="#161515"/>
<path d="M13.6 12C13.6 12.8837 12.8837 13.6 12 13.6C11.1163 13.6 10.4 12.8837 10.4 12C10.4 11.1163 11.1163 10.4 12 10.4C12.8837 10.4 13.6 11.1163 13.6 12Z" fill="#161515"/>
</svg>
