<svg width="24" height="24" viewBox="0 0 24 24" fill="none" xmlns="http://www.w3.org/2000/svg">
<path fill-rule="evenodd" clip-rule="evenodd" d="M14.125 4H7.625C6.73125 4 6 4.72001 6 5.60001V18.4C6 19.28 6.72313 20 7.61688 20H17.375C18.2688 20 19 19.28 19 18.4V8.79999L14.125 4ZM17.3751 18.4H7.62512V5.59998H13.3126V9.59998H17.3751V18.4Z" fill="#161515"/>
<path d="M12.9429 15.0847C12.9429 14.8548 12.8802 14.6725 12.7548 14.5379C12.6321 14.4005 12.4221 14.2744 12.1249 14.1594C11.8277 14.0444 11.5714 13.9309 11.356 13.8187C11.1405 13.7037 10.9551 13.5733 10.7997 13.4275C10.647 13.2789 10.527 13.1051 10.4398 12.906C10.3552 12.7069 10.3129 12.4699 10.3129 12.1951C10.3129 11.7212 10.4602 11.3329 10.7547 11.0301C11.0492 10.7272 11.4405 10.5506 11.9286 10.5001V9.93646C11.9286 9.75063 12.0751 9.59998 12.2558 9.59998C12.4365 9.59998 12.583 9.75063 12.583 9.93646V10.5127C13.0656 10.5828 13.4433 10.7903 13.716 11.1352C13.8994 11.3653 14.0211 11.6418 14.0812 11.9645C14.1323 12.2394 13.9044 12.4685 13.6323 12.4685H13.4357C13.1635 12.4685 12.9623 12.2337 12.874 11.969C12.8408 11.8695 12.7956 11.785 12.7384 11.7156C12.6048 11.5474 12.4249 11.4633 12.1985 11.4633C11.975 11.4633 11.8018 11.5292 11.6791 11.6609C11.5564 11.7899 11.495 11.9694 11.495 12.1993C11.495 12.4124 11.555 12.5835 11.675 12.7125C11.795 12.8415 12.0172 12.9733 12.3417 13.1078C12.6689 13.2424 12.9375 13.3701 13.1475 13.4906C13.3574 13.6084 13.5347 13.743 13.6792 13.8944C13.8237 14.043 13.9341 14.2141 14.0105 14.4075C14.0868 14.5982 14.125 14.8212 14.125 15.0763C14.125 15.553 13.9805 15.94 13.6915 16.2372C13.4024 16.5344 13.0043 16.7097 12.4971 16.763V17.2656C12.4971 17.4503 12.3515 17.6 12.1719 17.6C11.9923 17.6 11.8467 17.4503 11.8467 17.2656V16.7672C11.2877 16.7055 10.8542 16.5022 10.5461 16.1573C10.3358 15.9178 10.1979 15.6245 10.1324 15.2774C10.0806 15.0026 10.3086 14.7735 10.5807 14.7735H10.7773C11.0494 14.7735 11.2516 15.009 11.3455 15.2716C11.3828 15.3762 11.434 15.4667 11.4991 15.5432C11.6545 15.7198 11.8768 15.8082 12.1658 15.8082C12.4058 15.8082 12.5952 15.7437 12.7343 15.6147C12.8734 15.4829 12.9429 15.3062 12.9429 15.0847Z" fill="#161515"/>
</svg>
