<svg width="14" height="16" viewBox="0 0 14 16" fill="none" xmlns="http://www.w3.org/2000/svg">
<path fill-rule="evenodd" clip-rule="evenodd" d="M1.1346 0.63904C1.54093 0.229869 2.09203 0 2.66667 0H8.44444C8.63599 0 8.81969 0.0766231 8.95513 0.213013L13.2885 4.57665C13.4239 4.71304 13.5 4.89802 13.5 5.09091V13.8182C13.5 14.3968 13.2717 14.9518 12.8654 15.361C12.4591 15.7701 11.908 16 11.3333 16H2.66667C2.09203 16 1.54093 15.7701 1.1346 15.361C0.728273 14.9518 0.5 14.3968 0.5 13.8182V2.18182C0.5 1.60316 0.728273 1.04821 1.1346 0.63904ZM2.66667 1.45455C2.47512 1.45455 2.29142 1.53117 2.15598 1.66756C2.02054 1.80395 1.94444 1.98893 1.94444 2.18182V13.8182C1.94444 14.0111 2.02054 14.1961 2.15598 14.3324C2.29142 14.4688 2.47512 14.5455 2.66667 14.5455H11.3333C11.5249 14.5455 11.7086 14.4688 11.844 14.3324C11.9795 14.1961 12.0556 14.0111 12.0556 13.8182V5.39216L8.14529 1.45455H2.66667Z" fill="#3762FD"/>
<path fill-rule="evenodd" clip-rule="evenodd" d="M8.44444 0C8.84332 0 9.16667 0.325611 9.16667 0.727273V4.36364H12.7778C13.1767 4.36364 13.5 4.68925 13.5 5.09091C13.5 5.49257 13.1767 5.81818 12.7778 5.81818H8.44444C8.04557 5.81818 7.72222 5.49257 7.72222 5.09091V0.727273C7.72222 0.325611 8.04557 0 8.44444 0Z" fill="#3762FD"/>
<path fill-rule="evenodd" clip-rule="evenodd" d="M3.38889 8.72727C3.38889 8.32561 3.71224 8 4.11111 8H9.88889C10.2878 8 10.6111 8.32561 10.6111 8.72727C10.6111 9.12893 10.2878 9.45455 9.88889 9.45455H4.11111C3.71224 9.45455 3.38889 9.12893 3.38889 8.72727Z" fill="#3762FD"/>
<path fill-rule="evenodd" clip-rule="evenodd" d="M3.38889 11.6364C3.38889 11.2347 3.71224 10.9091 4.11111 10.9091H9.88889C10.2878 10.9091 10.6111 11.2347 10.6111 11.6364C10.6111 12.038 10.2878 12.3636 9.88889 12.3636H4.11111C3.71224 12.3636 3.38889 12.038 3.38889 11.6364Z" fill="#3762FD"/>
<path fill-rule="evenodd" clip-rule="evenodd" d="M3.38889 5.81818C3.38889 5.41652 3.71224 5.09091 4.11111 5.09091H5.55556C5.95443 5.09091 6.27778 5.41652 6.27778 5.81818C6.27778 6.21984 5.95443 6.54545 5.55556 6.54545H4.11111C3.71224 6.54545 3.38889 6.21984 3.38889 5.81818Z" fill="#3762FD"/>
</svg>
