<svg width="24" height="24" viewBox="0 0 24 24" fill="none" xmlns="http://www.w3.org/2000/svg">
<path fill-rule="evenodd" clip-rule="evenodd" d="M11.908 16.7952L11.9781 16.7868L12.1192 16.757L12.2456 16.7145L12.3808 16.6504L12.5143 16.5644C12.5612 16.5296 12.606 16.491 12.6485 16.4485L16.2485 12.8485C16.7171 12.3799 16.7171 11.6201 16.2485 11.1515C15.7799 10.6828 15.0201 10.6828 14.5514 11.1515L13 12.7032L13 1.2C13 0.537259 12.4627 0 11.8 0C11.1372 0 10.6 0.537259 10.6 1.2V12.7032L9.0485 11.1515C8.57987 10.6828 7.82008 10.6828 7.35145 11.1515C6.88282 11.6201 6.88282 12.3799 7.35145 12.8485L10.9514 16.4485L11.0494 16.5364L11.1751 16.6248L11.2921 16.6876L11.4254 16.7403L11.5591 16.7757L11.7097 16.7967L11.8 16.8L11.908 16.7952ZM23.9919 17.8601C23.9226 17.2633 23.4154 16.8 22.8 16.8C22.1373 16.8 21.6 17.3373 21.6 18V20.4L21.5919 20.5399C21.5226 21.1368 21.0154 21.6 20.4 21.6H3.6L3.46005 21.5919C2.86325 21.5226 2.4 21.0154 2.4 20.4V18L2.39193 17.8601C2.32261 17.2633 1.8154 16.8 1.2 16.8C0.537258 16.8 0 17.3373 0 18V20.4L0.00611123 20.6115C0.115607 22.5013 1.68278 24 3.6 24H20.4L20.6115 23.9939C22.5013 23.8844 24 22.3172 24 20.4V18L23.9919 17.8601Z" fill="currentColor"/>
</svg>
