<svg width="24" height="24" viewBox="0 0 24 24" fill="none" xmlns="http://www.w3.org/2000/svg">
<path fill-rule="evenodd" clip-rule="evenodd" d="M7.92982 5.92857C7.92982 5.41574 8.36968 5 8.91228 5H19.0175C19.5601 5 20 5.41574 20 5.92857C20 6.44141 19.5601 6.85714 19.0175 6.85714H8.91228C8.36968 6.85714 7.92982 6.44141 7.92982 5.92857Z" fill="#161515"/>
<path fill-rule="evenodd" clip-rule="evenodd" d="M7.92982 11.5C7.92982 10.9872 8.36968 10.5714 8.91228 10.5714H19.0175C19.5601 10.5714 20 10.9872 20 11.5C20 12.0128 19.5601 12.4286 19.0175 12.4286H8.91228C8.36968 12.4286 7.92982 12.0128 7.92982 11.5Z" fill="#161515"/>
<path fill-rule="evenodd" clip-rule="evenodd" d="M7.92982 17.0714C7.92982 16.5586 8.36968 16.1429 8.91228 16.1429H19.0175C19.5601 16.1429 20 16.5586 20 17.0714C20 17.5843 19.5601 18 19.0175 18H8.91228C8.36968 18 7.92982 17.5843 7.92982 17.0714Z" fill="#161515"/>
<path d="M5.96491 5.92857C5.96491 6.44141 5.52505 6.85714 4.98246 6.85714C4.43986 6.85714 4 6.44141 4 5.92857C4 5.41574 4.43986 5 4.98246 5C5.52505 5 5.96491 5.41574 5.96491 5.92857Z" fill="#161515"/>
<path d="M5.96491 11.5C5.96491 12.0128 5.52505 12.4286 4.98246 12.4286C4.43986 12.4286 4 12.0128 4 11.5C4 10.9872 4.43986 10.5714 4.98246 10.5714C5.52505 10.5714 5.96491 10.9872 5.96491 11.5Z" fill="#161515"/>
<path d="M5.96491 17.0714C5.96491 17.5843 5.52505 18 4.98246 18C4.43986 18 4 17.5843 4 17.0714C4 16.5586 4.43986 16.1429 4.98246 16.1429C5.52505 16.1429 5.96491 16.5586 5.96491 17.0714Z" fill="#161515"/>
</svg>
