<svg width="24" height="24" viewBox="0 0 24 24" fill="none" xmlns="http://www.w3.org/2000/svg">
<path d="M8.00025 15.9223C7.74425 15.9223 7.48825 15.825 7.29325 15.6316L4.29325 12.6549C3.90225 12.2669 3.90225 11.6398 4.29325 11.2519L7.29325 8.27521C7.68425 7.88725 8.31625 7.88725 8.70725 8.27521C9.09825 8.66317 9.09825 9.29025 8.70725 9.67821L6.41425 11.9534L8.70725 14.2286C9.09825 14.6165 9.09825 15.2436 8.70725 15.6316C8.51225 15.825 8.25625 15.9223 8.00025 15.9223V15.9223ZM16.0002 15.9223C15.7442 15.9223 15.4883 15.825 15.2933 15.6316C14.9023 15.2436 14.9023 14.6165 15.2933 14.2286L17.5863 11.9534L15.2933 9.67821C14.9023 9.29025 14.9023 8.66317 15.2933 8.27521C15.6843 7.88725 16.3162 7.88725 16.7072 8.27521L19.7072 11.2519C20.0982 11.6398 20.0982 12.2669 19.7072 12.6549L16.7072 15.6316C16.5122 15.825 16.2562 15.9223 16.0002 15.9223V15.9223ZM11.0322 18L10.8403 17.9811C10.2983 17.877 9.94425 17.3551 10.0503 16.8173L12.0192 6.80275C12.1242 6.26496 12.6513 5.91272 13.1923 6.01889C13.7343 6.12307 14.0883 6.64498 13.9823 7.18277L12.0132 17.1973C11.9192 17.6716 11.5012 18 11.0322 18Z" fill="#161515"/>
</svg>
