<svg width="16" height="12" viewBox="0 0 16 12" fill="none" xmlns="http://www.w3.org/2000/svg">
<path fill-rule="evenodd" clip-rule="evenodd" d="M0 2.57143C0 1.15127 1.07452 0 2.4 0H12C13.3255 0 14.4 1.15127 14.4 2.57143V9.42857C14.4 10.8487 13.3255 12 12 12H2.4C1.07452 12 0 10.8487 0 9.42857V2.57143ZM2.4 1.71429C1.95817 1.71429 1.6 2.09804 1.6 2.57143V9.42857C1.6 9.90196 1.95817 10.2857 2.4 10.2857H12C12.4418 10.2857 12.8 9.90196 12.8 9.42857V2.57143C12.8 2.09804 12.4418 1.71429 12 1.71429H2.4Z" fill="currentColor"/>
<path fill-rule="evenodd" clip-rule="evenodd" d="M11.2 4.28571C10.3163 4.28571 9.6 5.05323 9.6 6C9.6 6.94677 10.3163 7.71429 11.2 7.71429H14.4C15.2837 7.71429 16 6.94677 16 6C16 5.05323 15.2837 4.28571 14.4 4.28571H11.2ZM11.2 6.85714C11.6418 6.85714 12 6.47339 12 6C12 5.52661 11.6418 5.14286 11.2 5.14286C10.7582 5.14286 10.4 5.52661 10.4 6C10.4 6.47339 10.7582 6.85714 11.2 6.85714Z" fill="currentColor"/>
</svg>
