<svg width="23" height="24" viewBox="0 0 23 24" fill="none" xmlns="http://www.w3.org/2000/svg">
<path d="M7.16476 8.17468C7.16476 7.37468 7.54119 6.66188 8.0569 6.18188C8.44714 5.83282 8.92119 5.60002 9.4369 5.49815V5.20722C9.4369 4.61095 9.8969 4.11628 10.4824 4.11628C11.0538 4.11628 11.5279 4.61095 11.5279 5.20722V5.44002H11.9879C12.5733 5.44002 13.0333 5.92002 13.0333 6.53095C13.0333 7.12722 12.5733 7.62188 11.9879 7.62188H10.0224C9.77142 7.62188 9.56238 7.70908 9.4369 7.82562C9.29762 7.95655 9.26951 8.05842 9.25571 8.17468C9.26977 8.27655 9.29762 8.39282 9.4369 8.50935C9.56238 8.62562 9.77142 8.72748 10.0224 8.72748H10.9283C11.6809 8.72748 12.3781 9.00375 12.9076 9.48375C13.4233 9.94908 13.7997 10.6619 13.7857 11.4619C13.7997 12.2619 13.4233 12.9747 12.9076 13.4547C12.5174 13.8038 12.0433 14.0366 11.5276 14.1384V14.4293C11.5276 15.0403 11.0535 15.5203 10.4821 15.5203C9.89665 15.5203 9.43665 15.0403 9.43665 14.4293V14.1966H8.97665C8.39117 14.1966 7.93117 13.7165 7.93117 13.1056C7.93117 12.5093 8.39117 12.0147 8.97665 12.0147H10.9281C11.1928 12.0147 11.4021 11.9275 11.5273 11.811C11.6666 11.68 11.6947 11.5781 11.6947 11.4619C11.6947 11.36 11.6669 11.2438 11.5273 11.1272C11.4019 11.011 11.1928 10.9091 10.9281 10.9091H10.0221C9.28331 10.9091 8.58641 10.6328 8.05665 10.1528C7.54119 9.68722 7.16476 8.97468 7.16476 8.17468Z" fill="currentColor"/>
<path d="M17.1036 3.33093C18.8321 3.46187 20.2259 4.7856 20.5605 6.51627C20.7836 6.22533 20.909 5.8472 20.909 5.4544V4C20.909 3.50533 20.7138 3.05467 20.3933 2.72C20.0726 2.38533 19.6407 2.18187 19.1667 2.18187H17.1036V3.33093ZM11.2352 21.8181H16.811C17.7729 21.8181 18.5533 21.0035 18.5533 20V7.31627C18.5533 6.4144 17.9259 5.6872 17.1036 5.5416V16C17.1036 18.2109 15.389 20 13.2702 20H9.49261C9.49261 21.0037 10.2733 21.8181 11.2352 21.8181ZM3.86119 7.2728V2.18187H3.83333C2.85762 2.18187 2.09096 2.99653 2.09096 4V5.45467C2.09096 6.4584 2.85762 7.2728 3.83333 7.2728H3.86119ZM7.69452 17.8181H13.2702C14.2321 17.8181 15.0126 17.0035 15.0126 16V2.18187H5.95215V16C5.95215 17.0037 6.73261 17.8181 7.69452 17.8181ZM11.2352 24C9.11643 24 7.40191 22.2109 7.40191 20V19.9853C5.42263 19.8253 3.86119 18.1091 3.86119 16V9.45467H3.83333C1.70072 9.45467 0 7.65093 0 5.45467V4C0 1.80373 1.70072 0 3.83333 0H19.1667C21.2855 0 23 1.78907 23 4V5.45467C23 7.1128 22.0381 8.52373 20.6443 9.13467V20C20.6443 22.2109 18.9298 24 16.811 24H11.2352Z" fill="currentColor"/>
</svg>
