<svg width="24" height="24" viewBox="0 0 24 24" fill="none" xmlns="http://www.w3.org/2000/svg">
<path d="M8.44732 17.7812C9.51903 18.6435 10.5342 19 12 19C15.2208 19 17.8785 16.5189 18.267 13.3125H19.2092C19.8397 13.3125 20.2159 12.5893 19.8661 12.0493L18.1833 9.45156C17.8708 8.96915 17.182 8.96915 16.8695 9.45156L15.1867 12.0493C14.837 12.5893 15.2131 13.3125 15.8436 13.3125H16.6714C16.2956 15.6181 14.3471 17.375 12 17.375C11.1369 17.375 10.3277 17.1374 9.63074 16.7223L8.44732 17.7812Z" fill="#161515"/>
<path d="M14.3692 8.27765C13.6723 7.86258 12.8631 7.625 12 7.625C9.65286 7.625 7.70443 9.38186 7.32857 11.6875H8.15637C8.78693 11.6875 9.16303 12.4107 8.81326 12.9507L7.13048 15.5484C6.81799 16.0308 6.1292 16.0308 5.8167 15.5484L4.13392 12.9507C3.78415 12.4107 4.16026 11.6875 4.79081 11.6875H5.73297C6.12147 8.48112 8.7792 6 12 6C13.4658 6 14.481 6.35653 15.5527 7.21875L14.3692 8.27765Z" fill="#161515"/>
</svg>
