<svg width="24" height="20" viewBox="0 0 24 20" fill="none" xmlns="http://www.w3.org/2000/svg">
<path d="M6.67098 18.125C8.27855 19.4515 9.80136 20 12 20C16.8312 20 20.8178 16.1829 21.4005 11.25H22.8138C23.7596 11.25 24.3238 10.1373 23.7991 9.30662L21.275 5.31009C20.8062 4.56793 19.773 4.56793 19.3043 5.31009L16.7801 9.30662C16.2554 10.1373 16.8196 11.25 17.7654 11.25H19.0071C18.4434 14.7971 15.5207 17.5 12 17.5C10.7053 17.5 9.49149 17.1345 8.44611 16.4959L6.67098 18.125Z" fill="currentColor"/>
<path d="M15.5539 3.50408C14.5085 2.8655 13.2947 2.5 12 2.5C8.47929 2.5 5.55665 5.20286 4.99286 8.75H6.23456C7.1804 8.75 7.74455 9.86268 7.21989 10.6934L4.69573 14.6899C4.22698 15.4321 3.19379 15.4321 2.72505 14.6899L0.200882 10.6934C-0.323775 9.86268 0.240383 8.75 1.18622 8.75H2.59945C3.18221 3.81711 7.16879 0 12 0C14.1986 0 15.7215 0.548515 17.3291 1.875L15.5539 3.50408Z" fill="currentColor"/>
</svg>
