<svg width="24" height="24" viewBox="0 0 24 24" fill="none" xmlns="http://www.w3.org/2000/svg">
<path d="M18.4 6.4H11.104L10.4 4H5.6C4.72 4 4 4.72 4 5.6V16C4 16.88 4.72 17.6 5.6 17.6H11.2L12 20H18.4C19.28 20 20 19.28 20 18.4V8C20 7.12 19.28 6.4 18.4 6.4ZM8.132 14.068C6.328 14.068 4.864 12.6 4.864 10.8C4.864 9 6.332 7.532 8.132 7.532C8.964 7.532 9.72 7.828 10.32 8.384L10.372 8.436L9.396 9.38L9.348 9.336C9.12 9.12 8.724 8.868 8.132 8.868C7.084 8.868 6.232 9.736 6.232 10.804C6.232 11.872 7.084 12.74 8.132 12.74C9.228 12.74 9.704 12.04 9.832 11.572H8.064V10.332H11.224L11.236 10.388C11.268 10.556 11.28 10.704 11.28 10.872C11.276 12.756 9.984 14.068 8.132 14.068V14.068ZM12.96 12.708C13.228 13.188 13.552 13.648 13.912 14.068L13.484 14.492L12.96 12.708V12.708ZM13.576 12.092H12.784L12.54 11.26H15.736C15.736 11.26 15.464 12.312 14.488 13.448C14.06 12.956 13.764 12.476 13.576 12.092V12.092ZM19.2 18.4C19.2 18.84 18.84 19.2 18.4 19.2H12.8L14.4 17.6L13.748 15.388L14.484 14.652L16.632 16.8L17.216 16.216L15.052 14.068C15.772 13.24 16.332 12.268 16.584 11.264H17.6V10.432H14.692V9.6H13.86V10.432H12.292L11.34 7.2H18.4C18.84 7.2 19.2 7.56 19.2 8V18.4Z" fill="#161515"/>
</svg>
