<svg width="24" height="24" viewBox="0 0 24 24" fill="none" xmlns="http://www.w3.org/2000/svg">
<path fill-rule="evenodd" clip-rule="evenodd" d="M0 12C0 18.6274 5.37258 24 12 24C18.6274 24 24 18.6274 24 12C24 5.37258 18.6274 0 12 0C5.37258 0 0 5.37258 0 12ZM21.8182 11.9999C21.8182 17.4223 17.4224 21.8181 12 21.8181C6.57757 21.8181 2.18182 17.4223 2.18182 11.9999C2.18182 6.57748 6.57757 2.18173 12 2.18173C17.4224 2.18173 21.8182 6.57748 21.8182 11.9999ZM13.0948 14.1799H14.185V16.3617H9.82139V14.1799H10.9123V11.9981H9.82139V9.81624H13.0948V14.1799ZM13.0916 7.63405C13.0916 8.23654 12.6031 8.72496 12.0004 8.72496C11.3977 8.72496 10.9091 8.23654 10.9091 7.63405C10.9091 7.03156 11.3977 6.54314 12.0004 6.54314C12.6031 6.54314 13.0916 7.03156 13.0916 7.63405Z" fill="currentColor"/>
</svg>
