<svg xmlns="http://www.w3.org/2000/svg" width="17" height="18" fill="none"><path fill="currentColor" d="M16.859 8.783l-.003-.009a.595.595 0 00-.13-.194l-3.342-3.343a.594.594 0 10-.84.84l2.326 2.328H6.36a.595.595 0 000 1.19h8.51l-2.327 2.327a.594.594 0 10.841.841l3.343-3.343a.597.597 0 00.13-.194l.002-.01A.598.598 0 0016.901 9a.598.598 0 00-.042-.217zM9.892 10.19a.595.595 0 00-.595.595v2.655a3.374 3.374 0 01-3.37 3.37H4.56a3.374 3.374 0 01-3.37-3.37V4.56a3.374 3.374 0 013.37-3.37h1.367a3.374 3.374 0 013.37 3.37v2.49a.595.595 0 001.19 0V4.56A4.565 4.565 0 005.927 0H4.56A4.565 4.565 0 000 4.56v8.88A4.565 4.565 0 004.56 18h1.367a4.565 4.565 0 004.56-4.56v-2.655a.595.595 0 00-.595-.595z"/></svg>