<svg width="16" height="14" viewBox="0 0 16 14" fill="none" xmlns="http://www.w3.org/2000/svg">
<path d="M7.6463 11.0637H8.37054C8.50528 11.0637 8.62318 10.9413 8.62318 10.8015V10.1374L8.69055 10.1199C9.46531 9.91014 10.038 9.24597 10.1222 8.45946C10.1727 7.91764 10.0043 7.37582 9.65058 6.9913C9.29688 6.5893 8.80845 6.36209 8.28632 6.36209H7.73052C7.56209 6.36209 7.39366 6.29218 7.27577 6.15235C7.15787 6.01253 7.10734 5.83775 7.12418 5.66297C7.15787 5.34836 7.44419 5.10367 7.7642 5.10367H8.40422C8.58949 5.10367 8.74108 5.24349 8.77476 5.41828C8.7916 5.54062 8.9095 5.62801 9.0274 5.62801H9.75164C9.81901 5.62801 9.90322 5.59306 9.9369 5.54062C9.98743 5.48819 10.0043 5.41827 10.0043 5.34836C9.9369 4.59681 9.3811 3.98507 8.67371 3.86273L8.60633 3.84525V3.19856C8.60633 3.05874 8.48844 2.93639 8.35369 2.93639H7.62946C7.49472 2.93639 7.37682 3.05874 7.37682 3.19856V3.84525L7.30945 3.86273C6.39995 4.07246 5.79361 4.96385 5.87783 5.90766C5.96204 6.86895 6.80417 7.62051 7.78104 7.62051H8.25264C8.42107 7.62051 8.58949 7.69042 8.70739 7.83025C8.82529 7.97007 8.87582 8.12737 8.85897 8.31963C8.82529 8.63424 8.53896 8.87893 8.21895 8.87893H7.57893C7.39366 8.87893 7.24208 8.73911 7.2084 8.56433C7.19155 8.44198 7.07365 8.35459 6.95576 8.35459H6.23152C6.16415 8.35459 6.07994 8.38954 6.02941 8.44198C5.97888 8.49441 5.96204 8.56433 5.96204 8.63424C6.02941 9.38579 6.58522 9.99753 7.29261 10.1199L7.35998 10.1374V10.784C7.37682 10.9413 7.49472 11.0637 7.6463 11.0637Z" fill="#3762FD"/>
<path d="M3.75565 6.65922H2.84615C3.01457 3.86273 5.2378 1.64301 7.98316 1.64301C9.19583 1.64301 10.358 2.07997 11.2843 2.88396C11.4022 2.98882 11.5706 2.97135 11.6717 2.86648L12.3791 2.07997C12.4801 1.95762 12.4801 1.76536 12.3622 1.66049C11.1496 0.576853 9.60005 7.71652e-05 7.98316 7.71652e-05C4.36199 -0.0174009 1.43136 2.93639 1.26294 6.65922H0.471334C0.100795 6.65922 -0.118159 7.07869 0.0671099 7.41077L1.70085 10.2073C1.88612 10.5219 2.32403 10.5219 2.50929 10.2073L4.14303 7.41077C4.34514 7.06121 4.12619 6.65922 3.75565 6.65922Z" fill="#3762FD"/>
<path d="M15.9329 6.5893L14.2992 3.79282C14.1139 3.47821 13.676 3.47821 13.4907 3.79282L11.857 6.5893C11.6717 6.92139 11.8907 7.34086 12.2612 7.34086H13.1707C13.0023 10.1374 10.779 12.3571 8.03369 12.3571C6.82101 12.3571 5.65887 11.9201 4.73252 11.1161C4.61463 11.0113 4.4462 11.0287 4.34514 11.1336L3.62091 11.9201C3.51985 12.0425 3.51985 12.2347 3.63775 12.3396C4.85042 13.4232 6.39995 14 8.01684 14C11.638 14 14.5686 11.0287 14.7371 7.32338H15.5287C15.8992 7.32338 16.1182 6.92139 15.9329 6.5893Z" fill="#3762FD"/>
</svg>
