<svg width="24" height="24" viewBox="0 0 24 24" fill="none" xmlns="http://www.w3.org/2000/svg">
<path fill-rule="evenodd" clip-rule="evenodd" d="M6.87626 4H17.1237C17.606 4 18 4.40023 18 4.89V7.59143C18 8.0812 17.606 8.48182 17.1237 8.48182H6.87626C6.39404 8.48182 6 8.0812 6 7.59143V4.89C6 4.40023 6.39404 4 6.87626 4ZM17.1237 9.75909H6.87626C6.39404 9.75909 6 10.1593 6 10.6491V13.3509C6 13.8403 6.39404 14.2409 6.87626 14.2409H17.1237C17.606 14.2409 18 13.8403 18 13.3509V10.6491C18 10.1593 17.606 9.75909 17.1237 9.75909ZM17.1237 15.5182H6.87626C6.39404 15.5182 6 15.9188 6 16.4086V19.11C6 19.5998 6.39404 20 6.87626 20H17.1237C17.606 20 18 19.5998 18 19.11V16.4086C18 15.9188 17.606 15.5182 17.1237 15.5182ZM8.49632 18.6604C8.99193 18.6604 9.3937 18.2523 9.3937 17.7489C9.3937 17.2456 8.99193 16.8375 8.49632 16.8375C8.00071 16.8375 7.59894 17.2456 7.59894 17.7489C7.59894 18.2523 8.00071 18.6604 8.49632 18.6604ZM9.3937 12.0198C9.3937 12.5232 8.99193 12.9313 8.49632 12.9313C8.00071 12.9313 7.59894 12.5232 7.59894 12.0198C7.59894 11.5164 8.00071 11.1084 8.49632 11.1084C8.99193 11.1084 9.3937 11.5164 9.3937 12.0198ZM8.49632 7.20213C8.99193 7.20213 9.3937 6.79406 9.3937 6.29068C9.3937 5.7873 8.99193 5.37922 8.49632 5.37922C8.00071 5.37922 7.59894 5.7873 7.59894 6.29068C7.59894 6.79406 8.00071 7.20213 8.49632 7.20213Z" fill="#161515"/>
</svg>
