<svg width="12" height="12" viewBox="0 0 12 12" fill="none" xmlns="http://www.w3.org/2000/svg">
<path d="M6 0C2.69053 0 0 2.69053 0 6C0 9.30947 2.69053 12 6 12C9.30947 12 12 9.30947 12 6C12 2.69053 9.30947 0 6 0ZM8.3621 7.65474C8.24842 7.81895 8.07158 7.90737 7.88211 7.90737C7.76842 7.90737 7.64211 7.86947 7.54105 7.80632L5.65895 6.48C5.50737 6.36632 5.40632 6.18947 5.40632 6V2.82947C5.40632 2.50105 5.67158 2.23579 6 2.23579C6.32842 2.23579 6.59368 2.50105 6.59368 2.82947V5.69684L8.22316 6.84632C8.48842 7.02316 8.55158 7.38947 8.3621 7.65474Z" fill="currentColor"/>
</svg>
