<svg width="24" height="24" viewBox="0 0 24 24" fill="none" xmlns="http://www.w3.org/2000/svg">
<path fill-rule="evenodd" clip-rule="evenodd" d="M9.33333 16.4444C9.33333 15.9535 9.7313 15.5556 10.2222 15.5556H19.1111C19.602 15.5556 20 15.9535 20 16.4444C20 16.9354 19.602 17.3333 19.1111 17.3333H10.2222C9.7313 17.3333 9.33333 16.9354 9.33333 16.4444Z" fill="#161515"/>
<path fill-rule="evenodd" clip-rule="evenodd" d="M9.59368 17.073C9.24655 16.7259 9.24655 16.163 9.59368 15.8159L12.2603 13.1492C12.6075 12.8021 13.1703 12.8021 13.5174 13.1492C13.8646 13.4964 13.8646 14.0592 13.5174 14.4063L11.4793 16.4444L13.5174 18.4826C13.8646 18.8297 13.8646 19.3925 13.5174 19.7397C13.1703 20.0868 12.6075 20.0868 12.2603 19.7397L9.59368 17.073Z" fill="#161515"/>
<path fill-rule="evenodd" clip-rule="evenodd" d="M4 7.55556C4 7.06464 4.39797 6.66667 4.88889 6.66667H13.7778C14.2687 6.66667 14.6667 7.06464 14.6667 7.55556C14.6667 8.04648 14.2687 8.44445 13.7778 8.44445H4.88889C4.39797 8.44445 4 8.04648 4 7.55556Z" fill="#161515"/>
<path fill-rule="evenodd" clip-rule="evenodd" d="M14.4063 6.92702C14.7534 7.27415 14.7534 7.83696 14.4063 8.1841L11.7397 10.8508C11.3925 11.1979 10.8297 11.1979 10.4826 10.8508C10.1354 10.5036 10.1354 9.94082 10.4826 9.59368L12.5207 7.55556L10.4826 5.51743C10.1354 5.1703 10.1354 4.60748 10.4826 4.26035C10.8297 3.91322 11.3925 3.91322 11.7397 4.26035L14.4063 6.92702Z" fill="#161515"/>
</svg>
