<svg width="24" height="24" viewBox="0 0 24 24" fill="none" xmlns="http://www.w3.org/2000/svg">
<path fill-rule="evenodd" clip-rule="evenodd" d="M22.8 16.8C23.4154 16.8 23.9226 17.2632 23.9919 17.8601L24 18V20.4C24 22.3172 22.5013 23.8844 20.6115 23.9939L20.4 24H3.6C1.68278 24 0.115607 22.5013 0.00611123 20.6115L0 20.4V18C0 17.3373 0.537258 16.8 1.2 16.8C1.8154 16.8 2.32261 17.2632 2.39193 17.8601L2.4 18V20.4C2.4 21.0154 2.86325 21.5226 3.46005 21.5919L3.6 21.6H20.4C21.0154 21.6 21.5226 21.1368 21.5919 20.5399L21.6 20.4V18C21.6 17.3373 22.1373 16.8 22.8 16.8Z" fill="currentColor"/>
<path fill-rule="evenodd" clip-rule="evenodd" d="M11.8218 0.0132214L11.892 0.00479758L12 0L12.0903 0.00334544L12.2409 0.0242881L12.3746 0.0596857L12.5079 0.112408L12.6249 0.175195L12.7505 0.263627L12.8485 0.351472L16.4485 3.95147C16.9172 4.4201 16.9172 5.1799 16.4485 5.64853C15.9799 6.11716 15.2201 6.11716 14.7515 5.64853L13.2 4.0968V15.6C13.2 16.2627 12.6627 16.8 12 16.8C11.3373 16.8 10.8 16.2627 10.8 15.6V4.0968L9.24853 5.64853C8.7799 6.11716 8.0201 6.11716 7.55147 5.64853C7.08284 5.1799 7.08284 4.4201 7.55147 3.95147L11.1515 0.351472C11.1939 0.308999 11.2388 0.270376 11.2856 0.235601L11.4191 0.149605L11.5544 0.0854706L11.6808 0.0430142L11.8218 0.0132214Z" fill="currentColor"/>
</svg>
