<svg width="16" height="14" viewBox="0 0 16 14" fill="none" xmlns="http://www.w3.org/2000/svg">
<path fill-rule="evenodd" clip-rule="evenodd" d="M10.2857 0C10.9169 0 11.4286 0.522334 11.4286 1.16667V2.33333H14.8571C15.4883 2.33333 16 2.85567 16 3.5C16 4.14433 15.4883 4.66667 14.8571 4.66667H13.7143V10.5C13.7143 12.433 12.4351 14 10.8571 14H5.14286C3.5649 14 2.28571 12.433 2.28571 10.5V4.66667H1.14286C0.511675 4.66667 0 4.14433 0 3.5C0 2.85567 0.511675 2.33333 1.14286 2.33333H4.57143V1.16667C4.57143 0.522334 5.0831 0 5.71429 0H10.2857ZM5.71512 4.66677C5.12902 4.66677 4.64597 5.11715 4.57995 5.69738L4.57227 5.83344V10.5001C4.57227 11.1444 5.08394 11.6668 5.71512 11.6668C6.30121 11.6668 6.78427 11.2164 6.85028 10.6362L6.85797 10.5001V5.83344C6.85797 5.18911 6.3463 4.66677 5.71512 4.66677ZM10.2854 4.66677C9.69934 4.66677 9.21628 5.11715 9.15027 5.69738L9.14258 5.83344V10.5001C9.14258 11.1444 9.65425 11.6668 10.2854 11.6668C10.8715 11.6668 11.3546 11.2164 11.4206 10.6362L11.4283 10.5001V5.83344C11.4283 5.18911 10.9166 4.66677 10.2854 4.66677Z" fill="currentColor"/>
</svg>
