<svg width="24" height="24" viewBox="0 0 24 24" fill="none" xmlns="http://www.w3.org/2000/svg">
<path d="M9.09548 11.6698C6.9334 11.6698 5.16205 9.94286 5.16205 7.83492C5.16205 5.72698 6.9334 4 9.09548 4C11.2576 4 13.0289 5.72698 13.0289 7.83492C13.0289 9.94286 11.2576 11.6698 9.09548 11.6698ZM9.09548 5.5C7.63673 5.5 6.69669 6.4127 6.69669 7.83492C6.69669 9.25715 7.63673 10.4 9.09548 10.4C10.5542 10.4 11.5 9.25715 11.5 7.83492C11.5 6.4127 10.5542 5.5 9.09548 5.5Z" fill="black"/>
<path d="M16.6758 11.9746C15.1128 11.9746 13.8364 10.7302 13.8364 9.20637C13.8364 7.68256 15.1128 6.43811 16.6758 6.43811C18.2387 6.43811 19.5152 7.68256 19.5152 9.20637C19.5152 10.7302 18.2387 11.9746 16.6758 11.9746ZM16.6758 7.70795C15.8162 7.70795 15.1389 8.36827 15.1389 9.20637C15.1389 10.0445 15.8162 10.7048 16.6758 10.7048C17.5354 10.7048 18.2127 10.0445 18.2127 9.20637C18.2127 8.36827 17.5354 7.70795 16.6758 7.70795Z" fill="black"/>
<path d="M16.7018 17.5874C15.6599 17.5874 14.9565 17.5366 14.4356 17.4604L13.8885 17.3588V16.7239C13.8885 15.708 13.5499 14.6921 12.9247 13.7778L12.7163 13.4731L12.8987 13.1429C13.6541 11.6699 15.1389 10.7302 16.6758 10.7302C18.9942 10.7302 20.9739 12.762 21 15.1747C21 17.5874 18.7076 17.5874 16.7018 17.5874ZM15.1649 16C15.5557 16.0254 16.0506 16 16.7018 16C19.3328 16 19.5 16.0636 19.5 15.1747C19.4739 13.4985 18.2908 12.2057 16.7018 12.2057C15.738 12.2057 14.8002 12.5334 14.2272 13.3969C14.7742 14.2858 15.0868 15.0095 15.1649 16Z" fill="black"/>
<path d="M9.09552 20C6.09986 20 3 20 3 16.7238C3 13.2952 5.78727 10.4 9.09552 10.4C12.4038 10.4 15.191 13.2952 15.191 16.7238C15.191 20 12.0912 20 9.09552 20ZM9.09552 12C6.5427 12 4.5 14.0317 4.5 16.7238C4.5 18.3492 5.18814 18.5 9.09552 18.5C13.0029 18.5 13.5 18.3492 13.5 16.7238C13.5 14.0317 11.6484 12 9.09552 12Z" fill="black"/>
</svg>
