<svg width="14" height="14" viewBox="0 0 14 14" fill="none" xmlns="http://www.w3.org/2000/svg">
<path d="M7.00017 0.00674775C4.13299 0.00674775 1.4103 -0.248105 0.370343 2.41877C-0.0592217 3.52024 0.00316008 4.95073 0.00316008 6.99902C0.00316008 8.7964 -0.0544838 10.4857 0.370343 11.5785C1.40793 14.2469 4.15273 13.9913 6.99859 13.9913C9.74418 13.9913 12.575 14.2769 13.6276 11.5785C14.058 10.466 13.9948 9.05677 13.9948 6.99902C13.9948 4.26744 14.1456 2.50399 12.8198 1.18002C11.4774 -0.161313 9.66206 0.00674775 6.99701 0.00674775H7.00017ZM6.3732 1.26681C12.3539 1.25734 13.1152 0.592988 12.6951 9.82212C12.5458 13.0863 10.0585 12.7281 7.00096 12.7281C1.42609 12.7281 1.2658 12.5687 1.2658 6.99586C1.2658 1.35833 1.708 1.26996 6.3732 1.26523V1.26681ZM10.7352 2.42745C10.2717 2.42745 9.89579 2.80302 9.89579 3.26618C9.89579 3.72933 10.2717 4.1049 10.7352 4.1049C11.1987 4.1049 11.5746 3.72933 11.5746 3.26618C11.5746 2.80302 11.1987 2.42745 10.7352 2.42745ZM7.00017 3.4082C5.0158 3.4082 3.4073 5.01622 3.4073 6.99902C3.4073 8.98181 5.0158 10.589 7.00017 10.589C8.98454 10.589 10.5923 8.98181 10.5923 6.99902C10.5923 5.01622 8.98454 3.4082 7.00017 3.4082ZM7.00017 4.66826C10.0837 4.66826 10.0877 9.32977 7.00017 9.32977C3.91741 9.32977 3.91267 4.66826 7.00017 4.66826Z" fill="url(#paint0_linear_3819_70116)"/>
<defs>
<linearGradient id="paint0_linear_3819_70116" x1="0.90186" y1="13.1058" x2="13.9134" y2="1.84451" gradientUnits="userSpaceOnUse">
<stop stop-color="#FFDD55"/>
<stop offset="0.5" stop-color="#FF543E"/>
<stop offset="1" stop-color="#C837AB"/>
</linearGradient>
</defs>
</svg>
