<svg width="14" height="14" viewBox="0 0 14 14" fill="none" xmlns="http://www.w3.org/2000/svg">
<path d="M3.09836 4.81967H0.229508V14H3.09836V4.81967ZM3.35656 1.66393C3.35807 1.44693 3.31683 1.23175 3.23518 1.03069C3.15353 0.829622 3.03307 0.646609 2.88069 0.492097C2.72831 0.337586 2.54699 0.214601 2.34708 0.130167C2.14717 0.0457329 1.93258 0.00150175 1.71558 0H1.66394C1.22263 9.29976e-09 0.799404 0.175308 0.487355 0.487356C0.175307 0.799404 0 1.22263 0 1.66393C0 2.10524 0.175307 2.52847 0.487355 2.84051C0.799404 3.15256 1.22263 3.32787 1.66394 3.32787C1.88096 3.33321 2.0969 3.29573 2.29944 3.21759C2.50197 3.13944 2.68712 3.02215 2.84431 2.87242C3.00149 2.7227 3.12764 2.54346 3.21553 2.34497C3.30343 2.14647 3.35135 1.9326 3.35656 1.71557V1.66393ZM14 8.42295C14 5.66311 12.2443 4.59017 10.5 4.59017C9.9289 4.56157 9.36028 4.68321 8.85085 4.94295C8.34143 5.2027 7.90901 5.59147 7.59673 6.07049H7.5164V4.81967H4.81968V14H7.68853V9.11721C7.64706 8.61713 7.80458 8.12089 8.12688 7.73628C8.44918 7.35167 8.91022 7.10977 9.40984 7.06312H9.51886C10.4312 7.06312 11.1082 7.63689 11.1082 9.08279V14H13.9771L14 8.42295Z" fill="#0A66C2"/>
</svg>
